<?xml version="1.0" standalone="no"?>
<!DOCTYPE svg PUBLIC "-//W3C//DTD SVG 20010904//EN"
 "http://www.w3.org/TR/2001/REC-SVG-20010904/DTD/svg10.dtd">
<svg version="1.0" xmlns="http://www.w3.org/2000/svg"
 width="300.000000pt" height="275.000000pt" viewBox="0 0 300.000000 275.000000"
 preserveAspectRatio="xMidYMid meet">
<metadata>
Created by potrace 1.10, written by Peter Selinger 2001-2011
</metadata>
<g transform="translate(0.000000,275.000000) scale(0.050000,-0.050000)"
fill="#000000" stroke="none">
<path d="M2480 5310 c-15 -19 -21 -58 -14 -100 10 -58 4 -74 -32 -92 -24 -13
-77 -54 -117 -93 -71 -67 -75 -68 -120 -37 -131 91 -229 -17 -108 -121 61 -53
71 -70 54 -102 -12 -21 -27 -85 -34 -142 -10 -71 -23 -103 -44 -103 -16 0 -59
-14 -95 -32 -114 -53 -383 121 -644 417 l-198 225 -379 6 c-438 6 -469 2 -469
-64 0 -68 22 -72 437 -73 l373 -2 165 -197 165 -197 0 -869 c0 -829 2 -876 42
-1007 123 -397 376 -623 751 -670 270 -35 2151 -10 2293 30 256 72 377 174
428 356 l32 116 82 -50 c45 -28 179 -105 297 -173 187 -107 214 -128 203 -164
-8 -23 -95 -215 -195 -426 l-182 -383 -290 -7 c-322 -7 -373 8 -311 93 87 118
32 220 -69 131 -67 -58 -160 -10 -209 108 -68 163 -245 203 -364 84 -37 -37
-68 -82 -68 -99 0 -17 -33 -54 -74 -82 l-74 -50 -45 42 c-78 74 -160 -42 -84
-118 17 -17 13 -48 -20 -127 -24 -57 -43 -115 -43 -128 0 -40 -102 -50 -531
-50 -388 0 -509 14 -509 60 0 11 -19 61 -43 111 l-42 91 42 45 c50 53 55 98
14 132 -31 26 -111 11 -111 -21 0 -83 -164 4 -208 110 -82 197 -341 202 -426
9 -18 -41 -59 -94 -91 -118 l-58 -43 -50 46 c-87 82 -172 -22 -89 -109 l41
-44 -49 -100 c-27 -54 -49 -109 -49 -120 -1 -12 -35 -30 -76 -40 -118 -30
-108 -149 12 -149 46 -1 60 -17 105 -127 l51 -127 -46 -54 c-55 -64 -57 -79
-16 -121 42 -41 54 -40 115 17 l51 47 114 -57 c164 -83 335 -82 506 4 l123 61
62 -51 c117 -99 202 7 88 112 l-49 47 48 119 c61 150 46 146 531 148 498 2
532 -3 549 -85 7 -35 28 -94 47 -133 32 -66 32 -72 -1 -105 -87 -87 -10 -189
88 -116 l61 45 121 -55 c167 -75 367 -65 513 26 l97 60 59 -58 c39 -39 70 -54
92 -46 51 20 42 114 -16 169 -31 29 -43 55 -32 68 10 12 30 61 44 109 14 48
35 90 47 93 11 4 45 12 74 18 106 23 68 152 -45 152 -21 0 -38 9 -38 20 0 12
110 20 290 20 295 0 370 20 370 99 0 10 44 112 99 225 192 403 315 693 302
714 -11 18 -333 222 -351 222 -4 0 -77 42 -163 93 -87 51 -215 125 -287 164
-71 39 -209 118 -306 177 -96 58 -179 106 -184 106 -5 0 -67 35 -137 78 -71
43 -181 107 -246 141 -64 35 -130 71 -147 82 -134 83 -563 330 -674 388 -167
86 -240 246 -142 311 25 17 72 54 106 83 l60 52 69 -37 c132 -71 217 46 92
126 -48 31 -67 56 -58 76 7 17 22 81 32 144 19 105 26 116 86 136 146 48 135
176 -12 152 -105 -17 -162 81 -147 250 22 235 -207 379 -397 250 -115 -78
-256 -79 -281 -2 -30 91 -87 117 -134 60z m444 -275 c29 -22 15 -51 -115 -255
-80 -126 -193 -309 -249 -405 -125 -213 -133 -219 -203 -135 -206 247 -121
632 173 787 75 39 347 45 394 8z m196 -140 c306 -336 4 -894 -448 -826 -181
27 -166 74 197 621 37 55 90 138 119 185 63 102 58 101 132 20z m-1052 -674
c133 -75 276 -155 319 -179 42 -24 163 -96 270 -160 106 -64 234 -137 283
-162 94 -47 351 -195 640 -369 94 -56 197 -115 230 -130 33 -16 155 -85 270
-152 116 -68 305 -178 420 -245 349 -200 331 -186 323 -264 -36 -365 -200
-399 -1843 -380 l-870 10 -116 55 c-232 108 -393 340 -432 622 -23 162 -32
1617 -10 1638 6 7 71 -24 143 -68 72 -44 240 -141 373 -216z m-216 -3555 c-4
-5 -55 11 -112 36 -365 157 -323 715 60 817 l50 14 5 -429 c3 -237 2 -434 -3
-438z m298 806 c337 -181 248 -708 -135 -803 l-55 -13 0 442 0 443 55 -13 c30
-7 91 -32 135 -56z m1890 -374 l0 -442 -46 11 c-500 126 -476 802 31 871 8 1
15 -197 15 -440z m263 371 c294 -189 275 -612 -34 -759 -174 -82 -169 -93
-169 386 0 495 3 501 203 373z"/>
</g>
</svg>
