<?xml version="1.0" standalone="no"?>
<!DOCTYPE svg PUBLIC "-//W3C//DTD SVG 20010904//EN"
 "http://www.w3.org/TR/2001/REC-SVG-20010904/DTD/svg10.dtd">
<svg version="1.0" xmlns="http://www.w3.org/2000/svg"
 width="300.000000pt" height="275.000000pt" viewBox="0 0 300.000000 275.000000"
 preserveAspectRatio="xMidYMid meet">
<metadata>
Created by potrace 1.10, written by Peter Selinger 2001-2011
</metadata>
<g transform="translate(0.000000,275.000000) scale(0.100000,-0.100000)"
fill="#000000" stroke="none">
<path d="M1240 2655 c-8 -9 -10 -28 -6 -49 6 -30 3 -37 -16 -47 -13 -6 -40
-27 -60 -47 -36 -34 -37 -35 -63 -18 -31 21 -64 18 -79 -7 -9 -16 -5 -24 28
-53 36 -31 38 -36 28 -59 -7 -14 -12 -45 -12 -69 0 -43 -1 -44 -40 -50 -21 -3
-43 -13 -47 -21 -7 -11 -28 -2 -109 45 -101 59 -139 94 -239 218 -27 35 -59
65 -70 68 -11 2 -108 3 -215 2 l-195 -3 -3 -24 c-2 -13 2 -28 10 -32 7 -5 99
-9 203 -10 l190 0 83 -99 82 -99 0 -438 c0 -486 0 -488 66 -613 65 -124 187
-204 336 -222 113 -14 1054 -4 1127 12 135 29 231 114 231 204 0 34 13 39 41
17 13 -10 29 -20 34 -22 32 -12 235 -134 235 -140 0 -9 -27 -67 -137 -297
l-59 -124 -152 -1 c-140 -2 -153 -1 -158 16 -4 12 3 28 20 46 30 32 31 35 10
55 -21 22 -29 20 -58 -11 -23 -24 -26 -25 -41 -9 -9 9 -25 21 -36 26 -10 6
-19 20 -19 31 0 12 -15 36 -34 55 -28 28 -42 34 -76 34 -34 0 -48 -6 -76 -34
-19 -19 -34 -42 -34 -52 -1 -11 -17 -29 -37 -42 l-36 -23 -22 21 c-27 25 -41
25 -55 0 -11 -21 0 -55 20 -62 5 -1 -1 -25 -15 -53 -13 -27 -25 -60 -25 -73
l0 -22 -256 2 -256 3 -15 45 c-8 25 -22 53 -30 62 -15 16 -14 20 11 39 28 22
33 48 14 67 -18 18 -36 15 -59 -12 l-21 -24 -39 26 c-21 15 -38 35 -39 44 0
10 -14 33 -31 53 -26 29 -38 35 -71 35 -54 0 -94 -26 -117 -75 -11 -23 -32
-50 -46 -59 -26 -17 -28 -17 -50 4 -15 14 -30 20 -43 16 -33 -11 -35 -37 -6
-67 24 -25 25 -29 11 -50 -9 -13 -21 -43 -28 -67 -11 -37 -16 -42 -38 -40 -36
3 -51 -8 -51 -37 0 -24 17 -35 55 -35 18 0 26 -8 36 -37 6 -21 19 -50 27 -65
15 -26 15 -28 -11 -48 -32 -25 -35 -55 -8 -70 26 -14 27 -14 54 15 l23 26 48
-27 c34 -19 67 -28 116 -32 75 -5 120 6 176 44 l37 25 26 -32 c21 -25 32 -30
49 -25 34 11 30 60 -7 82 l-29 17 24 45 c13 25 24 53 24 62 0 25 44 30 260 30
215 0 260 -5 260 -30 0 -9 11 -39 25 -65 24 -49 24 -49 5 -70 -23 -24 -25 -46
-8 -63 17 -17 24 -15 50 13 l23 24 59 -29 c92 -47 196 -40 277 16 l38 26 27
-31 c29 -35 36 -37 58 -15 22 22 20 31 -13 65 l-30 29 19 43 c11 23 20 50 20
60 0 12 8 17 28 17 16 0 37 6 48 14 28 22 7 50 -40 54 -27 2 -36 8 -36 21 0
17 9 18 134 13 165 -6 183 -2 202 45 9 19 37 80 64 133 26 54 51 109 55 122 4
12 28 65 52 116 25 53 41 98 37 102 -10 10 -173 110 -179 110 -2 0 -39 21 -82
46 -43 26 -106 62 -141 81 -34 18 -103 58 -153 88 -49 30 -92 55 -94 55 -3 0
-35 18 -71 41 -37 22 -77 45 -88 50 -12 5 -39 20 -61 33 -22 14 -51 31 -65 38
-14 8 -79 46 -145 85 -66 39 -149 86 -184 104 -35 19 -65 41 -66 49 -2 8 -6
31 -10 51 -7 35 -5 38 39 68 25 18 46 36 46 41 0 16 20 11 47 -10 31 -24 46
-25 67 -4 25 24 19 43 -20 66 -25 15 -33 25 -28 37 3 9 12 43 18 76 11 57 12
60 48 68 73 17 58 83 -16 73 -41 -5 -41 -5 -63 42 -14 30 -19 50 -13 56 17 17
11 79 -10 113 -20 34 -75 63 -117 63 -27 0 -58 -14 -86 -38 -9 -9 -39 -17 -66
-18 -48 -2 -49 -2 -55 31 -8 43 -42 59 -66 30z m315 -60 c44 -22 67 -71 46
-104 -7 -12 -14 -10 -36 8 -15 11 -33 21 -39 21 -14 1 -66 46 -66 59 0 7 33
24 58 30 2 1 19 -6 37 -14z m-87 -74 c10 -6 -4 -36 -60 -125 -90 -144 -109
-176 -150 -248 -18 -32 -38 -58 -44 -58 -15 0 -48 38 -69 80 -10 19 -20 62
-23 96 -4 51 0 71 20 115 49 107 114 148 233 148 44 1 86 -3 93 -8z m128 -128
c91 -186 -61 -389 -269 -358 -80 12 -79 6 -2 136 13 21 114 182 137 218 10 14
27 43 38 65 l21 38 25 -23 c13 -13 36 -47 50 -76z m-726 -188 c50 -30 92 -55
94 -55 2 0 54 -29 116 -65 62 -36 114 -65 116 -65 2 0 39 -22 82 -48 42 -27
118 -70 167 -97 50 -27 118 -66 153 -87 34 -21 65 -38 67 -38 3 0 51 -28 108
-63 56 -34 116 -69 132 -77 28 -13 116 -64 325 -187 47 -28 109 -62 138 -77
57 -29 57 -29 39 -99 -15 -60 -60 -107 -124 -130 -71 -25 -289 -33 -793 -27
l-435 5 -58 27 c-111 52 -190 160 -213 293 -12 67 -21 845 -9 845 2 0 45 -25
95 -55z m228 -55 c27 -48 28 -54 2 -38 -11 7 -20 17 -20 23 0 6 -9 16 -20 23
-12 7 -18 17 -15 22 12 20 30 9 53 -30z m375 -187 c6 -34 3 -53 -7 -42 -8 9
-14 79 -7 79 5 0 11 -17 14 -37z m-33 -15 c-1 -30 -2 -31 -14 -15 -7 9 -19 17
-27 17 -8 1 -25 7 -39 15 -24 14 -23 14 28 15 l52 0 0 -32z m-432 -1090 c23
-19 14 -45 -20 -52 -41 -8 -98 3 -98 19 0 13 27 40 50 48 17 6 50 -1 68 -15z
m1084 -10 c10 -11 16 -24 13 -28 -7 -11 -67 -19 -98 -13 -36 7 -34 42 3 60 30
15 59 8 82 -19z m-1157 -298 c0 -172 -3 -220 -13 -220 -7 0 -35 11 -62 25 -57
29 -93 76 -112 148 -30 115 63 255 177 266 6 1 10 -78 10 -219z m146 184 c46
-28 83 -82 99 -141 22 -87 -30 -193 -120 -238 -84 -42 -79 -54 -82 196 l-3
220 34 -6 c18 -4 51 -17 72 -31z m939 -184 c0 -192 -2 -220 -16 -220 -27 0
-106 41 -131 68 -35 37 -63 106 -63 153 0 99 102 211 198 218 9 1 12 -49 12
-219z m132 184 c51 -33 86 -82 100 -142 10 -45 9 -60 -5 -106 -23 -71 -46 -99
-109 -130 -93 -46 -88 -57 -88 195 l0 221 33 -7 c17 -4 49 -17 69 -31z"/>
</g>
</svg>
