<?xml version="1.0" standalone="no"?>
<!DOCTYPE svg PUBLIC "-//W3C//DTD SVG 20010904//EN"
 "http://www.w3.org/TR/2001/REC-SVG-20010904/DTD/svg10.dtd">
<svg version="1.0" xmlns="http://www.w3.org/2000/svg"
 width="300.000000pt" height="260.000000pt" viewBox="0 0 300.000000 260.000000"
 preserveAspectRatio="xMidYMid meet">
<metadata>
Created by potrace 1.10, written by Peter Selinger 2001-2011
</metadata>
<g transform="translate(0.000000,260.000000) scale(0.100000,-0.100000)"
fill="#000000" stroke="none">
<path d="M1525 2358 c-16 -6 -38 -18 -49 -27 -26 -22 -96 -118 -96 -131 0 -30
34 -110 47 -110 8 0 25 -12 38 -26 21 -22 30 -25 59 -20 27 5 40 16 57 45 12
22 31 44 43 49 11 6 77 13 146 17 l125 6 43 -36 c39 -34 42 -40 42 -85 0 -53
-24 -120 -43 -120 -6 0 -39 14 -72 30 -33 16 -74 30 -91 30 -17 0 -48 7 -68
15 -32 14 -39 14 -66 0 -17 -9 -33 -27 -36 -42 -9 -33 10 -157 43 -288 14 -55
28 -113 31 -130 2 -16 11 -39 18 -50 10 -14 14 -61 14 -180 0 -153 1 -162 25
-200 13 -22 25 -47 25 -55 0 -8 -18 -33 -40 -54 -39 -38 -41 -42 -38 -95 l3
-56 55 3 c122 7 189 7 195 0 10 -10 -24 -97 -52 -135 -12 -17 -23 -38 -23 -45
0 -8 -4 -18 -9 -24 -5 -5 -20 -36 -34 -69 -13 -33 -43 -87 -65 -119 -39 -56
-42 -64 -42 -128 0 -51 4 -70 14 -74 47 -18 139 102 212 276 15 36 33 72 40
80 6 8 24 41 39 73 36 74 129 165 150 147 8 -7 15 -24 15 -37 0 -14 13 -53 29
-87 17 -33 36 -77 44 -96 25 -62 187 -260 212 -260 7 0 20 -8 29 -19 9 -10 44
-29 78 -41 49 -18 65 -20 85 -11 13 6 35 11 48 11 32 0 32 18 2 75 -22 41
-101 113 -139 128 -16 6 -68 98 -68 120 0 5 -10 23 -22 40 -12 16 -25 49 -29
71 -4 23 -10 55 -14 72 -7 30 -5 32 23 38 16 4 41 4 54 1 14 -4 40 0 59 8 50
22 119 90 120 118 1 39 8 68 24 99 8 16 15 48 15 72 0 24 7 151 15 283 16 245
33 350 68 419 25 48 15 70 -37 74 -29 3 -47 -4 -86 -33 -28 -20 -50 -40 -50
-44 0 -18 -58 -31 -142 -31 -89 0 -126 7 -196 36 -18 8 -64 14 -103 14 -79 0
-93 13 -67 59 8 14 18 40 22 56 4 17 15 39 25 50 10 11 27 36 37 55 32 60 29
59 102 38 99 -29 427 -38 504 -13 51 17 118 68 118 90 0 19 -59 56 -90 57 -16
1 -42 -8 -57 -18 -25 -17 -45 -19 -202 -17 -155 3 -182 6 -249 28 -45 15 -97
25 -132 25 -37 0 -76 8 -107 21 -78 34 -123 47 -203 58 -41 6 -95 15 -120 20
-59 13 -217 12 -255 -1z m576 -648 c22 -5 58 -15 82 -22 23 -6 118 -13 210
-14 111 -2 174 -7 183 -15 17 -14 19 -98 2 -134 -11 -25 -14 -25 -72 -19 -34
4 -68 10 -77 15 -9 4 -47 11 -85 14 -38 3 -91 12 -119 20 -98 27 -150 34 -191
25 -65 -16 -177 -12 -202 6 -20 14 -22 21 -16 62 4 26 14 52 23 59 20 15 207
17 262 3z m148 -305 c68 -14 141 -25 162 -25 45 0 142 -21 150 -32 3 -5 3 -22
1 -39 l-4 -30 -92 4 c-157 6 -439 37 -489 53 -28 8 -62 12 -81 9 -25 -5 -35
-3 -39 9 -10 24 10 65 35 76 36 16 222 3 357 -25z m-89 -267 c36 -6 134 -12
218 -12 171 -1 173 -2 165 -68 -4 -32 -9 -38 -29 -38 -13 0 -33 -5 -43 -11
-14 -9 -25 -8 -51 5 -28 13 -70 16 -270 16 l-238 0 -16 25 c-27 41 -21 60 25
75 22 8 43 18 46 23 6 10 94 3 193 -15z"/>
<path d="M465 2151 c-25 -8 -84 -36 -152 -69 -40 -21 -53 -33 -57 -55 -10 -52
-7 -69 32 -151 57 -120 64 -142 72 -246 4 -52 13 -117 19 -145 44 -188 44
-188 27 -220 -9 -16 -16 -52 -16 -78 0 -43 -5 -55 -45 -102 -36 -42 -47 -63
-51 -102 -5 -40 -12 -52 -41 -73 -19 -14 -52 -38 -73 -55 l-39 -30 0 -92 c-1
-103 11 -141 48 -150 20 -5 30 1 58 33 18 21 35 46 38 55 3 8 25 25 49 36 37
19 51 34 95 114 28 50 51 95 51 99 0 4 16 31 35 59 19 28 35 59 35 69 0 10 5
23 11 29 16 16 30 227 18 287 -5 28 -18 74 -28 102 -11 28 -24 93 -30 145 -10
85 -9 101 11 169 22 79 41 110 66 110 20 0 77 -18 127 -40 22 -10 65 -21 95
-25 54 -6 121 -26 169 -49 13 -6 69 -11 124 -11 l99 0 53 58 c42 46 54 67 60
105 3 26 8 54 10 63 1 8 -5 26 -14 38 l-17 22 -85 -21 c-110 -29 -249 -25
-295 8 -38 27 -137 60 -216 71 -35 5 -92 18 -127 30 -67 22 -83 24 -116 12z"/>
<path d="M701 1504 c-12 -15 -21 -41 -21 -61 0 -18 -9 -69 -21 -113 -24 -96
-25 -109 -10 -226 11 -82 10 -97 -9 -170 -19 -74 -19 -80 -3 -91 9 -7 23 -13
30 -13 8 0 31 -9 52 -19 l38 -20 39 24 c34 21 51 24 138 25 91 0 103 2 150 30
71 40 92 93 101 250 3 63 8 157 11 208 7 104 -1 134 -46 177 l-29 28 -88 -28
c-97 -31 -203 -45 -203 -26 0 16 -60 51 -87 51 -12 0 -31 -12 -42 -26z m319
-249 c15 -17 9 -93 -13 -170 l-14 -50 -79 0 c-91 0 -91 0 -93 121 -1 97 14
110 130 113 39 1 60 -4 69 -14z"/>
</g>
</svg>
