<?xml version="1.0" standalone="no"?>
<!DOCTYPE svg PUBLIC "-//W3C//DTD SVG 20010904//EN"
 "http://www.w3.org/TR/2001/REC-SVG-20010904/DTD/svg10.dtd">
<svg version="1.0" xmlns="http://www.w3.org/2000/svg"
 width="450.000000pt" height="576.000000pt" viewBox="0 0 450.000000 576.000000"
 preserveAspectRatio="xMidYMid meet">
<metadata>
Created by potrace 1.10, written by Peter Selinger 2001-2011
</metadata>
<g transform="translate(0.000000,576.000000) scale(0.050000,-0.050000)"
fill="#000000" stroke="none">
<path d="M3048 11476 c-23 -25 -43 -75 -45 -110 -5 -82 -70 -235 -133 -310
-28 -33 -50 -74 -50 -93 0 -18 -26 -48 -57 -66 -40 -22 -62 -54 -71 -103 -18
-94 -55 -122 -142 -105 -69 13 -70 12 -70 -55 0 -42 -15 -81 -40 -104 -22 -20
-40 -49 -40 -64 0 -114 -78 -186 -205 -187 -98 -1 -115 -6 -79 -20 62 -25 41
-53 -62 -82 -49 -15 -122 -61 -176 -113 -51 -48 -113 -98 -139 -111 -48 -24
-216 -227 -219 -263 -4 -71 -164 -248 -225 -249 -20 -1 -121 -86 -226 -191
-138 -139 -203 -190 -240 -190 -27 0 -65 -8 -84 -19 -19 -10 -50 -23 -69 -28
-19 -6 -44 -49 -58 -97 -49 -173 -227 -294 -288 -196 -20 33 -50 2 -50 -50 0
-26 -18 -60 -40 -75 -71 -51 -108 -169 -60 -195 50 -27 58 -174 10 -193 -46
-17 -36 -54 30 -117 33 -32 60 -71 60 -87 0 -16 15 -46 33 -66 32 -36 30 -36
-63 -8 -89 27 -100 26 -143 -8 l-47 -37 88 -106 c49 -59 85 -113 81 -119 -22
-37 91 -65 127 -32 45 41 96 43 111 5 9 -24 24 -25 83 -7 57 18 65 26 41 40
-18 10 -27 26 -20 36 6 11 -8 19 -32 19 -36 0 -41 8 -31 48 9 37 2 50 -32 59
-43 11 -43 12 10 61 66 61 68 76 9 70 -66 -6 -126 23 -92 44 21 13 13 30 -32
72 -50 46 -54 57 -25 62 19 4 34 22 35 40 0 31 2 31 21 -1 11 -19 32 -35 47
-35 46 0 50 52 7 89 -30 25 -35 40 -18 50 13 8 23 23 21 33 -12 64 2 88 38 65
73 -45 116 -3 55 53 -60 56 -84 62 -99 25 -6 -15 -16 -7 -24 20 -8 25 -26 45
-41 45 -16 0 -28 8 -28 17 0 10 23 13 50 8 37 -7 50 -1 50 23 0 45 55 40 85
-8 13 -22 33 -40 43 -40 9 0 30 -16 44 -35 25 -33 27 -33 27 0 1 19 11 35 22
35 12 0 17 -7 11 -16 -5 -9 2 -41 18 -70 31 -60 12 -84 -53 -63 -27 8 -37 6
-29 -8 7 -11 -2 -29 -21 -39 -69 -39 42 -71 115 -33 34 18 67 27 73 21 5 -6
28 12 50 40 38 49 39 53 5 85 -26 24 -37 27 -44 8 -16 -42 -41 -28 -63 36 -27
75 -12 115 44 123 28 4 41 18 37 41 -3 21 7 35 25 35 17 0 31 -13 31 -30 0
-16 10 -30 23 -30 12 0 39 -19 59 -42 20 -23 45 -36 57 -29 30 19 26 51 -7 51
-15 0 -32 18 -38 40 -6 22 -2 40 7 40 10 0 27 -18 39 -40 28 -52 60 -51 60 2
0 25 -16 46 -40 52 -26 7 -34 20 -24 38 19 33 6 188 -16 188 -32 0 -72 -66
-45 -75 14 -5 25 -22 25 -40 0 -23 -11 -19 -41 16 -27 31 -46 40 -55 26 -9
-14 -31 -16 -57 -6 -68 26 -74 57 -13 71 31 7 76 25 100 40 28 17 48 20 56 8
21 -33 50 -22 50 19 0 21 21 55 46 75 25 20 53 54 61 76 15 38 17 38 42 5 15
-20 46 -33 73 -30 38 4 49 -5 54 -47 5 -45 -1 -51 -55 -51 -37 0 -61 10 -61
26 0 38 -11 34 -69 -24 -64 -64 -66 -58 29 -149 44 -42 80 -90 80 -106 0 -16
13 -35 30 -41 46 -18 36 -47 -20 -61 -52 -13 -65 -40 -30 -62 26 -16 152 61
168 102 19 48 15 53 -28 42 -22 -6 -45 -2 -51 8 -7 10 -21 13 -31 7 -25 -16
-14 68 17 123 13 24 18 48 11 55 -7 7 2 13 21 13 18 0 33 15 33 33 0 18 16 45
35 59 21 16 25 27 10 27 -34 1 -31 50 6 122 28 56 28 59 -10 59 -24 0 -41 13
-41 31 0 17 10 25 21 18 12 -7 38 2 58 20 20 18 48 30 63 27 14 -3 28 5 30 19
1 14 5 30 8 35 3 6 6 21 8 34 1 14 25 36 52 50 35 18 40 26 16 26 -30 0 -31 6
-6 54 15 29 23 60 18 69 -6 9 4 11 21 5 18 -7 36 1 43 20 7 18 25 32 41 32 29
0 127 93 127 121 0 8 24 21 53 28 28 7 79 40 111 72 69 69 130 82 97 20 -26
-49 -27 -81 -1 -81 11 0 20 12 20 28 0 15 15 39 33 55 30 24 32 21 19 -30 -13
-55 -11 -57 42 -46 44 9 39 3 -24 -27 -44 -22 -75 -40 -70 -42 144 -39 397
101 297 164 -22 14 -22 17 1 18 16 0 23 5 17 12 -7 6 -32 5 -56 -2 -26 -8 -35
-20 -23 -28 12 -7 -14 -14 -57 -15 -44 -1 -79 4 -79 12 0 26 48 61 84 61 20 0
36 9 36 21 0 41 -61 42 -137 3 -48 -25 -87 -34 -104 -23 -16 10 -38 8 -53 -5
-19 -15 -26 -14 -26 6 0 20 -5 21 -24 2 -33 -33 -76 -30 -76 5 0 40 106 88
169 76 42 -8 50 -18 40 -52 -12 -42 -12 -42 20 2 18 25 48 45 65 45 17 0 43
16 58 35 24 33 27 33 56 -5 18 -23 31 -29 31 -15 1 17 17 22 49 14 37 -10 51
-3 61 29 8 23 23 42 34 42 38 0 95 88 74 114 -27 32 -4 66 44 66 24 0 34 10
27 27 -6 17 6 32 31 38 27 8 41 2 41 -17 0 -33 9 -34 55 -9 19 10 51 23 72 30
69 21 22 61 -66 55 -72 -4 -83 0 -77 30 5 25 23 34 55 31 27 -3 55 5 63 18 11
18 28 15 66 -10 29 -19 52 -25 52 -13 0 11 14 20 30 20 17 0 41 22 53 49 23
51 121 103 155 83 11 -7 -3 -35 -33 -65 -46 -46 -48 -54 -18 -70 40 -23 43
-57 5 -57 -35 0 -20 -68 23 -104 26 -22 29 -20 17 17 -10 32 -3 45 26 52 26 7
43 -1 49 -22 7 -27 9 -27 11 4 1 20 22 53 47 73 l45 36 -69 18 c-76 20 -107
66 -44 66 44 0 123 96 123 149 0 24 11 30 37 22 31 -10 35 -2 27 49 -5 36 0
60 14 60 12 0 22 -17 22 -38 0 -60 22 -102 52 -102 15 0 28 -14 28 -30 0 -16
10 -28 23 -25 27 6 61 -100 49 -151 -7 -28 -3 -31 17 -14 15 12 34 19 44 17
120 -33 347 121 286 194 -14 17 -18 36 -10 44 8 8 23 -1 33 -20 18 -32 25 -32
78 -5 71 37 200 40 201 5 0 -15 8 -11 20 8 12 21 34 29 59 23 43 -11 56 24 15
41 -18 7 -18 10 -1 11 13 1 29 -7 36 -18 7 -11 29 -20 49 -20 52 0 67 -55 22
-80 -52 -28 -116 -25 -127 5 -7 20 -14 20 -35 0 -15 -14 -42 -25 -61 -25 -41
0 -158 -63 -158 -85 0 -9 -22 -25 -50 -35 -58 -22 -65 -52 -15 -64 58 -14 102
4 116 46 7 23 37 45 71 51 32 7 58 24 58 40 0 37 33 34 48 -4 6 -18 28 -29 47
-25 19 4 46 -6 60 -23 22 -28 28 -27 52 4 32 40 64 45 85 12 8 -13 -2 -35 -23
-50 -20 -15 -30 -27 -21 -27 22 0 138 83 165 119 19 25 28 25 55 3 27 -23 32
-22 32 3 0 17 -20 36 -44 42 -24 6 -39 17 -32 24 22 21 96 -12 96 -42 0 -16
13 -29 29 -29 16 0 44 -31 62 -70 39 -81 30 -78 121 -41 53 23 72 24 77 5 24
-76 28 -81 29 -39 4 103 42 36 42 -74 0 -68 10 -125 23 -133 16 -10 19 1 11
34 -7 27 -4 62 7 78 12 20 18 22 19 5 0 -14 23 -25 50 -25 28 0 50 -10 50 -22
0 -12 13 -17 29 -11 20 8 26 1 18 -23 -9 -30 -7 -30 19 2 27 33 30 31 38 -25
5 -34 2 -61 -7 -61 -10 0 -17 -10 -17 -21 0 -12 8 -17 17 -11 10 6 44 -11 75
-38 68 -58 75 -60 107 -21 30 36 21 94 -16 107 -20 6 -23 -3 -14 -34 10 -31 6
-39 -15 -31 -30 12 -75 175 -56 204 14 22 172 22 193 0 8 -8 1 -19 -16 -26
-38 -14 -23 -89 18 -89 22 0 24 9 7 40 -23 43 -2 54 34 18 36 -36 117 -14 109
30 -4 27 2 34 25 25 18 -7 46 -19 63 -26 21 -8 35 1 41 26 12 45 119 83 188
67 l49 -12 -49 -34 c-27 -19 -78 -34 -114 -34 -69 0 -86 -32 -42 -76 19 -19 8
-24 -48 -24 -92 0 -131 -42 -91 -99 16 -22 32 -37 37 -33 4 5 9 -13 11 -39 5
-81 87 -144 87 -67 0 36 5 39 30 18 26 -22 29 -20 18 8 -7 18 -27 30 -45 27
-51 -8 -47 52 6 90 47 34 111 29 111 -8 0 -11 -9 -14 -21 -7 -11 8 -9 -15 6
-52 15 -36 39 -69 53 -74 20 -7 21 0 4 32 -32 60 -28 111 7 97 24 -9 29 7 25
83 -4 93 -3 94 70 112 59 15 75 29 80 70 8 71 76 84 76 15 0 -28 -9 -56 -20
-63 -23 -14 16 -84 56 -99 21 -8 24 10 14 84 -9 65 -7 86 7 67 10 -16 14 -42
8 -58 -8 -20 -4 -26 12 -16 13 8 23 3 23 -10 0 -14 6 -19 13 -12 7 8 25 4 40
-8 39 -33 92 -6 78 39 -17 53 80 52 118 -1 18 -26 31 -31 41 -17 7 13 2 36
-11 52 -37 45 -14 54 135 51 108 -1 142 -9 166 -40 37 -47 120 -74 138 -45 9
14 35 16 73 5 55 -15 52 -17 -47 -31 -63 -9 -115 -7 -130 5 -33 27 -232 39
-242 14 -5 -11 -18 -7 -30 10 -17 24 -21 25 -22 2 0 -26 -55 -80 -83 -81 -7
-1 -9 17 -3 39 13 47 -18 53 -54 10 -31 -38 5 -90 64 -90 21 0 33 -8 27 -18
-16 -26 -111 -40 -111 -15 0 14 -8 13 -23 -2 -31 -31 -6 -87 32 -73 20 8 31 1
31 -19 0 -49 35 -57 91 -20 45 29 51 43 39 105 -12 71 -12 71 20 27 18 -25 31
-61 29 -80 -8 -75 1 -90 47 -81 48 9 110 -72 73 -95 -31 -19 29 -89 76 -89 40
0 45 -10 45 -88 0 -95 48 -167 55 -82 3 26 -3 52 -12 58 -8 5 -14 49 -12 96 6
109 45 120 125 37 39 -41 77 -61 116 -60 54 0 55 2 18 23 -95 54 -83 86 39
103 111 15 190 -16 177 -68 -8 -29 -1 -34 32 -25 30 8 54 -4 84 -42 29 -36 60
-52 104 -52 81 -1 123 -27 108 -68 -9 -22 -2 -32 22 -33 19 0 51 -13 71 -28
20 -16 50 -23 65 -17 15 5 28 -1 28 -14 0 -16 -17 -20 -52 -11 -30 7 -64 3
-81 -11 -22 -18 -34 -19 -52 -1 -17 17 -12 23 24 23 67 0 31 29 -40 32 -68 4
-74 -12 -22 -59 41 -38 36 -133 -7 -133 -49 0 -48 -80 3 -140 27 -32 51 -77
52 -99 2 -23 17 -45 34 -51 31 -10 141 -200 141 -244 0 -50 202 -174 242 -149
96 60 175 -20 97 -98 -46 -46 -49 -63 -13 -55 31 7 154 -120 154 -158 0 -15 7
-26 15 -27 33 -1 240 -212 250 -254 26 -105 -88 -40 -127 73 -15 43 -39 66
-75 74 -94 20 -103 26 -103 65 0 37 -45 71 -66 51 -21 -22 26 -154 64 -181 51
-36 55 -74 6 -58 -25 8 -46 -6 -70 -47 -61 -104 -36 -162 36 -82 28 30 42 35
63 17 34 -28 35 -90 2 -110 -37 -23 -95 -23 -95 0 0 14 -8 13 -22 -1 -28 -28
-3 -72 33 -58 36 14 61 -28 29 -48 -13 -8 -41 -11 -62 -5 -54 14 -47 -33 7
-54 26 -11 32 -19 15 -20 -49 -2 -88 -105 -49 -127 28 -16 28 -21 -5 -45 -34
-27 -34 -29 9 -41 71 -20 51 -86 -35 -113 -16 -6 -3 -6 29 -2 47 6 55 3 35
-17 -31 -31 -31 -101 0 -132 13 -13 15 -25 5 -26 -10 -1 -37 -4 -59 -5 -28 -2
-38 -15 -33 -42 4 -21 -9 -51 -29 -65 -23 -17 -26 -26 -9 -26 21 0 21 -6 -2
-34 -23 -29 -23 -31 3 -16 16 10 69 21 117 23 98 6 125 21 85 46 -30 19 -13
61 25 61 22 0 26 -34 16 -135 -2 -15 -34 -25 -83 -25 -64 0 -79 -7 -77 -35 8
-89 -4 -125 -41 -125 -23 0 -41 -18 -47 -45 -5 -25 -16 -61 -25 -80 -23 -56
44 -43 82 15 32 49 108 70 108 29 0 -11 -15 -18 -33 -15 -54 10 -52 -35 2 -60
63 -29 66 -64 6 -64 -28 0 -58 -21 -79 -55 l-33 -55 -20 53 c-47 124 -73 85
-81 -123 -8 -208 -35 -198 -55 19 -10 113 -6 149 15 163 20 12 21 17 3 18 -14
0 -25 18 -25 39 0 27 10 36 29 29 33 -13 31 126 -2 149 -26 19 -67 118 -69
169 -2 34 -5 36 -12 9 -5 -19 -17 -35 -27 -35 -24 0 -25 34 -1 49 51 31 101
169 71 199 -47 47 -34 85 39 120 96 45 116 152 28 152 -25 0 -37 -12 -35 -35
11 -111 -28 -137 -73 -48 l-22 44 -53 -53 c-38 -39 -49 -66 -41 -100 9 -33 2
-51 -20 -60 -26 -10 -28 -19 -10 -40 17 -20 17 -28 0 -28 -28 0 -29 -65 -1
-93 12 -12 26 -70 31 -129 5 -60 14 -144 19 -188 6 -44 15 -229 19 -410 5
-182 23 -416 41 -520 40 -235 62 -1790 26 -1834 -16 -19 -15 -34 2 -55 14 -16
19 -38 12 -49 -6 -11 -13 -124 -13 -251 -1 -132 -10 -231 -21 -231 -36 0 -92
-70 -106 -133 -13 -61 -62 -123 -100 -125 -10 -1 -21 -17 -24 -36 -15 -111
-33 -179 -51 -201 -12 -14 -20 -89 -18 -167 2 -84 -5 -136 -16 -129 -11 6 -23
-9 -28 -34 -5 -25 -10 7 -11 70 -7 276 -46 87 -65 -310 -2 -32 -11 -49 -23
-42 -14 9 -15 3 -4 -14 22 -36 11 -185 -15 -201 -10 -7 -19 -18 -18 -25 6 -41
-2 -53 -33 -53 -22 -1 -27 -6 -12 -15 16 -11 15 -22 -5 -41 -23 -21 -28 -18
-28 19 0 24 -6 38 -13 31 -7 -8 -12 -41 -11 -74 1 -33 -6 -60 -15 -60 -8 0
-12 -21 -7 -46 6 -29 -6 -59 -36 -85 -25 -21 -37 -26 -28 -11 11 19 9 24 -7
14 -13 -8 -23 -27 -23 -43 0 -16 -10 -29 -22 -29 -15 0 -13 -12 5 -34 15 -18
16 -27 4 -20 -15 9 -28 -7 -36 -43 -9 -37 -25 -57 -46 -56 -22 2 -38 -21 -51
-72 -23 -96 -63 -100 -48 -5 11 65 8 70 -40 70 -51 0 -51 -1 -16 -40 20 -22
30 -46 23 -53 -7 -8 -13 -3 -13 10 0 13 -13 23 -30 23 -16 0 -30 -14 -30 -31
0 -17 -9 -26 -20 -19 -11 7 -20 -8 -20 -32 0 -25 6 -39 13 -32 7 8 24 5 38 -7
17 -14 28 -11 37 13 15 38 72 3 72 -44 0 -16 18 -28 40 -28 23 0 40 13 40 31
0 17 10 25 21 18 12 -7 17 -17 12 -23 -5 -5 -2 -35 7 -67 14 -47 10 -64 -21
-86 -21 -14 -33 -33 -26 -40 8 -7 2 -13 -12 -13 -15 0 -20 -13 -13 -32 7 -17
17 -118 23 -224 6 -106 21 -204 32 -218 11 -13 14 -35 5 -49 -14 -23 -27 -96
-27 -147 1 -97 21 -326 31 -350 18 -42 22 -119 6 -109 -8 5 -19 -5 -25 -21
-14 -36 -86 -40 -100 -5 -7 18 -20 14 -42 -14 -28 -35 -31 -35 -31 -4 0 26 -8
30 -35 16 -48 -26 -525 -21 -525 4 0 12 -11 6 -25 -12 -26 -34 -135 -28 -135
9 0 10 -9 13 -20 6 -12 -7 -15 -21 -9 -31 6 -11 -17 -19 -51 -19 -34 0 -57 8
-51 19 7 11 -12 11 -51 0 -35 -10 -73 -12 -84 -5 -30 18 -214 20 -214 2 0 -9
-31 -16 -70 -16 -38 0 -70 7 -70 16 0 20 -120 70 -160 66 -16 -1 -59 -5 -95
-9 -58 -7 -65 -2 -65 41 0 40 7 46 40 36 26 -8 40 -4 40 14 0 16 -25 26 -69
25 -84 0 -102 -15 -61 -49 51 -42 35 -50 -120 -56 -92 -3 -150 2 -150 15 0 13
-17 13 -53 0 -30 -11 -66 -16 -80 -10 -15 5 -27 1 -27 -10 0 -12 -79 -18 -205
-14 -113 3 -225 -2 -250 -11 -36 -14 -42 -11 -32 16 7 19 -2 43 -24 58 -37 27
-27 105 11 82 11 -7 26 2 32 19 17 42 148 43 148 1 0 -18 -18 -30 -44 -30 -43
0 -43 -1 -5 -29 29 -20 41 -22 47 -5 15 46 53 55 177 42 94 -10 125 -6 125 13
0 17 12 15 38 -9 33 -30 38 -30 49 -3 7 17 19 30 27 29 51 -8 73 6 36 23 -32
15 -27 18 30 15 39 -1 133 8 210 21 77 13 199 28 270 34 282 21 349 36 356 79
5 33 3 35 -15 10 -17 -26 -20 -25 -21 6 0 20 -9 31 -19 25 -11 -7 -37 -1 -59
12 -27 17 -47 18 -65 4 -44 -33 -171 -32 -184 1 -6 16 0 34 13 39 19 8 19 10
0 11 -13 1 -29 -7 -36 -18 -7 -11 -103 -20 -219 -20 -216 0 -331 -14 -331 -41
0 -8 23 -13 50 -10 45 5 59 -10 52 -54 -1 -8 14 -15 33 -15 29 -1 30 -4 6 -19
-17 -11 -35 -11 -41 -2 -5 10 -48 10 -95 2 -47 -9 -85 -8 -85 2 0 9 -31 17
-70 17 -53 0 -70 -8 -70 -35 0 -22 -6 -27 -15 -13 -8 12 -48 34 -89 49 -56 20
-69 33 -54 51 15 19 10 22 -23 14 -32 -9 -40 -23 -34 -59 7 -36 1 -47 -29 -47
-21 0 -34 7 -28 16 5 9 -23 16 -63 16 -40 0 -76 10 -80 23 -6 18 -17 18 -46 0
-47 -30 -73 -6 -39 35 39 47 1 73 -74 52 -96 -28 -385 -4 -372 31 6 16 -3 27
-24 27 -22 0 -30 -11 -23 -29 11 -28 -55 -65 -96 -54 -47 14 -123 -21 -81 -37
22 -8 50 -7 63 3 15 12 28 11 36 -2 8 -12 4 -21 -8 -21 -11 0 -21 -9 -21 -19
0 -11 14 -14 31 -8 17 7 28 3 25 -9 -3 -11 2 -20 12 -20 10 0 25 -13 35 -27
14 -22 20 -22 36 2 12 19 45 28 93 24 41 -2 81 6 89 19 8 13 26 16 39 8 19
-12 17 -20 -7 -34 -18 -10 -33 -27 -33 -38 0 -11 8 -16 17 -10 20 13 71 -41
90 -94 9 -25 25 -33 51 -25 21 7 50 0 66 -15 15 -16 62 -41 105 -56 l77 -28
-58 -13 c-41 -8 -16 -14 82 -18 119 -5 126 -7 45 -14 -68 -5 -95 -16 -95 -37
0 -17 8 -26 17 -20 32 20 2962 2 3088 -19 86 -14 89 -8 37 67 -126 180 -135
1532 -11 1729 262 417 358 677 439 1190 32 208 60 323 86 360 21 30 45 75 52
99 8 24 58 76 111 115 188 138 356 379 399 573 12 51 31 119 44 150 48 122
118 442 118 538 -2 359 -131 969 -206 970 -9 0 -11 8 -5 19 7 10 0 28 -14 39
-118 94 -157 140 -168 197 -16 88 15 83 94 -16 42 -54 71 -75 84 -62 23 23
-81 182 -119 183 -13 0 -37 18 -52 41 -22 30 -42 38 -79 28 -67 -16 -85 55
-54 208 35 172 33 169 75 127 45 -45 70 -104 43 -104 -10 0 -19 -20 -19 -43 0
-24 -15 -60 -32 -79 -30 -34 -29 -37 25 -48 83 -17 193 -75 203 -108 7 -20 -1
-24 -23 -16 -18 7 -33 4 -33 -7 0 -10 9 -19 21 -19 11 0 40 -18 64 -40 69 -65
136 16 75 90 -14 17 -18 53 -10 89 9 40 3 75 -19 105 -48 70 -41 124 14 106
84 -26 154 -35 187 -22 58 22 -8 72 -96 72 -75 0 -275 149 -276 205 0 22 96
18 110 -5 18 -30 164 -25 176 6 16 44 -6 261 -28 275 -12 8 -32 35 -45 61 -13
27 -44 57 -68 68 -67 29 -59 78 10 62 112 -27 115 -25 115 45 0 41 14 76 36
93 23 16 29 31 15 39 -11 7 -21 31 -21 52 0 22 -9 39 -20 39 -22 0 -140 106
-140 126 0 6 20 14 44 18 32 4 48 24 58 71 7 36 24 79 38 95 20 25 21 42 2 83
-21 47 -17 57 52 118 l76 65 -55 22 c-70 27 -73 70 -5 57 106 -20 85 159 -40
346 -39 56 -70 123 -70 147 0 26 -30 71 -72 109 -54 47 -70 74 -61 106 6 24
-3 76 -21 115 -33 77 -36 200 -5 231 48 48 22 291 -38 351 -185 185 -221 293
-60 178 33 -23 65 -37 71 -31 24 25 -40 71 -205 146 -138 62 -169 84 -161 114
10 38 -67 121 -131 143 -18 6 -57 47 -87 90 -60 86 -138 120 -283 120 -101 0
-141 38 -103 99 57 92 -113 217 -193 142 -26 -25 -64 -41 -84 -36 -30 7 -26
14 23 35 l60 27 -90 12 c-49 6 -134 36 -188 66 -113 64 -114 64 -99 25 15 -39
-32 -39 -262 1 -293 52 -285 84 16 70 73 -4 95 2 89 21 -15 44 -119 60 -246
39 -281 -47 -330 -44 -330 23 0 21 -13 52 -30 69 -36 36 -39 130 -6 163 33 33
7 51 -38 27 -57 -31 -99 -118 -70 -147 36 -36 29 -96 -11 -96 -67 1 -313 60
-333 80 -11 11 -92 21 -181 21 -270 3 -263 63 9 84 51 4 70 14 70 40 0 19 -6
33 -13 30 -7 -3 -32 12 -55 33 -38 34 -51 30 -44 -13 3 -23 -67 -18 -92 7 -13
13 -18 36 -12 51 9 23 -4 23 -72 -5 -93 -37 -204 -28 -316 25 -62 30 -118 29
-221 -3 -28 -9 -45 -6 -45 8 0 12 23 22 50 22 61 0 66 35 8 57 -48 18 -239
-16 -280 -50 -32 -26 -181 -50 -328 -52 -70 -1 -146 18 -250 62 -164 69 -354
123 -431 123 -41 0 -50 12 -61 80 -9 52 -24 80 -43 80 -23 0 -28 -16 -19 -68
15 -91 -10 -117 -173 -181 -152 -60 -198 -50 -159 34 74 155 -41 289 -146 171z
m782 -256 c7 -11 37 -20 67 -20 69 0 163 -42 163 -74 0 -68 -41 -123 -104
-136 -36 -8 -114 -41 -174 -74 -145 -80 -169 -59 -147 135 14 128 19 140 65
146 28 3 59 15 69 25 25 23 46 23 61 -2z m-397 -115 l3 -85 -73 0 c-95 -1
-142 -29 -108 -63 40 -40 29 -74 -34 -106 -129 -67 -191 -1 -104 111 21 27 43
67 51 90 7 23 33 53 57 66 25 13 68 37 95 53 80 47 110 29 113 -66z m1401 68
c7 -7 2 -13 -11 -13 -12 0 -23 -9 -23 -20 0 -11 35 -20 77 -20 101 0 118 -21
47 -59 -32 -17 -97 -60 -143 -95 -68 -52 -93 -61 -123 -45 -69 37 -37 127 62
173 48 23 48 23 -25 25 -67 1 -98 31 -66 64 14 14 189 5 205 -10z m-329 -86
c-35 -14 -31 -47 5 -47 35 0 40 -32 7 -52 -15 -9 -11 -20 12 -32 26 -15 28
-25 10 -48 -27 -32 -114 -37 -158 -9 -19 12 -40 10 -58 -5 -25 -20 -283 -37
-283 -18 0 16 146 64 196 64 40 0 65 14 80 45 12 25 22 34 23 20 2 -37 41 -31
41 6 0 17 7 27 16 21 9 -5 32 8 50 29 19 21 45 38 59 37 20 -1 20 -3 0 -11z
m895 -48 c85 -57 -231 -144 -380 -105 -132 35 -115 86 28 86 56 0 116 9 132
20 39 25 182 25 220 -1z m-406 -247 c-9 -22 4 -24 67 -10 74 17 96 19 229 19
268 1 386 -6 559 -31 109 -17 238 -30 286 -30 91 0 106 -26 39 -68 -25 -16
-50 -12 -100 14 -53 29 -82 32 -149 17 -46 -10 -88 -14 -93 -8 -5 5 -94 12
-196 15 -178 5 -182 4 -96 -19 54 -15 88 -35 84 -50 -4 -18 11 -23 46 -16 28
5 56 2 62 -8 6 -9 -4 -17 -22 -17 -18 0 -28 -8 -22 -17 28 -45 -37 -79 -98
-52 -33 15 -49 28 -35 28 48 2 24 41 -25 41 -27 0 -50 -10 -50 -22 0 -12 -13
-17 -30 -11 -16 7 -30 5 -30 -3 0 -25 -86 -25 -147 -1 -45 19 -60 18 -75 -5
-12 -20 -17 -13 -18 28 0 33 8 51 20 44 11 -7 20 -3 20 9 0 11 14 21 30 21 17
0 30 14 30 30 0 38 -20 38 -76 -1 -24 -17 -53 -26 -64 -19 -11 7 -76 19 -144
26 -110 13 -120 17 -93 44 17 17 26 42 22 55 -5 15 9 25 35 25 29 0 41 -9 34
-28z m-1098 -37 c-7 -52 -64 -70 -108 -33 -21 17 -24 30 -8 46 16 16 26 14 38
-5 13 -21 19 -20 29 5 18 48 57 38 49 -13z m-945 -100 c14 -58 -108 -75 -127
-18 -4 14 5 18 24 11 23 -9 32 -1 32 27 0 87 48 74 71 -20z m3755 -4 c64 -17
120 -31 125 -31 5 0 9 -9 9 -20 0 -11 -22 -20 -50 -20 -33 0 -50 -11 -50 -32
0 -23 -7 -27 -25 -14 -14 11 -52 18 -84 16 -39 -3 -71 10 -93 37 -28 35 -39
37 -64 16 -22 -18 -34 -19 -44 -3 -8 12 -24 18 -37 14 -34 -13 -93 23 -93 56
0 37 237 26 406 -19z m-487 -24 c33 -30 -62 -72 -111 -50 -38 17 -60 19 -75 4
-27 -27 -233 -28 -233 -1 0 11 0 27 -1 35 -2 35 381 46 420 12z m1031 -73 c57
-31 58 -32 12 -33 -53 -1 -203 38 -229 60 -33 29 159 5 217 -27z m152 -238
c86 -48 92 -60 48 -96 -25 -21 -44 -15 -110 30 -139 96 -88 151 62 66z m-242
-30 c96 -43 212 -140 192 -160 -6 -7 -35 -2 -63 11 -28 13 -72 23 -97 23 -26
0 -58 13 -70 28 -13 15 -46 34 -73 40 -27 7 -49 26 -49 42 0 17 -13 30 -30 30
-16 0 -30 8 -30 17 0 29 126 11 220 -31z m777 -95 c75 -38 110 -84 95 -123
-11 -30 -16 -30 -62 0 -29 19 -69 28 -96 21 -55 -14 -154 21 -154 53 0 69 125
97 217 49z m-377 -45 c0 -26 5 -27 32 -5 26 22 34 22 48 -1 26 -43 5 -59 -72
-56 -82 3 -98 20 -68 76 24 45 60 36 60 -14z m-5724 -221 c-48 -98 -66 -123
-97 -131 -84 -22 -79 54 6 106 67 41 104 51 91 25z m6324 -294 l49 -27 -75
-15 c-73 -13 -132 6 -77 26 23 8 23 13 0 27 -47 30 47 20 103 -11z m177 -69
c17 -11 22 -33 14 -60 -8 -24 -5 -42 7 -42 45 0 125 -152 110 -209 -13 -52
-17 -54 -103 -41 -124 18 -145 29 -145 70 0 34 -91 127 -140 143 -51 17 5 81
61 70 44 -9 62 -1 88 38 33 51 63 60 108 31z m199 -126 c61 -61 11 -75 -59
-17 -45 38 -45 40 -6 40 23 1 52 -10 65 -23z m-7236 -216 c0 -18 -50 -40 -92
-40 -40 0 -35 56 7 65 42 9 85 -3 85 -25z m7071 -169 c28 -28 20 -91 -12 -91
-8 0 -30 -5 -47 -12 -21 -8 -38 3 -50 35 -31 82 47 131 109 68z m-7655 -341
c2 -38 -6 -70 -17 -70 -10 0 -19 32 -19 70 0 39 8 70 17 70 9 0 18 -31 19 -70z
m7923 -849 c34 -22 28 -31 -34 -50 -37 -11 -45 -6 -45 28 0 44 31 52 79 22z
m-8286 -47 c33 12 44 -82 13 -111 -28 -26 -74 -13 -56 16 5 9 -4 22 -20 28
-17 7 -30 30 -30 53 0 33 7 38 35 23 19 -9 45 -14 58 -9z m8205 -2006 c66 -14
85 -48 27 -49 -33 0 -33 -1 0 -21 50 -29 44 -61 -33 -161 -56 -73 -63 -94 -44
-121 13 -18 45 -121 70 -229 25 -109 54 -218 64 -243 10 -25 18 -66 18 -91 0
-25 10 -55 23 -68 28 -28 27 -266 -1 -284 -11 -7 -26 -49 -33 -94 -11 -70
-126 -189 -142 -146 -2 5 -28 -12 -59 -39 -115 -100 -259 -66 -200 48 16 30
24 67 19 81 -6 14 2 47 16 72 14 26 28 97 31 157 4 69 17 118 36 132 38 29 38
48 -2 77 -42 31 -46 170 -8 297 21 71 23 104 7 131 -42 67 -56 453 -18 485 18
15 44 39 57 52 27 28 80 32 172 14z m9 -1654 c7 7 13 -9 13 -36 -1 -46 -138
-168 -190 -168 -11 0 -17 -29 -14 -65 16 -154 -47 -192 -101 -60 -70 171 -39
351 56 315 59 -23 195 13 178 46 -7 13 1 8 16 -11 16 -19 35 -29 42 -21z
m-3118 -3654 c87 2 49 -21 -52 -31 -95 -9 -157 4 -157 32 0 9 34 13 75 8 41
-5 102 -9 134 -9z m-955 -226 c-2 -27 -13 -33 -43 -24 -23 7 -61 18 -86 24
-76 18 -50 41 43 38 72 -2 88 -9 86 -38z m1241 -189 c-42 -4 -105 -4 -140 1
-36 4 -2 8 75 7 77 0 106 -3 65 -8z m1723 -12 c-4 -4 -62 -12 -128 -18 -72 -7
-104 -5 -80 5 39 17 225 28 208 13z"/>
<path d="M8458 4574 c-30 -19 -30 -25 0 -77 42 -75 56 -72 51 13 -4 85 -9 92
-51 64z"/>
<path d="M5164 11275 c-21 -25 -12 -31 61 -40 102 -12 294 9 263 30 -52 33
-298 41 -324 10z"/>
<path d="M3445 10746 c-34 -13 -32 -115 3 -144 22 -19 29 -9 37 52 10 82 0
106 -40 92z"/>
<path d="M4680 10612 c0 -16 -5 -43 -12 -60 -8 -20 -2 -32 16 -32 38 0 23
-123 -17 -146 -22 -13 -14 -31 36 -85 77 -81 91 -78 43 9 -37 65 -32 77 44
110 12 5 9 16 -6 27 -14 10 -24 27 -21 37 13 45 -27 168 -54 168 -16 0 -29
-13 -29 -28z"/>
<path d="M4385 10561 c-14 -23 -17 -41 -6 -41 10 0 14 -22 9 -50 -6 -33 0 -50
18 -50 40 0 56 23 36 48 -10 12 -22 47 -25 78 -7 53 -8 54 -32 15z"/>
<path d="M4020 10485 c-16 -6 -57 -39 -90 -72 -33 -34 -44 -49 -25 -35 19 15
35 22 35 15 0 -6 27 -2 60 10 45 16 99 109 55 95 -3 0 -18 -6 -35 -13z"/>
<path d="M5076 10454 c-11 -57 2 -98 26 -83 23 15 24 129 0 129 -9 0 -21 -21
-26 -46z"/>
<path d="M4884 10378 c-3 -37 7 -56 33 -63 20 -5 38 -26 40 -47 12 -122 5
-254 -14 -273 -33 -33 -28 -95 7 -95 17 0 30 16 31 35 0 19 8 102 18 183 15
127 12 156 -19 207 -20 33 -32 72 -27 86 7 17 -4 26 -27 24 -26 -2 -39 -20
-42 -57z"/>
<path d="M3660 10340 c0 -58 8 -80 30 -80 22 0 30 22 30 80 0 58 -8 80 -30 80
-22 0 -30 -22 -30 -80z"/>
<path d="M3139 10329 c-22 -27 -22 -35 2 -50 68 -43 113 8 52 59 -21 17 -34
15 -54 -9z"/>
<path d="M5214 10347 c-8 -7 -14 -32 -14 -55 1 -31 5 -35 18 -15 9 14 24 26
34 25 25 -3 22 43 -3 52 -12 4 -28 1 -35 -7z"/>
<path d="M6463 10328 c-18 -21 -45 -27 -78 -19 -41 11 -48 7 -38 -20 7 -18 13
-45 13 -61 0 -16 25 -39 55 -51 31 -12 44 -26 30 -31 -14 -5 -25 -33 -24 -63
0 -48 3 -50 27 -18 14 19 41 35 60 35 27 0 29 8 13 39 -30 55 -26 102 7 89 34
-13 39 95 5 117 -31 20 -39 18 -70 -17z"/>
<path d="M2893 10327 c-44 -44 27 -74 102 -44 l55 23 -50 15 c-67 20 -91 22
-107 6z"/>
<path d="M3303 10239 c-18 -41 -20 -68 -5 -93 14 -24 21 -27 21 -9 1 16 14 22
30 16 24 -9 25 -3 6 39 -18 40 -17 54 3 67 20 12 20 18 -2 26 -18 7 -38 -11
-53 -46z"/>
<path d="M3575 10240 c-33 -85 -34 -128 -2 -96 17 17 27 52 22 78 -6 34 -11
39 -20 18z"/>
<path d="M4090 10203 c-11 -10 -38 -23 -60 -29 -32 -8 -30 -10 11 -12 28 -1
62 -13 75 -26 19 -19 24 -18 24 1 0 14 10 19 23 11 15 -9 18 -5 9 9 -8 13 -22
19 -32 13 -9 -6 -20 4 -23 21 -5 20 -14 25 -27 12z"/>
<path d="M5264 10188 c-14 -15 -48 -28 -75 -28 -27 0 -49 -9 -49 -20 0 -35
113 -21 148 18 19 21 27 42 18 48 -9 5 -28 -3 -42 -18z"/>
<path d="M6295 10188 c-17 -17 25 -128 49 -128 11 0 15 14 8 32 -7 17 -12 49
-12 70 0 37 -22 50 -45 26z"/>
<path d="M2939 10153 c-1 -13 -5 -41 -10 -64 -5 -29 3 -40 30 -40 21 0 37 8
35 19 -2 10 14 24 36 30 22 7 40 25 40 41 0 36 -129 49 -131 14z"/>
<path d="M4740 10126 c-1 -30 -4 -31 -20 -6 -17 26 -19 26 -20 -3 0 -27 57
-96 62 -74 10 48 8 101 -5 109 -9 6 -17 -6 -17 -26z"/>
<path d="M6633 10099 c-10 -50 -3 -70 42 -110 42 -36 47 -48 22 -48 -19 -1
-38 10 -44 24 -8 20 -10 20 -11 0 -1 -14 -21 -25 -43 -25 -25 0 -36 -9 -28
-22 8 -12 38 -18 66 -13 29 5 76 3 103 -6 28 -8 39 -16 25 -17 -36 -3 -31 -62
5 -62 36 0 40 62 5 99 -17 18 -17 23 -1 14 43 -25 47 24 6 63 -23 21 -63 67
-88 102 l-47 63 -12 -62z"/>
<path d="M5595 10080 c51 -47 96 -52 112 -11 7 19 1 25 -16 19 -15 -6 -33 -1
-40 11 -7 11 -33 21 -56 21 l-43 0 43 -40z"/>
<path d="M6163 10060 c-19 -55 -83 -86 -83 -40 0 11 -13 20 -30 20 -42 0 -37
-26 10 -55 22 -14 40 -43 40 -65 0 -22 9 -40 20 -40 11 0 20 21 20 47 0 26 18
63 40 83 40 37 55 110 22 110 -10 0 -27 -27 -39 -60z"/>
<path d="M2560 10051 c-94 -93 -99 -102 -58 -128 50 -31 65 -29 51 7 -7 17 10
51 38 79 48 48 64 91 34 91 -9 0 -38 -22 -65 -49z"/>
<path d="M3543 9982 c-2 -81 7 -126 27 -142 39 -32 39 -98 0 -113 -65 -25 -27
-107 49 -104 43 1 54 6 28 11 -57 11 -74 79 -28 111 29 20 32 35 15 75 -32 79
-34 108 -8 126 14 10 7 12 -19 5 -39 -11 -42 -6 -34 56 6 38 1 74 -9 81 -12 7
-20 -36 -21 -106z"/>
<path d="M3233 10052 c-13 -36 3 -92 27 -92 31 0 41 68 13 95 -24 24 -29 24
-40 -3z"/>
<path d="M5180 10041 c0 -10 9 -24 21 -32 11 -7 15 -32 8 -56 -12 -42 -12 -42
21 3 27 36 28 52 9 75 -27 33 -59 38 -59 10z"/>
<path d="M2780 9970 c20 -25 19 -30 -10 -30 -22 0 -30 -11 -23 -29 6 -17 -2
-43 -18 -59 -39 -40 -38 -42 29 -42 57 0 59 3 57 95 -2 68 -10 95 -31 95 -23
0 -24 -6 -4 -30z"/>
<path d="M6270 9960 c-12 -19 29 -120 48 -120 74 2 77 129 3 134 -22 2 -45 -4
-51 -14z"/>
<path d="M3333 9891 c-6 -16 -3 -35 8 -41 11 -7 6 -37 -13 -74 -45 -87 -56
-196 -20 -196 34 0 89 180 83 269 -5 65 -39 90 -58 42z"/>
<path d="M5313 9828 c-40 -37 -50 -58 -33 -68 18 -11 19 -25 1 -58 -25 -48
-13 -82 30 -82 17 0 23 12 16 30 -6 17 -1 43 12 58 17 22 17 31 -3 39 -19 8
-17 18 11 40 20 17 33 44 30 62 -6 26 -18 22 -64 -21z"/>
<path d="M7536 9869 c-7 -7 -28 -14 -48 -17 -20 -3 -40 -17 -45 -32 -5 -16 2
-22 19 -16 16 6 46 3 68 -5 34 -14 35 -16 5 -18 -58 -2 -41 -161 17 -161 39 0
35 34 -7 60 -31 18 -29 20 12 16 31 -4 58 10 78 39 17 26 21 45 9 45 -12 0
-25 -16 -30 -35 -7 -26 -10 -24 -12 10 -1 25 7 45 18 45 11 0 20 14 20 30 0
17 -8 30 -18 30 -10 0 -31 5 -46 11 -16 5 -34 5 -40 -2z"/>
<path d="M5565 9834 c-48 -22 -57 -44 -25 -64 34 -21 22 -67 -21 -80 -53 -17
-38 -62 18 -55 24 2 43 -2 43 -10 0 -8 27 -16 60 -17 69 -3 83 53 29 113 -16
18 -34 54 -39 79 -11 58 -12 59 -65 34z"/>
<path d="M6984 9829 c-29 -33 -31 -32 41 -40 59 -7 69 9 31 47 -30 30 -40 29
-72 -7z"/>
<path d="M5940 9814 c0 -17 -11 -36 -25 -42 -20 -10 -20 -14 0 -24 14 -6 25
-28 25 -48 0 -48 17 -57 118 -70 85 -11 109 15 58 66 -38 38 -76 28 -76 -20 0
-43 -1 -43 -29 -5 -38 51 -39 89 -1 89 17 0 30 14 30 30 0 17 -8 30 -18 30
-10 0 -33 5 -50 12 -21 8 -32 1 -32 -18z"/>
<path d="M1924 9754 c-36 -37 -58 -74 -49 -83 8 -9 -5 -12 -30 -6 -25 6 -45 3
-45 -8 0 -26 -61 -87 -115 -115 -55 -29 -58 -55 -6 -72 27 -8 61 9 114 59 41
39 91 71 110 71 19 0 41 20 48 43 18 57 89 135 89 97 0 -14 5 -21 12 -15 14
14 -27 95 -49 95 -8 0 -44 -30 -79 -66z"/>
<path d="M2887 9796 c6 -19 3 -40 -8 -47 -10 -6 -19 -42 -19 -79 0 -37 -9 -73
-20 -80 -11 -7 -20 -3 -20 9 0 49 -53 16 -71 -44 -16 -56 -28 -65 -83 -65 -78
0 -131 -42 -87 -69 34 -21 -4 -81 -51 -81 -15 0 -94 -45 -176 -100 -165 -111
-183 -118 -152 -60 14 26 14 40 1 40 -11 0 -17 11 -14 25 4 14 3 18 -2 10 -5
-8 -24 -15 -43 -15 -56 0 -83 -39 -56 -82 18 -29 13 -53 -22 -119 -24 -46 -44
-92 -44 -104 0 -36 -99 -114 -130 -102 -30 11 -39 -25 -31 -128 3 -33 -7 -45
-38 -45 -45 0 -53 20 -19 54 12 12 16 32 9 44 -18 29 -77 28 -107 -2 -19 -19
-29 -19 -48 0 -34 34 -51 30 -65 -14 -7 -21 -30 -42 -52 -48 -22 -6 -39 -27
-39 -51 0 -23 -17 -46 -41 -53 -40 -13 -40 -15 -7 -52 21 -24 42 -31 56 -20
52 42 223 48 186 6 -20 -22 -30 -52 -22 -72 28 -72 -141 -158 -182 -92 -7 11
-27 20 -44 20 -17 0 -43 16 -57 35 -14 19 -32 28 -40 20 -8 -8 -3 -28 11 -45
14 -17 21 -36 15 -41 -6 -6 -3 -42 5 -80 9 -38 9 -69 0 -69 -9 0 -9 -32 0 -72
17 -72 40 -114 40 -71 0 12 9 23 20 23 11 0 18 -7 15 -15 -6 -17 12 -25 56
-25 17 0 26 8 20 18 -20 32 11 78 46 69 39 -11 55 65 22 105 -14 16 -10 27 10
35 18 7 39 -5 52 -29 13 -24 34 -36 51 -30 15 6 28 4 28 -4 0 -8 29 -26 64
-39 62 -24 63 -26 25 -54 -33 -26 -35 -33 -9 -50 21 -13 34 -11 46 10 10 18
45 28 90 27 l74 -1 -70 -25 -70 -26 70 -12 c221 -38 260 -39 260 -7 0 22 -25
37 -80 45 -101 16 -100 29 5 75 80 34 82 37 40 54 -32 13 -66 8 -113 -14 -87
-42 -185 -24 -263 48 -33 30 -69 57 -79 59 -22 4 -48 70 -36 91 5 9 17 10 27
4 11 -6 19 -2 19 10 0 11 16 21 36 21 23 0 42 23 55 65 12 41 34 68 59 72 59
10 70 28 77 113 4 43 16 81 29 85 59 20 125 91 114 124 -21 68 60 136 250 209
43 17 100 55 159 107 28 25 61 45 73 45 50 0 146 63 135 89 -6 17 30 58 93
104 67 51 92 79 71 83 -37 8 -42 60 -6 59 79 -3 90 6 82 68 -4 35 -26 91 -49
125 -23 34 -37 47 -31 28z"/>
<path d="M7732 9790 l-58 -24 66 -33 c67 -34 139 -45 112 -18 -9 8 -24 16 -34
18 -10 1 -24 3 -30 5 -7 1 -2 15 11 30 33 40 1 51 -67 22z"/>
<path d="M2540 9725 c0 -14 -14 -25 -31 -25 -24 0 -26 -8 -9 -40 12 -22 29
-40 38 -40 26 0 40 72 20 103 -13 20 -17 20 -18 2z"/>
<path d="M2040 9668 c0 -15 8 -28 18 -28 10 0 14 -17 8 -38 -10 -38 -84 -82
-137 -82 -26 0 -37 -23 -32 -63 1 -8 -29 -11 -66 -8 -90 7 -149 -54 -100 -103
23 -23 37 -26 54 -9 17 17 29 9 46 -32 23 -54 24 -53 21 25 -2 81 75 108 137
48 70 -67 149 8 143 137 -3 64 6 73 71 66 19 -1 39 6 45 16 16 25 -45 47 -91
32 -24 -8 -37 -2 -37 17 0 16 -18 34 -40 40 -26 7 -40 0 -40 -18z"/>
<path d="M4000 9670 c-14 -17 -21 -36 -15 -42 22 -21 196 -66 185 -47 -7 10
-30 19 -51 19 -22 0 -39 12 -39 28 0 49 -51 76 -80 42z"/>
<path d="M4480 9609 c0 -69 -40 -82 -85 -27 -30 38 -36 40 -26 10 19 -60 -43
-142 -84 -108 -24 20 -33 20 -40 2 -14 -43 -2 -55 82 -81 105 -31 119 -31 101
0 -8 14 14 -5 47 -42 37 -39 76 -64 98 -60 29 6 19 24 -54 101 l-90 93 66 13
c59 11 63 16 43 53 -17 32 -16 46 2 57 15 10 10 18 -18 25 -34 9 -42 2 -42
-36z"/>
<path d="M7100 9630 c-26 -32 -17 -37 53 -31 28 2 46 -10 51 -33 6 -30 10 -29
20 9 8 31 4 45 -16 45 -15 0 -28 9 -28 20 0 30 -52 24 -80 -10z"/>
<path d="M7787 9647 c-36 -14 -7 -87 35 -87 40 0 46 16 26 68 -13 33 -21 36
-61 19z"/>
<path d="M3468 9592 c-7 -18 -34 -32 -60 -32 -57 0 -61 -16 -13 -53 33 -26 33
-28 0 -48 -19 -12 -35 -39 -35 -60 0 -21 -9 -39 -20 -39 -11 0 -20 -13 -20
-30 0 -16 -13 -30 -29 -30 -20 0 -25 -12 -17 -33 10 -26 5 -31 -21 -21 -23 9
-33 2 -33 -24 0 -38 -59 -102 -94 -102 -12 0 -47 -13 -79 -30 -31 -16 -108
-30 -170 -30 -75 0 -120 -10 -137 -30 -22 -26 -5 -30 135 -30 202 0 277 26
370 128 41 45 98 106 125 136 28 29 50 67 50 83 0 17 29 53 65 81 56 44 59 52
25 54 -26 1 -17 8 24 20 43 13 61 28 54 47 -7 18 6 31 35 37 37 7 33 9 -16 11
-35 2 -78 8 -95 15 -19 7 -37 -1 -44 -20z"/>
<path d="M4600 9592 c0 -32 56 -83 72 -66 7 6 6 30 -2 52 -14 47 -70 58 -70
14z"/>
<path d="M4840 9601 c-23 -15 -24 -25 -6 -43 19 -19 31 -19 55 1 60 50 19 84
-49 42z"/>
<path d="M3702 9587 c-1 -13 -8 -38 -14 -56 -11 -26 -1 -30 56 -23 69 8 216
-26 216 -51 0 -11 -42 -47 -150 -127 -54 -41 5 -90 107 -90 66 0 68 -2 36 -37
-45 -49 -41 -66 12 -53 55 13 74 -1 121 -85 35 -63 35 -65 0 -66 -24 0 -13
-13 32 -37 38 -20 84 -32 103 -27 45 11 76 -72 36 -98 -20 -14 -17 -17 13 -13
29 4 42 -7 47 -40 3 -27 28 -56 60 -70 29 -13 59 -32 67 -43 8 -12 11 6 8 38
-5 43 -20 64 -59 77 -38 12 -53 31 -53 66 0 52 19 61 54 26 29 -29 237 -2 268
34 13 16 31 28 40 28 34 0 98 70 98 107 0 29 -10 35 -45 26 -25 -7 -52 -13
-60 -13 -8 0 -15 -13 -15 -30 0 -16 -9 -31 -20 -32 -42 -6 -52 -9 -125 -44
-72 -34 -77 -34 -165 6 -100 46 -125 101 -37 84 37 -7 49 -3 39 13 -8 13 -41
23 -72 23 -38 0 -66 14 -80 40 -12 22 -30 40 -41 40 -32 0 -21 -95 12 -108 17
-6 26 -20 20 -31 -22 -35 -110 69 -98 115 8 31 3 44 -20 44 -17 0 -43 17 -58
39 -15 21 -51 49 -81 63 -63 28 -61 65 3 74 46 7 58 36 19 49 -40 13 3 55 60
58 47 2 48 4 9 11 -50 10 -62 46 -15 46 17 0 30 9 30 20 0 27 -13 25 -70 -12
-55 -36 -105 -21 -70 21 15 19 13 29 -8 37 -16 7 -40 -1 -53 -17 -34 -42 -134
-37 -145 6 -5 19 -10 24 -12 12z"/>
<path d="M4933 9583 c-11 -16 -9 -35 5 -49 12 -12 22 -38 22 -58 0 -50 33 -45
46 6 6 23 21 36 33 29 11 -7 21 0 21 17 0 43 -38 60 -52 23 -18 -45 -44 -38
-52 14 -4 33 -10 38 -23 18z"/>
<path d="M5364 9520 c-1 -49 -7 -119 -15 -155 -8 -40 -6 -65 7 -65 11 0 16 18
10 40 -6 22 -2 40 8 40 25 0 30 126 8 185 -13 36 -17 27 -18 -45z"/>
<path d="M2267 9548 c-7 -17 -31 -38 -54 -47 -39 -14 -39 -16 14 -51 64 -42
64 -42 79 55 11 75 -16 105 -39 43z"/>
<path d="M3061 9541 c-62 -16 -95 -112 -38 -112 20 0 37 6 37 13 0 7 18 18 40
24 39 10 55 63 25 80 -8 4 -37 2 -64 -5z"/>
<path d="M3204 9534 c-32 -38 1 -75 62 -70 58 5 69 33 30 72 -31 31 -66 30
-92 -2z"/>
<path d="M6751 9542 c-17 -27 9 -82 39 -82 37 0 56 64 26 83 -34 21 -51 21
-65 -1z"/>
<path d="M5120 9509 c0 -17 -8 -26 -19 -20 -10 6 -24 3 -30 -7 -6 -11 -2 -25
10 -33 26 -16 103 49 87 74 -17 28 -48 19 -48 -14z"/>
<path d="M7014 9499 c-13 -50 67 -49 82 1 5 17 2 23 -6 15 -9 -8 -27 -6 -41 6
-17 14 -27 8 -35 -22z"/>
<path d="M4715 9470 c12 -61 41 -82 70 -53 16 16 12 33 -15 63 -49 54 -66 51
-55 -10z"/>
<path d="M5255 9470 c-10 -51 8 -81 32 -56 20 19 16 106 -5 106 -9 0 -22 -23
-27 -50z"/>
<path d="M6523 9473 c-30 -35 -9 -53 61 -53 51 0 55 4 36 40 -25 46 -65 52
-97 13z"/>
<path d="M7711 9447 c-10 -39 -5 -59 18 -71 20 -12 31 -46 31 -98 0 -59 7 -77
25 -66 19 10 19 8 2 -11 -28 -30 -13 -94 26 -109 49 -19 87 133 54 218 -7 18
-34 41 -61 52 -38 14 -47 30 -42 71 8 71 -36 83 -53 14z"/>
<path d="M3615 9466 c61 -8 102 -86 45 -86 -11 0 -20 -9 -20 -19 0 -11 24 -11
60 2 33 12 75 16 92 9 22 -9 29 -4 22 15 -6 16 0 39 13 53 18 20 12 22 -32 12
-32 -7 -55 -4 -55 8 0 11 -42 19 -95 17 -73 -3 -80 -5 -30 -11z"/>
<path d="M5772 9429 c-7 -27 -33 -68 -58 -89 -36 -32 -44 -55 -37 -122 5 -52
14 -73 24 -57 12 20 22 19 46 -5 22 -22 24 -37 9 -52 -24 -24 -8 -84 23 -84
11 0 14 15 7 33 -9 24 -6 29 14 17 18 -11 21 -8 11 8 -8 13 -4 37 10 53 19 24
17 29 -14 31 -21 0 -26 6 -12 11 14 6 25 25 25 44 0 19 7 24 15 13 20 -26 142
-90 172 -89 12 0 6 13 -16 30 -21 16 -29 29 -18 29 29 0 90 -70 74 -86 -7 -7
10 -21 38 -32 27 -10 70 -44 94 -76 24 -31 73 -74 108 -96 35 -22 115 -78 178
-125 62 -47 120 -85 129 -86 9 -1 52 -37 96 -80 45 -45 115 -89 160 -102 44
-12 98 -42 121 -66 22 -24 56 -49 75 -57 19 -7 34 -22 34 -33 0 -12 22 -21 49
-21 44 0 48 6 37 70 -10 60 -6 69 21 58 18 -7 33 -34 33 -61 0 -26 14 -53 30
-60 47 -18 35 -44 -15 -34 -28 6 -17 -6 30 -32 41 -23 75 -51 75 -63 0 -34
108 -132 135 -123 15 5 21 -3 14 -20 -14 -37 41 -83 81 -68 30 12 38 -12 31
-99 -2 -24 20 -77 48 -118 51 -75 90 -186 92 -260 0 -22 14 -58 30 -80 30 -39
30 -39 26 0 -7 74 3 112 24 99 12 -7 20 -41 17 -76 -14 -217 16 -246 70 -68
22 69 49 134 62 145 12 11 17 42 11 68 l-12 49 -35 -54 c-45 -68 -64 -57 -71
38 -3 55 2 71 22 64 20 -8 25 4 19 46 -7 52 -64 103 -64 58 0 -36 -44 -19 -54
21 -6 22 -19 40 -30 40 -10 0 -13 17 -6 38 6 22 -6 72 -29 115 -23 42 -41 88
-41 102 0 14 -21 25 -47 25 -121 0 -159 159 -65 278 14 19 2 16 -33 -7 -30
-19 -50 -42 -45 -51 5 -8 -4 -27 -20 -40 -17 -15 -30 -16 -30 -5 0 12 -13 26
-29 32 -20 8 -25 1 -17 -21 11 -27 6 -27 -39 2 -32 21 -56 61 -64 104 -10 55
-27 76 -72 91 -33 12 -59 33 -59 47 0 29 -43 50 -102 50 -21 0 -38 10 -38 22
0 14 -19 18 -48 10 -36 -9 -50 -2 -58 28 -8 31 -27 40 -82 40 -59 0 -72 7 -72
41 0 33 -9 39 -42 28 -37 -11 -39 -8 -20 28 39 71 11 89 -48 31 -17 -18 -38
-26 -46 -18 -8 9 -3 19 11 24 46 17 27 66 -25 66 -27 0 -53 -2 -56 -5 -4 -3
-34 18 -68 45 -33 28 -85 67 -113 88 -29 21 -53 49 -53 63 0 33 -56 53 -105
37 -36 -11 -38 -5 -25 71 10 62 7 81 -12 77 -14 -3 -38 19 -53 49 -31 63 -132
81 -121 23 7 -38 -114 -111 -156 -94 -49 18 -30 51 22 38 38 -10 50 -5 50 20
0 23 -12 30 -42 22 -37 -10 -41 -4 -34 47 11 74 -34 81 -52 8z"/>
<path d="M1613 9423 c-18 -20 -33 -52 -33 -71 0 -19 -9 -29 -20 -22 -11 7 -20
3 -20 -9 0 -11 19 -21 41 -21 23 0 37 8 31 17 -6 10 7 34 28 53 41 37 54 90
23 90 -9 0 -32 -16 -50 -37z"/>
<path d="M7187 9428 c-7 -17 2 -46 20 -64 31 -30 33 -28 33 32 0 67 -32 87
-53 32z"/>
<path d="M7340 9410 c-35 -43 -10 -103 30 -70 32 27 41 100 12 100 -9 0 -28
-13 -42 -30z"/>
<path d="M4170 9394 c-33 -11 -73 -23 -88 -27 -21 -6 -23 -14 -7 -30 16 -16
14 -31 -10 -55 -30 -29 -29 -33 1 -38 19 -4 34 -15 34 -25 0 -11 7 -19 16 -19
8 0 14 25 12 55 -5 99 110 149 172 75 14 -16 44 -30 67 -30 31 -1 36 -5 16
-18 -21 -13 -20 -19 5 -28 17 -7 37 -3 44 9 15 25 -27 56 -76 57 -18 0 -45 16
-60 36 -38 53 -59 60 -126 38z"/>
<path d="M5138 9401 c-5 -40 -9 -51 -24 -76 -10 -15 -6 -25 10 -25 44 0 83
-78 46 -93 -78 -30 -194 54 -128 94 15 9 20 23 13 31 -8 8 -31 -1 -51 -19 -51
-45 -91 -41 -114 12 -26 58 -82 69 -95 19 -9 -35 -59 -54 -170 -68 -38 -4 -30
-32 16 -57 22 -12 50 -45 60 -73 25 -65 101 -13 88 61 -6 36 2 32 54 -25 55
-60 60 -62 48 -20 l-13 48 44 -50 c29 -33 47 -42 53 -25 4 14 18 20 29 12 35
-21 216 -27 216 -6 0 10 18 37 40 59 38 38 38 44 9 89 -18 27 -35 65 -37 85
-6 39 -90 63 -94 27z"/>
<path d="M5440 9371 c0 -27 10 -55 22 -62 12 -8 18 -40 13 -71 -4 -33 1 -58
13 -58 12 0 9 -9 -8 -19 -24 -15 -25 -24 -5 -44 34 -34 32 -117 -3 -117 -40 0
-78 -55 -64 -92 12 -31 16 -31 51 1 21 19 48 29 60 22 12 -8 27 1 33 18 16 41
68 40 68 -2 0 -19 6 -28 13 -21 7 7 31 -1 54 -17 48 -33 133 -39 133 -9 0 11
-9 20 -20 20 -12 0 -29 21 -38 46 -15 38 -30 45 -102 41 l-84 -5 45 39 c24 21
53 33 64 26 11 -7 27 0 37 15 27 44 21 65 -12 38 -43 -36 -86 -11 -94 54 -3
34 -18 56 -36 56 -42 0 -60 32 -47 85 9 36 5 43 -21 33 -23 -9 -32 -1 -32 30
0 23 -9 42 -20 42 -11 0 -20 -22 -20 -49z"/>
<path d="M6313 9328 c-55 -48 -56 -51 -22 -89 44 -49 62 -49 74 0 11 39 43 44
91 13 50 -31 39 -2 -23 62 l-63 64 -57 -50z"/>
<path d="M1660 9314 c0 -44 33 -94 62 -94 32 0 31 80 -1 109 -47 42 -61 39
-61 -15z"/>
<path d="M7060 9321 c-15 -29 -15 -53 0 -81 25 -47 100 -54 100 -10 0 17 -9
30 -20 30 -11 0 -20 17 -20 39 0 56 -34 69 -60 22z"/>
<path d="M2890 9280 c-38 -13 -37 -15 10 -31 85 -28 260 -23 260 7 0 26 -50
23 -164 -8 -18 -6 -40 3 -50 18 -10 19 -30 24 -56 14z"/>
<path d="M3540 9236 l-50 -20 46 -18 c27 -10 43 -31 40 -51 -3 -18 5 -37 19
-42 16 -5 25 12 25 48 -1 85 -21 105 -80 83z"/>
<path d="M1480 9196 c0 -40 8 -52 30 -43 17 6 35 -3 42 -21 7 -17 20 -27 29
-22 29 18 43 -31 18 -61 -27 -33 -79 -6 -79 41 0 24 -59 49 -118 50 -22 0 -21
-8 5 -37 26 -29 30 -49 15 -88 -13 -35 -12 -58 4 -75 19 -19 15 -22 -19 -11
-25 7 -50 3 -57 -10 -8 -12 4 -26 28 -33 28 -7 42 -27 42 -58 0 -27 8 -48 19
-48 22 0 101 107 101 138 0 12 9 22 20 22 11 0 20 -13 20 -30 0 -17 18 -30 40
-30 42 0 55 48 20 70 -12 7 -14 23 -6 36 35 56 -42 243 -92 224 -16 -6 -36 0
-45 14 -11 17 -16 7 -17 -28z"/>
<path d="M1900 9189 c0 -35 -97 -127 -135 -128 -35 -1 -31 -61 4 -61 16 0 38
-16 50 -35 27 -46 66 4 52 67 -7 29 8 58 49 95 70 62 76 93 20 93 -23 0 -40
-13 -40 -31z"/>
<path d="M6780 9187 c0 -17 23 -27 60 -27 33 0 60 8 60 18 0 9 -27 21 -60 26
-41 6 -60 1 -60 -17z"/>
<path d="M1740 9138 c0 -41 7 -59 18 -47 30 31 34 94 7 104 -17 5 -25 -13 -25
-57z"/>
<path d="M4304 9176 c-37 -37 -29 -50 32 -48 38 1 57 13 59 37 3 40 -55 47
-91 11z"/>
<path d="M7240 9178 c-21 -15 -23 -24 -6 -31 13 -5 19 -22 13 -38 -11 -29 36
-89 70 -89 11 0 26 18 33 40 7 22 30 40 51 40 40 0 53 29 21 49 -30 18 -82
-11 -84 -46 -1 -21 -5 -24 -11 -8 -6 14 -19 20 -30 13 -11 -7 -13 9 -6 40 14
55 -2 65 -51 30z"/>
<path d="M3852 9108 c-20 -52 -14 -68 26 -68 36 0 70 65 46 89 -21 22 -60 11
-72 -21z"/>
<path d="M6524 9103 c-34 -22 -8 -83 33 -77 64 10 87 35 62 66 -27 32 -57 35
-95 11z"/>
<path d="M6874 9073 c-13 -34 15 -62 79 -81 24 -8 48 -27 55 -43 11 -29 94
-41 118 -16 24 23 -45 126 -76 114 -17 -6 -30 -22 -30 -34 0 -13 -12 0 -26 27
-28 57 -103 77 -120 33z"/>
<path d="M3592 9045 c-22 -22 -12 -65 16 -65 38 0 56 54 23 67 -15 6 -32 5
-39 -2z"/>
<path d="M3723 9033 c-25 -29 -11 -53 30 -53 15 0 27 18 27 40 0 46 -25 52
-57 13z"/>
<path d="M2512 8951 c-40 -23 -72 -52 -72 -66 0 -29 -72 -34 -89 -6 -6 10 -2
24 11 32 16 10 14 19 -5 31 -41 26 -51 23 -117 -42 -34 -34 -71 -56 -81 -49
-11 6 -19 2 -19 -10 0 -11 35 -21 79 -21 43 0 84 -9 91 -20 12 -19 -14 -28
-65 -21 -14 1 -25 -15 -25 -36 0 -43 62 -40 120 7 47 37 166 80 205 73 19 -3
35 5 35 18 0 13 -13 18 -29 12 -37 -14 -55 13 -39 55 7 19 36 32 70 32 32 0
58 8 58 19 0 10 16 22 35 28 19 5 6 8 -29 7 -35 -1 -95 -21 -134 -43z"/>
<path d="M7958 8995 c-1 -3 -5 -23 -9 -45 -4 -22 -13 -63 -20 -91 -10 -41 -4
-51 29 -53 23 -2 40 3 39 10 -8 55 7 144 23 144 11 0 15 -29 9 -70 -7 -43 -3
-70 10 -70 11 0 21 -15 21 -34 0 -25 6 -28 23 -11 13 13 17 50 9 93 -8 40 -13
77 -11 85 5 27 -114 68 -123 42z"/>
<path d="M7239 8898 c-50 -70 -36 -97 53 -104 52 -4 59 3 64 61 5 52 -1 65
-30 65 -30 1 -31 4 -6 20 26 17 25 19 -4 20 -18 0 -53 -28 -77 -62z"/>
<path d="M3940 8911 c0 -17 11 -31 25 -31 14 0 48 -6 75 -13 45 -11 47 -9 20
18 -47 48 -120 64 -120 26z"/>
<path d="M3649 8899 c-6 -10 -2 -19 10 -19 29 0 26 -54 -4 -68 -20 -10 -20
-14 0 -24 14 -6 20 -21 13 -32 -9 -13 -18 -12 -28 4 -9 14 -26 19 -38 11 -43
-26 -21 -51 45 -51 103 0 143 151 49 186 -19 7 -40 4 -47 -7z"/>
<path d="M5480 8810 c-26 -27 -41 -51 -33 -52 109 -15 143 -4 149 48 9 71 -51
73 -116 4z"/>
<path d="M5760 8820 c0 -11 7 -20 15 -20 8 0 41 -23 73 -50 62 -53 121 -67
107 -25 -4 14 -28 28 -52 31 -23 4 -43 14 -43 22 0 9 -22 26 -50 38 -30 14
-50 15 -50 4z"/>
<path d="M5208 8788 c-8 -21 -19 -46 -24 -56 -6 -10 0 -12 13 -4 15 10 23 -4
23 -39 0 -50 92 -63 136 -20 22 23 -20 111 -52 111 -20 0 -47 11 -59 23 -18
18 -27 15 -37 -15z"/>
<path d="M4100 8764 c0 -4 13 -20 29 -35 33 -33 71 -38 71 -9 0 11 18 20 40
20 22 0 40 8 40 17 0 16 -180 22 -180 7z"/>
<path d="M8160 8750 c0 -16 0 -37 0 -45 0 -8 18 -16 40 -17 46 -3 47 1 19 53
-24 46 -59 51 -59 9z"/>
<path d="M3960 8722 c0 -36 52 -62 76 -38 37 37 28 56 -26 56 -27 0 -50 -8
-50 -18z"/>
<path d="M2132 8662 c-22 -24 -27 -43 -14 -51 11 -7 15 -25 9 -42 -14 -35 1
-37 53 -4 33 20 45 18 74 -10 21 -22 25 -35 10 -35 -30 0 -32 -53 -3 -71 25
-15 40 -4 46 34 2 15 11 39 20 53 25 40 -26 88 -79 75 -25 -6 -52 -1 -60 12
-10 16 -4 20 19 11 21 -8 33 -3 33 14 0 15 -14 33 -32 40 -41 16 -37 17 -76
-26z"/>
<path d="M4545 8684 c-69 -7 -86 -37 -34 -57 17 -7 26 -25 20 -41 -7 -18 -2
-23 14 -13 41 25 103 24 146 -3 81 -51 201 22 156 94 -14 23 -93 -2 -113 -37
-21 -36 -76 -35 -62 1 15 38 -46 65 -127 56z"/>
<path d="M2400 8642 c0 -25 13 -42 31 -42 19 0 29 14 25 33 -9 51 -56 57 -56
9z"/>
<path d="M8005 8615 c-42 -84 -48 -136 -25 -205 36 -108 60 -64 55 101 -3 82
-6 149 -7 149 -1 0 -11 -20 -23 -45z"/>
<path d="M8232 8602 c-41 -64 -37 -538 4 -560 21 -11 43 -17 48 -12 4 5 8 -26
7 -69 0 -43 -8 -84 -16 -93 -25 -25 -17 -48 17 -48 19 0 28 11 22 28 -7 17 4
32 27 38 32 9 35 4 18 -28 -22 -41 -11 -78 23 -78 11 0 15 8 9 18 -6 9 3 28
19 42 24 20 25 32 3 77 -14 29 -22 69 -18 88 5 22 -4 35 -24 35 -18 0 -31 17
-31 40 0 22 10 40 22 40 14 0 18 19 10 50 -14 56 19 138 49 119 10 -6 19 -3
19 8 0 10 -13 24 -28 29 -18 7 -33 61 -42 153 -15 148 -38 171 -83 81 l-24
-46 -6 58 c-5 43 -12 51 -25 30z"/>
<path d="M7333 8545 c-7 -12 -5 -28 6 -34 10 -7 14 -25 9 -40 -6 -16 7 -38 30
-50 38 -20 42 -17 42 38 0 39 -10 61 -28 61 -16 0 -32 11 -37 24 -6 18 -11 18
-22 1z"/>
<path d="M5245 8450 c-35 -39 -31 -50 16 -50 22 0 46 14 52 31 7 17 25 27 40
21 15 -6 27 -2 27 9 0 29 -107 21 -135 -11z"/>
<path d="M969 8387 c8 -31 2 -42 -22 -40 -56 5 -53 -45 4 -71 49 -22 57 -20
93 31 38 51 42 52 66 19 25 -34 28 -34 65 -1 21 19 58 35 82 35 54 0 57 53 3
70 -101 32 -302 2 -291 -43z"/>
<path d="M7817 8403 c-15 -24 -39 -43 -54 -43 -27 0 -20 -209 7 -237 30 -29
53 111 27 162 -15 28 -7 40 32 58 56 26 59 33 33 75 -15 22 -23 20 -45 -15z"/>
<path d="M1870 8320 c-46 -51 -31 -67 37 -41 35 13 48 30 40 50 -15 41 -34 39
-77 -9z"/>
<path d="M7568 8297 c-15 -24 -10 -28 49 -46 38 -12 45 -8 40 20 -8 39 -70 57
-89 26z"/>
<path d="M7965 8306 c-33 -12 -32 -49 2 -96 26 -35 28 -35 25 11 -2 27 5 55
15 62 23 16 -10 34 -42 23z"/>
<path d="M571 8201 c-18 -28 28 -47 57 -23 14 12 32 16 39 8 7 -7 13 -2 13 11
0 27 -93 31 -109 4z"/>
<path d="M1145 8101 c-37 -47 -40 -59 -15 -68 38 -15 90 5 91 34 0 13 13 6 28
-14 16 -20 39 -31 51 -23 16 10 13 25 -11 51 -18 20 -27 46 -20 58 7 11 4 21
-8 21 -11 0 -21 -9 -21 -20 0 -11 -10 -20 -21 -20 -12 0 -16 9 -9 20 27 44
-23 14 -65 -39z"/>
<path d="M501 8103 c-48 -14 -47 -16 29 -52 48 -22 81 -29 85 -16 4 11 24 16
46 11 27 -7 39 -1 39 22 0 17 -16 32 -35 32 -19 0 -53 4 -75 9 -22 4 -62 2
-89 -6z"/>
<path d="M1700 8042 c0 -50 26 -85 42 -59 27 42 21 77 -12 77 -16 0 -30 -8
-30 -18z"/>
<path d="M4835 8028 c-8 -7 -57 -16 -109 -19 -53 -3 -102 -6 -109 -7 -13 -2
-39 -82 -27 -82 4 0 20 13 37 30 23 23 42 25 90 8 69 -24 164 9 178 62 7 24 4
25 -11 3 -14 -20 -21 -21 -27 -4 -4 13 -14 17 -22 9z"/>
<path d="M780 8007 c0 -2 13 -17 28 -32 18 -19 22 -38 10 -57 -14 -23 -17 -21
-18 7 0 19 -5 35 -11 35 -54 0 -117 -128 -89 -180 14 -26 13 -40 -5 -47 -20
-8 -20 -10 0 -11 32 -2 33 -106 1 -138 -17 -17 -17 -24 -1 -24 12 0 28 18 35
40 11 34 55 51 113 43 42 -6 30 61 -13 77 -62 24 -64 53 -5 71 25 8 71 33 103
55 l58 41 -45 36 c-25 21 -38 37 -29 37 9 0 5 11 -7 23 -19 19 -125 39 -125
24z"/>
<path d="M7880 8002 c0 -12 11 -22 25 -22 18 0 23 -27 18 -87 -4 -60 2 -91 20
-98 20 -7 28 17 29 98 2 59 -4 107 -13 107 -9 0 -30 5 -47 12 -18 7 -32 2 -32
-10z"/>
<path d="M1440 7940 c0 -12 -21 -15 -50 -8 -33 8 -50 4 -50 -12 0 -13 -13 -19
-29 -13 -17 6 -35 3 -42 -8 -6 -10 3 -19 20 -19 18 0 31 -17 31 -41 0 -23 -8
-36 -18 -30 -10 6 -23 -12 -30 -39 -7 -28 -22 -50 -32 -50 -42 0 -22 -157 21
-170 53 -17 43 -78 -14 -86 -23 -3 -56 8 -73 25 -29 28 -31 28 -29 -7 2 -22
11 -34 21 -28 21 13 2 -59 -38 -142 -48 -99 -38 -145 31 -140 77 5 93 -18 110
-157 11 -92 8 -115 -14 -115 -20 0 -25 18 -19 60 5 33 -1 60 -12 60 -30 0 -44
-53 -32 -117 9 -41 3 -61 -20 -69 -18 -7 -32 -31 -32 -53 0 -27 -9 -36 -30
-28 -36 14 -37 7 -8 -67 29 -71 42 -204 23 -233 -23 -38 -24 -81 -2 -95 36
-22 31 -146 -6 -153 -26 -6 -32 6 -29 55 3 34 -7 68 -20 76 -14 8 -25 21 -25
29 0 9 -6 43 -13 75 -13 57 -29 69 -85 61 -14 -1 -26 4 -26 13 -1 9 -5 55 -10
102 -8 73 -4 85 26 80 26 -5 35 8 35 50 0 64 46 102 84 71 14 -12 40 -16 57
-10 47 19 30 286 -18 277 -23 -4 -33 8 -33 43 0 37 -15 54 -60 70 -60 21 -65
33 -65 163 0 28 -17 71 -37 97 -21 26 -32 57 -25 68 8 13 3 15 -10 7 -13 -8
-19 -23 -12 -33 6 -10 -3 -13 -20 -7 -17 7 -31 2 -31 -10 0 -12 7 -22 15 -22
36 0 68 -83 44 -112 -55 -66 -105 -34 -94 59 8 77 5 87 -26 79 -44 -12 -60
-69 -33 -117 14 -26 14 -39 -3 -45 -37 -12 -28 -33 48 -111 l71 -73 50 55 c28
30 49 45 47 35 -9 -48 5 -72 52 -90 53 -20 69 -169 19 -171 -57 -1 -100 -48
-45 -48 37 -1 55 -12 55 -33 0 -22 -11 -28 -33 -20 -40 16 -88 -22 -74 -57 5
-15 0 -33 -12 -40 -11 -7 -21 -1 -21 15 0 39 -73 101 -100 84 -14 -9 -13 2 3
28 15 23 37 42 50 42 12 0 47 13 76 28 53 27 52 28 -33 22 -47 -4 -99 -10
-116 -16 -35 -10 -330 -65 -456 -85 -122 -18 -98 -60 31 -54 115 7 168 -58 78
-96 -30 -13 -19 -14 37 -4 152 27 314 18 338 -20 22 -36 -90 -178 -137 -173
-49 6 -71 -4 -71 -31 0 -16 -15 -37 -33 -47 -18 -10 -26 -29 -19 -41 22 -35
87 -27 126 15 29 31 42 34 66 15 35 -27 86 -133 72 -148 -6 -6 3 -36 20 -68
16 -32 28 -92 26 -133 -2 -40 11 -101 29 -134 18 -33 33 -98 33 -145 0 -47 9
-85 20 -85 26 0 100 -156 100 -212 0 -24 13 -49 29 -55 16 -6 35 -42 42 -80 7
-39 41 -113 76 -166 182 -277 182 -287 16 -287 -203 0 -294 -122 -325 -436
-10 -107 -23 -212 -28 -234 -10 -38 20 -214 81 -486 74 -332 462 -875 694
-971 41 -17 75 -41 75 -52 0 -39 185 -141 254 -141 77 0 79 6 28 78 -21 29
-45 89 -53 133 -9 43 -27 108 -42 143 -15 36 -32 99 -39 140 -7 42 -20 91 -30
110 -10 18 -18 52 -18 75 0 23 -46 179 -102 347 -56 167 -114 345 -127 394
-90 322 -110 403 -131 516 -12 70 -25 209 -29 310 -4 101 -17 265 -29 364 -47
406 -36 1609 15 1626 12 4 23 38 23 74 0 37 9 73 20 80 11 7 20 39 20 72 0 33
-8 55 -18 49 -30 -18 -36 189 -6 214 21 18 21 24 0 38 -15 9 -17 17 -4 17 12
0 21 14 21 30 0 17 -7 30 -16 30 -9 0 -17 18 -17 40 0 22 9 40 20 40 11 0 20
10 20 23 0 12 16 35 35 49 20 16 25 27 11 27 -14 1 -20 15 -13 31 6 17 -1 46
-16 64 -19 23 -19 29 -2 19 16 -10 25 -3 25 22 0 21 12 54 28 75 21 29 22 47
5 74 -25 39 -53 48 -53 16z m-40 -142 c0 -48 -47 -42 -56 9 -4 19 6 33 25 33
18 0 31 -17 31 -42z m-160 -479 c0 -12 9 -16 20 -9 11 7 20 -1 20 -17 0 -32
-58 -34 -93 -3 -17 15 -17 24 0 35 33 21 53 18 53 -6z m-560 -479 c0 -11 -31
-20 -69 -20 -38 0 -74 9 -81 20 -7 12 20 20 69 20 44 0 81 -9 81 -20z m588
-2065 c6 -36 13 -144 14 -240 1 -96 10 -175 20 -175 10 0 18 -27 18 -61 0 -33
18 -96 40 -139 22 -43 40 -93 40 -110 0 -18 15 -61 33 -96 18 -35 32 -90 31
-123 -2 -63 53 -175 78 -160 23 14 32 -11 48 -126 11 -82 8 -107 -15 -116 -32
-12 -175 104 -175 143 0 14 -10 28 -23 32 -16 6 -13 26 9 67 18 32 33 46 33
30 1 -20 7 -23 22 -8 12 12 15 45 7 77 -13 54 -15 54 -42 18 -23 -32 -30 -33
-46 -8 -19 30 -66 -52 -47 -84 4 -8 -10 -24 -32 -36 -54 -29 -52 -86 4 -110
43 -19 49 -42 32 -109 -4 -18 18 -37 60 -52 36 -12 74 -34 83 -48 9 -16 34
-22 63 -14 71 17 137 -6 137 -48 0 -20 9 -42 20 -49 31 -19 24 -70 -10 -70
-18 0 -30 -19 -31 -45 0 -52 -90 -163 -117 -146 -11 7 -9 35 3 69 32 83 -12
138 -169 217 -125 63 -131 70 -190 210 -106 248 -118 345 -85 695 31 338 32
350 60 432 31 95 -39 167 -146 150 -8 -1 -15 6 -15 16 0 22 156 62 190 49 14
-5 32 0 39 12 24 38 46 22 59 -44z m472 -1896 l0 -61 -42 40 c-44 40 -37 82
13 82 19 0 29 -21 29 -61z"/>
<path d="M6522 7882 c-82 -11 -144 -62 -76 -62 35 0 174 56 174 70 0 6 -2 9
-5 7 -3 -2 -45 -8 -93 -15z"/>
<path d="M8045 7779 c-8 -33 -21 -39 -58 -30 -38 9 -47 4 -47 -29 0 -22 9 -40
20 -40 11 0 20 9 20 20 0 11 14 20 30 20 19 0 30 -19 30 -50 0 -27 8 -50 18
-50 30 0 58 107 40 155 -21 56 -39 57 -53 4z"/>
<path d="M6145 7765 c-14 -5 -20 -17 -14 -27 6 -10 -9 -18 -35 -19 -61 -1
-142 -70 -147 -125 -4 -46 -8 -47 -89 -25 -35 9 -41 8 -22 -5 20 -14 -2 -26
-80 -42 -58 -13 -122 -38 -142 -56 -20 -18 -63 -31 -96 -30 -33 1 -60 -8 -60
-19 0 -12 14 -16 31 -9 17 6 35 -1 41 -17 8 -21 26 -23 72 -10 34 10 69 13 79
7 9 -6 17 -1 17 11 0 11 20 18 45 14 25 -4 64 5 88 21 37 24 47 23 73 -3 40
-40 89 -43 56 -3 -37 44 34 59 95 20 39 -26 92 -33 229 -31 99 2 189 -5 202
-15 12 -10 85 -23 162 -28 77 -6 181 -15 230 -21 50 -6 77 -6 60 0 -61 25 -81
51 -59 78 14 18 15 29 0 38 -12 8 -21 2 -21 -13 0 -33 -191 -33 -254 1 -24 12
-57 23 -73 23 -74 0 -146 43 -103 62 28 12 4 17 -80 16 -153 -2 -174 3 -100
22 132 34 384 20 360 -20 -15 -25 34 -54 115 -66 94 -14 100 17 6 35 -118 22
-102 51 28 51 93 0 182 34 106 41 -8 1 -69 5 -135 10 -66 4 -196 14 -290 21
-93 7 -212 14 -263 16 -126 3 -142 26 -29 43 51 7 92 20 92 29 0 20 -62 36
-95 25z m5 -164 c0 -15 -13 -32 -28 -37 -17 -6 -22 0 -14 13 8 14 1 23 -17 23
-17 0 -31 -9 -31 -19 0 -11 -15 -14 -32 -7 -27 10 -25 16 15 39 57 32 107 27
107 -12z m32 -89 c-13 -15 -41 -23 -63 -18 -53 14 -29 46 35 46 41 0 47 -5 28
-28z m298 -49 c0 -7 -45 -10 -100 -6 -55 4 -96 13 -92 20 11 17 192 4 192 -14z"/>
<path d="M5735 7718 c-22 -23 -62 -38 -105 -38 -71 0 -179 -70 -158 -103 15
-24 88 -21 88 3 0 11 44 20 97 20 112 0 136 15 88 54 -32 26 -31 27 11 15 61
-17 137 3 151 40 7 19 1 25 -18 18 -16 -6 -29 -1 -29 11 0 36 -87 22 -125 -20z"/>
<path d="M20 7641 c0 -10 10 -25 22 -32 12 -7 17 -30 12 -51 -6 -21 -3 -42 5
-47 29 -18 41 -158 16 -174 -56 -34 65 -117 171 -117 189 0 311 -61 255 -128
-26 -32 4 -64 39 -42 11 7 40 -2 64 -19 115 -80 171 5 82 124 -31 41 -65 81
-76 89 -12 9 -4 26 19 43 37 27 35 29 -30 42 -120 24 -137 32 -127 60 15 39
-25 56 -72 31 -49 -26 -225 12 -181 40 20 12 18 18 -11 26 -21 5 -5 10 35 12
90 3 277 -39 277 -61 0 -26 76 -20 92 6 10 16 4 20 -18 11 -18 -7 -38 -4 -45
7 -6 11 9 28 35 38 l46 18 -50 4 -50 3 50 15 c66 19 -110 61 -192 46 l-53 -11
44 -24 c41 -21 36 -24 -47 -25 -63 -1 -92 7 -92 25 0 16 15 22 40 16 99 -26
27 15 -93 52 -151 47 -167 50 -167 23z"/>
<path d="M6941 7586 c-27 -30 -26 -32 5 -20 50 19 119 -26 91 -60 -17 -20 -13
-26 16 -26 72 1 129 25 119 51 -6 17 12 31 49 39 99 22 49 44 -105 47 -114 2
-152 -5 -175 -31z"/>
<path d="M2453 7556 c13 -23 162 -20 176 3 8 12 -28 18 -87 16 -55 -2 -95 -10
-89 -19z"/>
<path d="M2790 7540 c33 -8 47 -16 30 -18 -16 -1 -55 -15 -85 -31 -36 -19 -94
-26 -163 -21 -102 7 -107 6 -107 -41 0 -46 6 -49 103 -46 86 3 90 5 27 12 -41
4 -75 17 -75 29 0 13 24 16 65 7 124 -27 229 -34 185 -12 -28 14 -2 16 90 8
72 -7 135 -18 140 -25 6 -7 44 -28 85 -47 139 -64 38 -108 -119 -51 -51 19
-71 19 -90 0 -19 -19 -13 -24 26 -24 57 0 135 -49 114 -71 -13 -13 -177 22
-222 46 -9 5 0 21 20 36 63 48 -290 39 -398 -9 -48 -21 -131 -46 -186 -56 -55
-9 -98 -27 -96 -38 2 -13 -16 -18 -43 -13 -54 10 -89 -31 -49 -59 20 -14 14
-17 -24 -11 -39 6 -52 0 -50 -23 2 -25 -15 -31 -78 -27 -83 6 -190 -27 -190
-57 0 -10 9 -18 20 -18 11 0 20 8 20 17 0 9 47 9 105 0 79 -13 122 -10 175 13
39 16 97 39 129 51 43 15 52 26 33 38 -69 42 165 60 433 32 120 -12 165 -11
165 6 0 13 -16 24 -35 24 -28 1 -26 6 10 23 33 16 66 16 122 -1 109 -32 138
-29 153 18 12 36 29 41 117 39 157 -5 156 -5 149 55 -4 40 -19 57 -53 62 -35
5 -44 16 -37 44 8 31 3 35 -23 21 -46 -25 -240 36 -254 80 -11 37 -70 59 -149
55 -46 -2 -45 -3 10 -17z m-102 -340 c38 -38 -8 -45 -128 -18 -83 18 -110 31
-86 40 48 17 189 3 214 -22z"/>
<path d="M1013 7507 c-23 -24 -14 -67 15 -67 23 0 52 40 52 72 0 13 -52 9 -67
-5z"/>
<path d="M7230 7467 c48 -34 136 -36 125 -2 -5 14 -43 26 -85 27 -70 3 -74 0
-40 -25z"/>
<path d="M2208 7386 c43 -7 52 -14 31 -27 -48 -29 -8 -40 63 -16 110 37 104
48 -28 50 -68 1 -98 -2 -66 -7z"/>
<path d="M3432 7371 c18 -47 107 -98 117 -67 21 70 -10 130 -37 71 -10 -20
-14 -20 -24 0 -16 35 -69 32 -56 -4z"/>
<path d="M794 7072 c-19 -47 -19 -46 21 -56 19 -5 62 2 95 16 l60 26 -73 1
c-41 1 -77 12 -82 25 -5 15 -13 10 -21 -12z"/>
<path d="M5489 7080 c-77 -10 -81 -13 -81 -82 l0 -72 61 32 c34 18 64 39 68
48 4 9 18 6 32 -5 18 -15 31 -14 46 4 36 45 -34 87 -126 75z"/>
<path d="M3609 6966 c6 -13 -7 -29 -29 -36 -22 -7 -36 -20 -30 -30 6 -9 -1
-21 -15 -27 -19 -8 -19 -10 1 -11 15 -1 21 -10 15 -20 -6 -9 13 -22 41 -27 36
-7 45 -4 30 11 -26 26 -29 61 -4 45 33 -20 40 44 9 82 -16 20 -25 26 -18 13z"/>
<path d="M2090 6943 c61 -26 218 -43 196 -21 -11 11 -68 24 -128 29 -71 7 -94
4 -68 -8z"/>
<path d="M1820 6880 c-69 -10 -68 -11 45 -38 63 -16 121 -22 128 -15 18 17 6
28 -43 36 -22 4 -44 12 -50 17 -5 6 -41 6 -80 0z"/>
<path d="M5193 6887 c-7 -8 -13 -39 -13 -69 0 -36 -12 -58 -35 -64 -26 -7 -23
-10 11 -12 81 -4 128 33 100 77 -13 21 -31 34 -40 29 -9 -6 -16 -2 -16 9 0 11
11 24 25 30 14 5 15 11 3 11 -12 1 -27 -4 -35 -11z"/>
<path d="M3556 6789 c-35 -34 12 -61 100 -57 143 6 144 6 144 40 0 24 -7 27
-25 13 -26 -21 -71 -20 -156 3 -27 8 -56 8 -63 1z"/>
<path d="M6330 6700 c-8 -12 26 -20 88 -20 55 0 105 9 112 20 8 12 -26 20 -88
20 -55 0 -105 -9 -112 -20z"/>
<path d="M3763 6644 c-57 -69 -13 -115 115 -121 86 -3 103 18 50 61 -17 14
-52 46 -77 70 l-44 45 -44 -55z"/>
<path d="M4048 6555 c-37 -44 -37 -44 1 -15 35 27 37 27 26 -4 -7 -19 -4 -40
7 -47 13 -8 12 -22 -3 -40 -23 -28 -10 -69 22 -69 11 0 19 17 19 38 0 21 10
42 22 46 15 5 9 30 -17 72 l-39 64 -38 -45z"/>
<path d="M6070 6521 c-229 -30 -347 -58 -392 -95 -221 -175 -216 -263 17 -316
156 -36 253 -18 115 21 -114 32 -125 157 -19 206 70 32 81 20 97 -92 23 -165
43 -176 312 -185 248 -9 509 62 565 151 9 16 62 22 160 16 417 -23 385 -25
419 33 35 62 -4 107 -78 87 -22 -5 -50 4 -65 22 -14 17 -43 31 -65 31 -21 0
-54 8 -73 18 -19 11 -75 25 -124 32 -49 7 -143 26 -209 42 -147 35 -498 50
-660 29z m148 -132 c44 -16 -45 -89 -107 -89 -33 0 -51 -11 -51 -31 0 -53 -90
-28 -92 26 -2 25 3 46 10 47 57 7 92 18 97 32 6 19 102 29 143 15z m386 -23
c115 -35 148 -75 81 -100 -36 -14 -147 -86 -165 -108 -63 -76 -97 -56 -97 56
0 191 13 201 181 152z m-249 -101 c5 -15 -9 -25 -33 -25 -25 0 -42 13 -42 31
0 37 62 32 75 -6z"/>
<path d="M7468 6451 c-19 -49 13 -78 42 -37 15 19 22 42 17 51 -15 25 -47 17
-59 -14z"/>
<path d="M3291 6244 c-6 -6 -113 -18 -236 -27 -244 -18 -424 -69 -568 -162
-46 -29 -107 -59 -136 -66 -28 -8 -56 -21 -62 -31 -6 -10 -38 -18 -71 -18 -34
0 -64 -13 -71 -30 -6 -16 -28 -30 -49 -30 -21 0 -38 -13 -38 -30 0 -20 -20
-30 -60 -30 -51 0 -60 -8 -60 -50 0 -59 58 -67 152 -22 128 63 351 78 459 31
174 -74 436 -69 700 13 106 32 148 127 89 198 -22 27 5 130 35 130 55 -1 148
-120 117 -151 -113 -113 -86 -127 118 -58 55 18 111 36 125 40 69 21 -43 189
-127 189 -15 0 -28 9 -28 19 0 11 -38 29 -85 41 -47 12 -109 30 -139 39 -29 9
-59 12 -65 5z m-115 -168 c8 -40 -87 -93 -146 -81 -33 6 -35 3 -10 -14 26 -17
25 -20 -6 -21 -27 0 -33 -10 -25 -38 13 -39 -20 -77 -45 -53 -7 7 -1 20 13 29
20 12 15 19 -16 28 -49 12 -47 58 4 78 19 8 30 26 24 41 -6 17 14 35 56 48 89
30 143 24 151 -17z m-411 -49 c-34 -14 -32 -47 3 -47 16 0 40 -34 53 -75 13
-41 32 -84 41 -94 63 -67 -51 -68 -150 -1 -40 27 -101 64 -136 82 l-62 32 86
54 c48 30 110 55 138 56 29 2 41 -2 27 -7z"/>
<path d="M1854 6125 c-24 -41 -2 -135 33 -142 30 -5 33 0 17 29 -12 22 -13 54
-2 82 16 44 -25 71 -48 31z"/>
<path d="M2074 6107 c-31 -31 -13 -70 31 -63 25 3 45 19 45 36 0 32 -53 51
-76 27z"/>
<path d="M1687 6045 c9 -14 7 -25 -3 -25 -11 0 -12 -34 -4 -82 9 -45 11 -115
6 -155 -6 -40 -11 -106 -13 -146 -1 -41 -8 -70 -15 -66 -8 5 -20 -12 -27 -36
-13 -44 -14 -44 -31 -5 -14 33 -18 28 -20 -30 -2 -59 -6 -63 -21 -30 -12 29
-17 7 -15 -75 3 -125 24 -151 43 -55 8 40 29 67 62 80 34 12 46 29 38 49 -9
24 3 31 51 31 65 0 84 27 32 47 -36 14 -40 95 -6 129 13 13 15 24 5 24 -11 0
-16 60 -12 140 4 95 -1 140 -17 140 -12 0 -17 8 -11 18 6 9 -5 30 -23 45 -23
18 -29 19 -19 2z"/>
<path d="M6846 6027 c-47 -16 -83 -41 -80 -53 2 -14 -27 -27 -71 -30 -42 -4
-72 -13 -67 -21 21 -34 -344 -23 -548 16 -241 47 -260 48 -260 21 0 -20 69
-54 138 -68 17 -3 46 -12 62 -19 180 -75 706 -105 767 -43 17 17 49 30 72 30
34 0 40 9 30 48 -10 39 -2 53 44 75 116 56 45 92 -87 44z"/>
<path d="M4078 6015 c-13 -45 -9 -77 13 -96 34 -28 76 -5 61 33 -7 17 3 29 24
29 28 2 27 5 -6 19 -39 17 -88 25 -92 15z"/>
<path d="M3387 5710 c-7 -19 -37 -30 -80 -30 -37 0 -100 -13 -138 -29 -74 -31
-280 -77 -329 -73 -16 1 -142 5 -279 9 -161 5 -252 16 -257 31 -4 12 -15 22
-25 22 -36 0 27 -97 69 -106 90 -20 276 -15 304 7 15 13 28 17 28 9 0 -9 -16
-27 -35 -41 -19 -14 -27 -33 -18 -42 26 -27 269 -19 296 8 14 14 44 25 67 25
23 0 91 23 150 52 69 33 126 48 161 41 60 -12 101 17 85 61 -7 18 5 33 31 40
49 12 58 46 12 46 -16 0 -35 -13 -42 -30z"/>
<path d="M6180 5409 c0 -6 14 -25 30 -42 18 -18 30 -21 30 -7 0 12 10 16 21 9
12 -7 17 -26 11 -41 -7 -19 4 -28 32 -28 23 0 37 6 30 13 -8 7 -4 25 7 38 12
14 14 30 5 35 -29 16 -166 36 -166 23z"/>
<path d="M1582 5156 c-1 -62 -11 -119 -22 -126 -11 -7 -15 -62 -10 -126 11
-125 43 -310 47 -268 2 15 12 21 23 14 11 -7 20 -3 20 9 0 11 -9 21 -20 21
-11 0 -20 23 -20 51 0 43 7 50 42 38 35 -11 39 -8 22 24 -11 20 -21 46 -22 57
-1 11 -13 20 -27 20 -35 0 -55 145 -24 171 18 15 28 13 35 -5 6 -14 13 -3 15
24 2 28 6 70 9 95 3 26 -6 45 -21 45 -14 0 -30 16 -35 35 -5 19 -10 -16 -12
-79z"/>
<path d="M5494 5158 c-20 -74 23 -156 56 -111 17 23 37 31 53 21 13 -8 5 13
-20 48 -60 84 -76 92 -89 42z"/>
<path d="M3880 5162 c0 -25 54 -43 90 -29 51 19 33 47 -30 47 -33 0 -60 -8
-60 -18z"/>
<path d="M2840 4945 c0 -72 -5 -82 -40 -75 -22 4 -40 1 -40 -7 0 -28 48 -63
87 -63 22 0 34 6 27 12 -7 7 1 26 18 42 32 33 22 97 -24 145 -24 26 -28 18
-28 -54z"/>
<path d="M5593 4955 c5 -36 21 -74 35 -85 14 -11 22 -31 17 -45 -5 -14 6 -25
23 -25 21 0 32 -18 32 -50 0 -54 21 -62 81 -29 50 26 49 69 -1 124 -30 32 -34
46 -15 58 23 15 7 25 -30 19 -8 -1 -15 9 -15 21 0 13 -6 18 -13 11 -18 -19
-90 25 -76 47 6 10 -2 19 -18 19 -22 0 -27 -17 -20 -65z"/>
<path d="M7946 4950 c-1 -42 7 -70 22 -70 16 0 21 24 16 70 -5 39 -15 70 -22
70 -8 0 -15 -31 -16 -70z"/>
<path d="M3804 4699 c-3 -35 -23 -90 -46 -122 -46 -64 -45 -164 2 -172 76 -13
144 241 84 315 l-35 44 -5 -65z"/>
<path d="M1669 4613 c6 -20 11 -54 11 -75 0 -46 51 -50 93 -8 16 17 22 30 12
30 -9 0 -28 -11 -42 -25 -20 -20 -23 -17 -11 15 8 22 7 33 -3 24 -9 -8 -29 5
-44 30 -18 30 -24 33 -16 9z"/>
<path d="M4909 4623 c-27 -27 0 -43 71 -43 59 0 80 8 80 31 0 28 -124 38 -151
12z"/>
<path d="M5850 4603 c-17 -17 13 -43 48 -43 19 0 35 13 35 29 0 25 -62 36 -83
14z"/>
<path d="M3260 4358 c0 -15 -6 -48 -13 -73 -10 -38 -4 -45 36 -45 61 0 70 62
16 111 -30 27 -39 29 -39 7z"/>
<path d="M1698 4318 c-3 -30 -2 -34 24 -128 14 -50 15 -44 10 35 -6 91 -29
154 -34 93z"/>
<path d="M4880 4300 c0 -12 -7 -18 -15 -14 -45 27 -111 -27 -78 -63 18 -20 33
-47 33 -60 0 -12 14 -23 30 -23 17 0 30 14 30 30 0 17 9 30 20 30 11 0 20 14
20 30 0 17 15 30 33 30 31 0 21 30 -10 30 -7 0 -24 8 -38 16 -15 10 -25 7 -25
-6z"/>
<path d="M5225 4306 c-25 -5 -45 -17 -45 -27 0 -11 -12 -19 -28 -19 -28 0 -92
-82 -92 -119 0 -30 63 -25 108 9 34 25 46 21 124 -42 81 -67 168 -81 168 -28
0 10 16 22 35 29 28 9 98 114 80 120 -3 0 -34 21 -69 46 -63 44 -159 54 -281
31z"/>
<path d="M5745 4299 c-26 -10 -45 -35 -45 -58 0 -23 -8 -41 -18 -41 -10 0 -11
-30 -2 -69 24 -107 -62 -166 -190 -130 -11 3 -42 -5 -70 -17 -32 -14 -38 -22
-17 -23 18 0 48 -25 67 -53 36 -56 208 -63 226 -10 4 12 18 22 31 23 101 3
213 259 113 259 -22 0 -40 -12 -40 -28 0 -15 -13 -38 -30 -52 -25 -21 -30 -18
-30 17 0 22 11 48 25 57 47 30 76 81 63 113 -14 37 -20 38 -83 12z"/>
<path d="M1761 4205 c1 -44 67 -125 102 -125 20 -1 20 -5 -3 -20 -16 -11 -21
-19 -10 -19 40 0 64 30 51 65 -7 21 -19 36 -27 35 -58 -6 -68 2 -59 49 7 37 1
50 -23 50 -17 0 -32 -16 -31 -35z"/>
<path d="M4247 4180 c-60 -24 -67 -42 -48 -123 29 -130 -128 -183 -229 -77
-73 76 -85 75 -106 -5 -18 -67 13 -145 71 -181 29 -19 34 -74 6 -74 -11 0 -14
-15 -7 -34 11 -28 17 -24 31 19 16 47 23 51 69 33 91 -34 286 52 286 126 0 23
17 44 40 50 22 6 40 19 40 28 0 10 13 18 29 18 16 0 36 13 45 28 9 15 50 42
92 59 74 31 75 33 40 70 -70 72 -255 105 -359 63z"/>
<path d="M1730 3994 c0 -35 11 -75 24 -89 13 -14 30 -67 37 -117 9 -55 20 -82
29 -67 9 13 8 49 0 80 -9 31 -11 61 -5 67 6 6 -1 26 -16 43 -15 18 -28 50 -30
71 -5 70 -39 80 -39 12z"/>
<path d="M4595 3992 c-62 -27 -41 -71 34 -74 23 0 30 -6 16 -11 -38 -16 -30
-63 15 -87 32 -17 46 -13 74 19 24 28 39 33 48 17 33 -53 239 -6 238 54 -2 96
-274 149 -425 82z"/>
<path d="M5059 3964 c14 -53 130 -71 161 -25 6 8 24 20 40 26 17 7 1 13 -35
13 -81 2 -85 3 -138 23 -39 15 -42 12 -28 -37z"/>
<path d="M6350 4005 c-50 -37 -26 -82 33 -61 64 22 80 46 17 26 -43 -14 -57
20 -15 37 14 5 16 10 5 11 -11 1 -29 -5 -40 -13z"/>
<path d="M1854 3892 c-6 -15 -5 -34 2 -42 8 -7 15 -22 17 -32 1 -10 4 -25 7
-33 14 -44 7 -76 -20 -89 -25 -11 -24 -13 5 -15 24 -1 35 -17 35 -51 0 -27 8
-50 19 -50 10 0 21 -12 25 -27 4 -19 21 -12 56 22 48 47 48 48 5 26 -52 -26
-106 -7 -62 22 22 14 19 23 -12 47 -21 17 -27 30 -14 30 15 0 19 10 10 25 -15
25 -17 34 -24 140 -3 58 -32 74 -49 27z"/>
<path d="M2536 3662 c-8 -53 -3 -62 32 -60 23 0 31 6 17 11 -37 15 -30 47 10
49 28 1 29 3 5 13 -16 6 -36 20 -42 30 -7 10 -17 -9 -22 -43z"/>
<path d="M4836 3672 c-30 -22 -30 -26 7 -49 22 -14 36 -38 30 -53 -7 -18 11
-32 53 -42 35 -8 55 -17 43 -21 -25 -9 -13 -147 13 -147 10 0 18 10 18 21 0
12 8 16 19 10 44 -27 38 33 -12 123 -30 53 -54 101 -54 106 -1 36 -87 74 -117
52z"/>
<path d="M1976 3495 c-29 -44 -35 -383 -8 -410 11 -11 21 63 14 102 -2 10 10
13 26 6 49 -18 82 125 36 160 -21 16 -25 26 -9 26 34 1 32 60 -3 73 -16 6 -23
27 -17 49 13 52 -4 49 -39 -6z"/>
<path d="M5373 3466 c-7 -7 -13 -27 -12 -44 0 -28 3 -28 20 1 12 21 34 29 59
23 22 -6 40 -3 40 7 0 21 -88 32 -107 13z"/>
<path d="M4800 3410 c0 -31 11 -50 30 -50 32 0 37 18 18 68 -19 49 -48 38 -48
-18z"/>
<path d="M5165 3199 c-56 -22 -41 -68 35 -99 49 -20 62 -18 98 18 l41 41 -44
30 c-49 35 -66 36 -130 10z"/>
<path d="M2060 3131 c0 -49 8 -67 26 -60 14 6 25 26 25 46 0 20 -11 47 -25 61
-21 19 -26 10 -26 -47z"/>
<path d="M4480 3164 c0 -49 -39 -84 -94 -84 -25 0 -46 -8 -46 -19 0 -25 219
-7 253 21 58 49 33 118 -43 118 -54 0 -70 -8 -70 -36z"/>
<path d="M2138 3133 c-2 -7 -4 -20 -6 -28 -1 -8 -10 -26 -19 -40 -9 -15 -9
-55 -1 -90 8 -36 16 -81 18 -100 10 -104 54 -63 52 48 -3 149 -31 282 -44 210z"/>
<path d="M5350 3100 c7 -12 21 -16 31 -9 10 6 13 -3 6 -20 -17 -46 84 -143
119 -115 33 28 85 -3 63 -37 -12 -20 7 -23 87 -13 101 12 156 -9 91 -35 -44
-16 -269 9 -257 29 6 9 -26 19 -70 23 -55 6 -82 -1 -90 -20 -6 -16 -17 -23
-24 -16 -7 7 -24 3 -39 -10 -15 -12 -27 -17 -27 -10 0 6 -40 -1 -90 -16 -94
-28 -113 -22 -56 19 30 23 29 27 -12 49 -69 37 -139 12 -128 -45 12 -62 -41
-109 -84 -74 -20 16 -66 20 -145 11 -63 -7 -155 -12 -205 -12 -49 1 -139 -7
-200 -17 -63 -10 -123 -10 -140 -1 -20 12 0 18 61 18 50 1 109 14 130 29 21
16 48 21 59 13 25 -20 150 -3 150 21 0 10 -7 16 -15 15 -41 -10 -219 32 -249
58 -43 38 -127 19 -156 -35 -12 -22 -35 -40 -51 -40 -16 0 -29 -13 -29 -29 0
-16 -26 -59 -58 -95 -31 -36 -61 -84 -65 -106 -8 -46 -185 -70 -224 -31 -46
46 -193 -40 -193 -113 0 -14 -13 -26 -30 -26 -19 0 -30 -19 -30 -53 0 -30 -6
-48 -13 -41 -15 16 -67 -22 -67 -48 0 -27 55 -21 67 7 8 20 10 20 11 0 2 -18
13 -20 37 -7 105 56 205 89 336 112 106 18 168 41 223 84 174 135 281 166 572
166 259 1 414 17 594 62 137 35 375 36 520 3 72 -16 238 -33 370 -37 132 -4
267 -8 300 -9 53 -1 140 10 170 22 6 2 18 2 27 1 9 -2 13 8 8 22 -4 14 -36 27
-70 29 -33 2 -104 22 -156 46 -85 37 -119 40 -298 29 l-201 -13 -29 52 c-15
29 -40 53 -54 53 -15 0 -27 8 -27 18 0 29 -165 101 -262 114 -48 7 -103 20
-122 30 -45 24 -81 23 -66 -2z"/>
<path d="M4693 2927 c-23 -24 -14 -47 18 -47 17 0 26 -9 19 -20 -14 -23 -6
-25 38 -8 18 7 32 25 32 41 0 16 -8 24 -19 18 -10 -6 -24 -3 -31 9 -14 23 -37
26 -57 7z"/>
<path d="M2146 2755 c-1 -25 2 -34 7 -21 5 13 23 19 38 13 18 -7 29 1 29 21 0
51 -71 39 -74 -13z"/>
<path d="M2187 2707 c-35 -16 -68 -47 -73 -69 -7 -25 -21 -34 -42 -26 -71 27
-59 -91 30 -287 21 -46 38 -90 38 -97 0 -6 27 -70 60 -141 33 -71 60 -134 60
-139 0 -18 145 -238 198 -299 125 -148 192 -262 204 -349 7 -49 32 -211 56
-360 64 -393 105 -737 100 -840 -4 -70 1 -88 24 -81 15 5 170 7 344 5 208 -3
312 3 304 16 -8 12 21 19 74 18 68 -2 76 -5 36 -16 -27 -7 142 -14 376 -16
504 -2 490 81 -16 102 -71 3 -148 10 -169 16 -34 8 -225 -21 -311 -48 -16 -5
-23 -6 -15 -1 35 19 11 39 -37 30 -39 -8 -45 -15 -25 -29 18 -13 -5 -14 -63
-5 -49 8 -135 14 -190 13 -73 -1 -89 3 -60 16 22 9 28 18 14 19 -15 0 -20 11
-12 24 10 16 4 20 -16 12 -44 -17 -76 23 -76 94 0 34 -13 85 -28 114 -26 50
-25 53 9 47 32 -6 34 -1 16 46 -23 60 -31 96 -49 214 l-12 80 72 -69 c39 -38
72 -61 72 -52 0 9 12 6 27 -6 15 -13 33 -17 40 -9 7 7 13 3 13 -9 0 -11 -13
-26 -28 -32 -16 -6 -27 -24 -24 -41 8 -55 31 -59 50 -7 12 33 39 53 76 60 31
5 71 16 89 24 22 9 49 -1 78 -30 36 -36 54 -40 105 -26 l62 18 -116 59 c-63
32 -127 75 -142 96 -18 26 -39 34 -68 25 -28 -9 -43 -5 -44 13 -1 14 -91 107
-200 206 -183 167 -309 326 -294 371 3 10 32 -4 64 -31 32 -28 64 -50 72 -50
7 0 24 -22 36 -50 25 -55 64 -67 64 -20 0 17 9 30 20 30 11 0 20 -14 20 -32 0
-19 11 -28 28 -22 27 11 72 -20 72 -50 0 -9 -18 -16 -40 -16 -53 0 -51 -13 15
-70 31 -27 70 -44 89 -38 19 6 42 -5 53 -26 14 -24 27 -29 40 -16 25 27 51
152 30 148 -52 -9 -67 5 -55 52 9 35 3 53 -20 62 -18 7 -32 25 -32 40 0 21
-17 26 -61 18 -85 -15 -109 5 -65 55 35 40 35 40 -12 16 -42 -22 -52 -19 -95
27 -27 29 -44 52 -38 52 6 0 -16 28 -49 63 -64 67 -71 121 -17 137 25 8 28 20
13 60 -23 61 -63 14 -73 -84 -2 -14 -17 -5 -34 20 -17 24 -26 52 -20 63 6 10
-4 30 -24 45 -61 46 -92 116 -51 116 26 0 19 15 -30 59 -35 32 -64 63 -64 69
0 6 -23 43 -50 84 -35 51 -44 81 -30 98 11 13 15 28 10 34 -6 5 -13 37 -17 71
-4 34 -22 77 -39 94 -18 18 -28 43 -23 57 22 57 -37 96 -97 65 -30 -16 -51
-22 -45 -13 5 9 -2 33 -17 53 -30 41 -22 86 23 123 58 47 5 89 -68 53z m258
-857 c-12 -60 -36 -65 -50 -11 -12 43 -1 61 36 61 14 0 20 -19 14 -50z m716
-702 c20 -54 11 -88 -25 -88 -11 0 -16 18 -10 40 6 22 2 45 -8 51 -24 15 -23
49 2 49 12 0 30 -23 41 -52z m-93 -318 c26 -27 55 -50 64 -50 25 0 148 -118
148 -141 0 -38 -45 -17 -111 51 -38 39 -77 70 -89 70 -26 0 -100 74 -100 100
0 35 41 21 88 -30z"/>
<path d="M5380 2482 c0 -15 -13 -21 -30 -15 -18 7 -30 0 -30 -18 0 -34 71 -40
91 -7 7 12 3 32 -9 44 -16 16 -22 15 -22 -4z"/>
<path d="M4529 2398 c-8 -12 -3 -29 11 -38 40 -24 89 -10 97 29 5 29 0 31 -34
13 -50 -27 -69 -28 -53 -2 7 11 8 20 2 20 -5 0 -16 -10 -23 -22z"/>
<path d="M4860 2250 c-14 -16 -46 -30 -72 -30 -27 0 -48 -9 -48 -20 0 -11 -17
-20 -39 -20 -21 0 -43 -8 -49 -17 -6 -10 -50 -25 -97 -33 -47 -9 -98 -18 -114
-22 -15 -3 -40 10 -54 28 -21 28 -26 29 -28 4 -3 -41 -13 -84 -28 -123 -17
-40 37 -53 189 -46 61 3 129 6 153 7 34 2 41 11 32 44 -9 37 -6 40 29 21 28
-15 46 -15 62 1 22 22 232 38 459 36 113 -1 125 3 125 39 0 23 9 41 20 41 49
0 15 -124 -40 -145 -16 -7 17 -13 75 -13 62 -1 105 7 105 19 0 12 -7 17 -16
12 -9 -6 -27 -3 -41 5 -31 19 -8 82 29 82 39 0 35 53 -4 68 -28 11 -29 17 -5
46 16 20 17 28 3 20 -13 -8 -29 -5 -36 7 -9 13 -22 14 -37 2 -30 -24 -496 -25
-525 -1 -15 12 -32 8 -48 -12z"/>
<path d="M7046 2255 c5 -14 19 -23 32 -20 13 3 28 -22 35 -55 12 -59 47 -65
47 -7 0 35 -36 74 -87 93 -25 10 -33 6 -27 -11z"/>
<path d="M3016 1975 c-6 -31 -3 -61 7 -67 9 -6 17 1 18 16 0 18 7 17 25 -6 28
-38 82 -22 90 25 5 35 -61 69 -94 48 -10 -6 -22 0 -27 14 -5 14 -13 0 -19 -30z"/>
<path d="M5670 1840 c-23 -37 10 -62 52 -39 21 12 34 30 27 40 -15 25 -63 24
-79 -1z"/>
<path d="M6640 1823 c0 -27 14 -36 50 -35 28 1 50 9 50 17 0 8 0 24 0 35 0 11
-22 20 -50 20 -35 0 -50 -11 -50 -37z"/>
<path d="M2920 1782 c0 -10 -5 -33 -12 -50 -9 -24 1 -32 40 -32 42 0 52 9 52
50 0 37 -11 50 -40 50 -22 0 -40 -8 -40 -18z"/>
<path d="M7065 1389 c-44 -48 -25 -82 40 -71 8 1 15 -7 15 -18 0 -11 18 -20
40 -20 22 0 40 10 40 22 0 12 -18 26 -40 32 -22 6 -40 23 -40 37 0 40 -27 48
-55 18z"/>
<path d="M6994 1287 c-8 -7 -4 -26 9 -40 23 -28 77 -3 77 35 0 21 -67 24 -86
5z"/>
<path d="M6800 1245 c0 -13 -13 -19 -30 -12 -16 6 -30 2 -30 -9 0 -11 14 -25
30 -31 44 -17 37 -79 -12 -110 -29 -18 -39 -40 -33 -73 7 -38 -1 -48 -48 -58
-40 -8 -57 -23 -57 -50 0 -41 -75 -108 -102 -91 -8 5 -31 -17 -51 -51 -37 -62
-67 -78 -67 -35 -1 17 -7 15 -20 -5 -28 -43 -24 -60 12 -60 27 0 28 -5 8 -30
-31 -38 -60 -20 -60 36 0 45 -6 46 -214 35 -14 0 -20 -14 -13 -31 6 -16 19
-25 29 -19 10 6 18 -3 18 -20 0 -17 -13 -31 -30 -31 -34 0 -40 -31 -10 -50 11
-7 20 -3 20 9 0 11 18 3 40 -19 41 -41 141 -38 157 4 4 10 19 2 33 -18 34 -46
111 14 104 81 -3 32 9 45 46 50 28 4 63 17 79 30 23 18 26 17 13 -7 -8 -16 -1
-13 15 7 17 20 26 47 21 60 -8 22 106 87 137 77 8 -2 15 6 15 18 0 12 14 17
30 11 18 -7 30 0 30 18 0 16 -10 29 -22 29 -16 0 -15 10 2 31 20 23 21 42 3
81 -30 64 -29 68 8 68 60 0 151 121 116 156 -23 22 -40 24 -76 8 -33 -15 -52
-15 -69 2 -16 16 -22 16 -22 -1z"/>
<path d="M7283 1147 c-2 -46 -12 -87 -22 -90 -12 -4 -13 -18 -2 -36 22 -35 49
89 35 161 -5 30 -10 16 -11 -35z"/>
<path d="M3313 927 c-21 -21 -15 -87 8 -87 11 0 25 14 32 30 13 35 47 41 47 8
0 -25 80 -96 110 -97 11 -1 35 -28 54 -61 40 -70 116 -83 116 -20 0 27 -13 40
-42 40 -29 0 -39 9 -31 30 8 21 -10 39 -58 59 -84 35 -90 71 -10 71 32 0 64 9
71 20 16 26 -62 26 -110 0 -25 -13 -42 -13 -50 0 -14 22 -116 27 -137 7z"/>
<path d="M5912 669 c-6 -18 -38 -29 -81 -29 -85 0 -93 -29 -16 -54 63 -20 151
-11 135 14 -6 9 19 14 55 10 36 -3 53 -2 39 4 -21 8 -20 18 6 46 30 33 27 35
-47 36 -52 1 -84 -9 -91 -27z"/>
<path d="M3588 533 c-7 -19 -3 -45 10 -60 17 -21 9 -32 -33 -52 -52 -23 -53
-26 -18 -51 35 -26 151 -1 123 26 -5 6 0 22 13 37 16 20 16 27 -2 27 -13 0
-19 7 -15 15 5 8 -8 32 -28 53 -34 34 -38 35 -50 5z"/>
<path d="M5787 256 c-11 -19 -15 -17 68 -29 50 -7 65 -2 65 22 0 33 -113 39
-133 7z"/>
</g>
</svg>
