 <svg  version="1.0" xmlns="http://www.w3.org/2000/svg"  width="900.000000pt" height="1248.000000pt" viewBox="0 0 900.000000 1248.000000"  preserveAspectRatio="xMidYMid meet">  <g transform="translate(0.000000,1248.000000) scale(0.100000,-0.100000)" fill="#121212" stroke="none"> <path d="M2682 12451 c-18 -40 -7 -57 44 -75 25 -8 62 -30 83 -48 22 -18 62 -41 90 -51 46 -16 51 -21 62 -59 9 -36 8 -47 -10 -83 -12 -23 -21 -55 -21 -72 0 -16 -5 -34 -10 -39 -6 -6 -13 -42 -16 -80 -3 -45 -15 -92 -33 -134 -16 -36 -37 -84 -47 -107 -11 -27 -27 -46 -45 -53 -30 -13 -62 -83 -52 -118 6 -25 -22 -52 -56 -52 -28 0 -71 -44 -71 -73 0 -34 -35 -114 -59 -134 -30 -26 -73 -30 -91 -8 -7 9 -23 15 -34 13 -18 -3 -21 -10 -21 -55 0 -44 -6 -60 -42 -112 -24 -33 -43 -66 -44 -73 0 -7 -15 -42 -32 -78 -43 -87 -75 -104 -169 -88 -37 6 -75 8 -85 4 -16 -7 -15 -9 10 -22 20 -11 27 -22 25 -37 -2 -17 -21 -28 -87 -52 -69 -25 -92 -40 -127 -78 -23 -26 -47 -47 -53 -47 -5 0 -16 -9 -24 -20 -8 -11 -36 -31 -63 -44 -68 -33 -133 -98 -184 -184 -23 -40 -46 -75 -51 -78 -5 -3 -9 -13 -9 -23 0 -10 -20 -43 -45 -73 -25 -30 -45 -60 -45 -66 0 -5 -21 -31 -47 -56 -39 -39 -53 -46 -85 -46 -32 0 -44 -7 -75 -41 -50 -55 -221 -223 -281 -275 -26 -23 -63 -45 -82 -49 -53 -12 -167 -59 -190 -80 -11 -10 -20 -26 -20 -36 0 -10 -6 -33 -14 -51 -8 -18 -17 -45 -20 -60 -4 -15 -20 -36 -39 -49 -17 -12 -53 -44 -78 -70 -53 -57 -77 -61 -131 -24 -40 27 -50 22 -62 -28 -4 -15 -22 -45 -41 -66 -19 -21 -35 -41 -35 -45 0 -3 -13 -28 -30 -54 -16 -27 -30 -55 -30 -61 0 -7 15 -18 34 -26 41 -17 48 -26 36 -45 -4 -7 -4 -20 0 -29 5 -9 12 -33 15 -54 3 -21 13 -41 21 -44 29 -11 13 -23 -23 -17 -25 3 -44 1 -57 -9 -17 -13 -17 -15 -3 -43 9 -16 37 -49 62 -73 32 -32 45 -53 45 -73 0 -28 31 -55 51 -43 5 4 15 2 22 -3 7 -5 27 -13 45 -17 32 -7 34 -6 27 16 -4 13 -14 31 -21 40 -8 9 -11 19 -7 22 3 4 -8 10 -26 13 -25 5 -33 13 -38 35 -3 15 -14 36 -24 45 -26 23 -24 49 6 68 27 18 33 54 15 100 -8 21 -6 26 13 32 12 4 32 17 45 29 19 19 20 24 7 29 -19 7 -19 23 0 59 14 27 13 29 -32 77 -26 28 -53 50 -60 50 -7 0 -13 5 -13 10 0 15 29 12 82 -7 l47 -17 28 30 c15 16 28 38 28 49 0 17 7 20 42 21 23 0 48 6 56 12 11 9 19 5 38 -21 13 -17 27 -45 30 -62 4 -17 7 14 8 68 0 59 7 111 15 130 38 88 73 88 56 -1 -12 -63 -1 -98 35 -112 18 -7 25 -17 25 -35 0 -15 6 -25 15 -25 12 0 13 9 8 48 -3 26 -13 57 -20 69 -9 14 -12 33 -8 51 9 44 -4 81 -31 88 -31 8 -32 34 -1 34 12 0 39 9 60 20 20 11 46 20 57 20 13 0 24 10 30 25 6 17 17 25 33 25 13 0 37 15 57 35 19 19 39 35 45 35 7 0 17 11 23 25 7 14 19 28 27 31 8 4 15 11 15 18 0 6 20 32 45 58 47 48 98 69 118 49 16 -16 54 -13 61 5 10 26 7 34 -13 34 -10 0 -24 7 -31 15 -10 12 -7 17 14 26 20 10 29 10 38 1 27 -27 128 3 128 38 0 12 7 23 15 26 10 4 13 13 10 24 -4 12 4 26 25 43 16 14 30 34 30 45 0 11 9 31 20 45 11 14 20 34 20 45 0 15 9 21 35 26 21 4 41 17 51 31 9 14 23 25 31 25 18 0 94 66 108 94 6 11 31 30 58 43 26 13 54 35 63 48 8 13 34 33 56 45 43 22 79 60 71 72 -8 14 -23 9 -23 -7 0 -18 -36 -20 -43 -2 -3 10 -9 10 -26 0 -11 -7 -34 -13 -51 -13 -18 0 -33 -6 -36 -15 -8 -19 -34 -20 -34 0 0 22 65 85 88 85 11 0 31 9 45 20 28 22 68 25 116 9 36 -13 62 0 115 56 34 36 81 55 132 55 29 0 38 6 60 41 14 23 34 44 45 46 22 6 24 14 8 30 -17 17 56 91 97 99 23 4 36 14 43 32 6 15 15 34 20 42 9 16 32 66 50 113 7 17 18 27 32 27 21 0 79 50 79 68 0 5 -7 12 -15 16 -25 9 -17 26 13 26 20 0 35 9 51 31 22 29 27 31 66 25 25 -3 45 -1 47 4 2 6 14 4 29 -4 14 -7 36 -16 50 -19 13 -4 32 -20 41 -37 16 -29 20 -30 60 -24 24 4 53 14 65 21 12 8 37 13 55 11 24 -2 33 1 34 12 1 8 2 20 3 26 0 6 15 17 31 24 26 11 30 18 30 50 0 23 8 46 20 60 11 13 20 29 20 37 0 8 7 13 18 11 14 -3 16 -13 14 -50 -3 -53 10 -69 26 -33 16 34 62 35 62 3 0 -28 6 -36 48 -71 22 -18 45 -27 68 -27 29 0 34 -4 34 -22 0 -13 4 -29 8 -36 12 -17 38 13 46 55 9 39 24 45 64 26 34 -17 82 -11 82 10 0 6 14 20 31 30 l31 17 -5 -27 c-3 -15 2 -41 10 -57 l16 -30 18 23 c10 12 22 20 27 17 5 -3 32 3 59 14 43 16 63 18 144 11 99 -8 121 -3 103 27 -8 11 -21 16 -40 14 -16 -2 -72 -5 -124 -5 -75 -2 -101 -6 -123 -21 -25 -17 -30 -17 -43 -4 -21 21 -9 43 42 78 48 32 108 48 118 31 9 -13 66 -15 66 -2 0 5 -5 11 -12 13 -6 2 -9 12 -5 21 6 15 10 16 27 5 29 -18 46 8 23 34 -21 23 -15 28 38 35 34 5 45 2 56 -13 13 -18 15 -17 39 13 25 32 94 61 114 48 18 -11 0 -25 -31 -25 -37 0 -37 -13 1 -40 35 -25 39 -47 9 -58 -21 -8 -21 -9 4 -25 14 -9 28 -26 32 -37 3 -11 13 -20 21 -20 8 0 14 -5 14 -11 0 -6 -8 -9 -18 -7 -11 3 -30 -1 -43 -8 -28 -16 -105 -18 -114 -4 -7 12 -25 4 -25 -11 0 -5 20 -9 45 -9 37 0 47 -4 61 -25 17 -27 19 -27 117 -8 25 4 28 2 23 -13 -3 -11 -2 -25 3 -32 6 -10 16 -4 40 23 18 21 34 36 35 34 2 -2 7 -12 12 -22 9 -16 13 -14 42 14 26 26 33 28 38 15 8 -22 22 -20 45 7 l19 22 19 -22 c20 -24 41 -30 41 -13 0 15 19 12 48 -8 24 -16 42 -18 147 -14 66 2 147 3 180 3 33 -1 119 -3 190 -4 72 -2 173 -9 225 -16 52 -7 138 -18 190 -25 52 -8 127 -14 165 -15 39 -1 78 -4 88 -7 20 -6 22 -36 5 -65 -11 -17 -10 -22 7 -35 10 -8 24 -13 30 -11 10 4 11 10 14 51 1 18 7 19 84 13 46 -3 89 -2 96 3 8 4 26 4 40 -1 14 -5 58 -14 96 -20 39 -5 86 -12 105 -15 19 -3 49 -12 65 -19 17 -8 47 -17 68 -20 37 -6 43 -25 7 -25 -10 0 -21 -4 -25 -9 -3 -5 -21 -7 -40 -4 -33 5 -35 4 -35 -21 0 -29 7 -30 156 -26 42 1 75 -3 78 -9 4 -6 19 -8 35 -5 22 5 35 -1 65 -30 45 -42 72 -52 91 -36 14 12 48 10 129 -7 59 -12 58 -33 -1 -34 -26 0 -57 -4 -68 -9 -18 -7 -16 -10 17 -24 21 -9 48 -16 61 -16 14 0 30 -7 37 -15 7 -8 22 -15 34 -15 13 0 33 -11 46 -25 13 -14 30 -25 37 -25 10 0 12 -7 9 -20 -3 -11 -9 -29 -12 -40 -7 -25 8 -26 46 -4 37 22 66 13 48 -15 -16 -27 -3 -38 20 -18 15 14 27 15 63 9 47 -9 92 0 120 24 8 8 36 14 61 14 36 0 56 -8 104 -41 32 -23 69 -52 82 -65 21 -23 22 -25 7 -54 -9 -16 -20 -30 -26 -30 -16 0 -51 20 -76 43 -19 17 -27 19 -48 9 -38 -17 -76 -15 -123 8 -27 13 -44 29 -48 45 -6 26 -19 31 -43 16 -17 -11 -6 -105 15 -126 16 -15 113 -30 144 -22 27 7 85 -9 100 -28 10 -13 7 -16 -19 -21 -36 -7 -48 -21 -33 -36 12 -12 133 -19 147 -8 5 4 26 10 45 13 19 3 48 9 64 13 25 6 28 5 22 -14 -6 -18 -1 -23 33 -32 30 -8 41 -16 41 -30 0 -22 -35 -44 -57 -36 -18 7 -85 -32 -81 -46 2 -6 18 -16 36 -24 33 -13 33 -13 44 17 l11 31 31 -35 c17 -19 39 -37 49 -40 36 -13 9 -77 -34 -77 -12 0 -19 -7 -19 -20 0 -22 -37 -44 -91 -54 -48 -9 -70 -33 -46 -51 15 -11 117 -31 121 -23 36 82 68 107 117 95 27 -7 92 -63 101 -88 5 -11 14 -15 32 -12 53 11 130 -85 104 -131 -10 -18 -38 -22 -38 -5 0 6 -29 40 -65 75 -36 36 -65 71 -65 79 0 21 -24 19 -51 -5 l-24 -20 30 -22 c16 -13 36 -31 45 -42 8 -11 28 -33 43 -50 23 -25 27 -37 22 -61 -13 -64 -11 -80 11 -83 26 -4 48 22 49 56 1 69 58 5 58 -66 0 -31 -5 -47 -16 -54 -10 -5 -17 -18 -17 -29 0 -15 -6 -20 -22 -17 -17 2 -24 11 -26 34 -3 27 -6 30 -32 26 -24 -3 -29 0 -32 19 -3 22 -10 25 -73 32 -38 4 -74 12 -79 17 -6 6 -23 10 -38 10 -16 0 -31 7 -34 15 -3 8 -14 17 -25 20 -28 9 -23 26 6 19 20 -5 25 -2 25 12 0 27 -12 41 -43 53 -41 16 -47 14 -47 -14 0 -29 -24 -33 -58 -9 -20 14 -22 14 -22 -3 0 -22 40 -79 69 -100 12 -8 21 -22 21 -32 0 -9 5 -22 12 -29 9 -9 9 -15 0 -24 -7 -7 -12 -19 -12 -27 1 -13 3 -12 15 3 14 18 15 18 40 2 25 -16 25 -19 11 -35 -20 -22 -20 -38 0 -49 20 -11 48 2 86 41 34 34 34 37 3 37 -28 0 -85 26 -85 38 0 15 24 32 47 32 32 0 113 -23 113 -32 0 -4 20 -16 45 -27 40 -18 45 -23 45 -53 -1 -18 -7 -44 -15 -58 -19 -34 -18 -40 6 -40 37 0 59 -19 59 -50 0 -17 4 -38 9 -48 10 -19 32 -99 33 -122 1 -8 14 -30 29 -48 16 -18 29 -37 29 -42 0 -6 10 -10 21 -10 20 0 21 -4 17 -50 -4 -44 -2 -52 16 -63 12 -6 26 -12 33 -12 13 0 83 -88 83 -104 0 -5 23 -32 51 -60 48 -47 50 -51 47 -98 -2 -40 -7 -49 -23 -51 -28 -4 -105 91 -131 161 -8 23 -23 22 -51 -4 -18 -18 -25 -20 -38 -9 -18 15 -20 1 -3 -35 6 -15 27 -33 45 -40 18 -8 33 -19 33 -24 0 -6 16 -17 35 -25 26 -11 35 -21 35 -39 0 -14 7 -30 15 -37 14 -12 14 -15 -1 -31 -24 -27 -32 -24 -36 14 -2 24 -8 33 -25 35 -26 4 -30 -13 -11 -54 11 -23 10 -28 -7 -41 -18 -13 -17 -14 16 -8 46 8 54 -4 38 -53 -7 -20 -12 -45 -10 -54 1 -9 -14 -35 -34 -57 -35 -39 -36 -40 -21 -70 9 -16 16 -41 16 -56 0 -23 -4 -25 -41 -25 -46 0 -79 -14 -79 -35 0 -7 12 -27 26 -45 20 -23 25 -38 21 -60 -5 -22 0 -37 20 -61 21 -25 24 -32 12 -40 -8 -5 -17 -9 -21 -9 -19 0 -5 -17 27 -34 19 -11 35 -22 35 -26 0 -5 -18 -15 -40 -24 -46 -18 -58 -56 -17 -56 42 0 51 -14 31 -45 -18 -27 -18 -28 9 -51 36 -30 94 -47 119 -33 19 10 19 28 2 90 -2 9 2 22 11 29 31 26 9 130 -33 158 -38 24 -113 104 -109 117 2 5 17 12 33 13 43 5 64 29 64 73 0 24 9 52 25 75 25 37 26 56 3 116 -13 36 1 60 50 82 40 18 78 67 69 90 -3 8 -21 16 -40 20 -40 7 -62 29 -53 51 8 22 30 18 66 -11 43 -37 54 -22 58 80 3 61 0 90 -11 107 -34 55 -112 177 -138 217 -20 30 -29 56 -29 84 0 34 -6 46 -36 74 -19 19 -39 34 -44 34 -5 0 -20 18 -33 41 -21 35 -23 45 -14 76 9 27 8 41 -5 66 -57 118 -64 186 -25 238 19 27 22 45 25 149 4 141 -5 164 -97 253 -63 61 -124 144 -118 161 8 25 46 15 93 -24 27 -22 54 -40 61 -40 19 0 16 34 -4 52 -17 15 -126 69 -253 125 -67 30 -93 59 -78 87 9 17 4 25 -33 58 -24 21 -67 49 -96 63 -44 21 -59 36 -94 95 -57 96 -94 113 -239 112 -82 -1 -108 2 -122 15 -11 9 -29 14 -47 11 -30 -4 -41 6 -41 38 0 12 8 13 34 9 29 -6 36 -3 46 15 21 38 9 64 -32 71 -43 7 -71 27 -64 46 3 7 0 25 -6 39 -9 19 -18 24 -37 22 -29 -3 -41 -39 -22 -62 6 -7 8 -16 5 -19 -9 -8 -96 3 -110 15 -7 5 -34 9 -60 9 -55 1 -159 26 -189 46 -11 7 -34 13 -52 13 -21 0 -40 8 -50 20 -10 11 -28 20 -40 20 -16 0 -23 6 -23 19 0 22 -39 33 -192 52 -51 7 -98 18 -103 25 -6 7 -28 15 -48 19 -70 14 -36 20 114 23 146 2 152 1 194 -24 36 -21 48 -23 65 -14 26 14 21 33 -11 40 -13 3 -48 17 -77 33 -44 22 -67 27 -127 27 -40 0 -92 -7 -116 -15 -28 -10 -87 -16 -169 -18 l-125 -2 -3 45 c-2 34 -10 50 -28 65 -21 17 -26 31 -31 93 -5 66 -8 72 -28 72 -15 0 -28 -11 -40 -33 -18 -34 -18 -44 6 -123 7 -23 9 -48 6 -57 -8 -21 -55 -22 -82 -3 -11 7 -40 16 -65 19 -83 10 -155 28 -190 49 -65 39 -158 52 -275 37 -67 -8 -82 -7 -91 6 -6 8 -19 15 -28 15 -31 0 -10 25 25 31 20 3 46 13 59 22 14 10 43 17 67 17 29 0 43 4 43 13 0 26 -25 37 -83 37 -56 0 -59 1 -70 30 -14 38 -45 47 -85 26 -17 -9 -41 -16 -54 -16 -28 1 -155 33 -164 43 -4 4 -19 7 -33 7 -15 0 -37 7 -50 16 -19 14 -30 15 -60 6 -62 -19 -92 -23 -113 -16 -18 5 -18 7 -3 24 9 10 15 29 13 42 -3 22 -6 23 -78 20 -41 -2 -90 -10 -109 -18 -18 -8 -54 -14 -78 -14 -30 0 -53 -7 -70 -20 -20 -15 -34 -19 -60 -14 -20 4 -39 2 -48 -6 -58 -48 -177 -67 -219 -35 -11 8 -29 15 -41 15 -12 0 -25 4 -30 9 -6 5 -64 32 -130 61 -88 38 -137 53 -185 57 -36 3 -75 13 -87 20 -16 11 -36 13 -71 8 -43 -6 -53 -3 -77 18 -26 22 -29 30 -33 113 -2 49 -9 95 -15 102 -6 7 -12 49 -15 93 l-5 80 -60 55 c-81 73 -140 91 -224 70 -32 -8 -71 -16 -88 -18 -28 -3 -30 -6 -35 -55 -8 -74 -17 -80 -76 -49 -74 38 -219 142 -216 155 1 6 -8 11 -21 11 -15 0 -26 -9 -35 -29z m604 -98 c45 -34 67 -76 59 -113 -4 -19 1 -40 14 -66 12 -22 21 -57 21 -81 0 -23 7 -58 16 -77 11 -23 14 -45 10 -69 -6 -30 -14 -39 -54 -57 -26 -12 -58 -27 -72 -34 -14 -7 -38 -16 -54 -20 -16 -4 -41 -16 -54 -27 -63 -49 -128 -2 -89 64 8 14 12 67 12 152 1 114 11 212 31 292 7 26 63 60 102 62 13 1 39 -11 58 -26z m134 -571 c0 -19 -18 -42 -32 -42 -10 0 -11 44 -1 53 13 14 33 7 33 -11z m291 2 c10 -13 24 -15 66 -10 60 7 159 -19 173 -45 12 -22 -30 -110 -66 -138 -40 -31 -90 -51 -129 -51 -19 0 -46 -7 -62 -15 -15 -8 -39 -17 -53 -19 -14 -3 -32 -19 -42 -36 -14 -24 -24 -30 -52 -30 -25 0 -38 6 -46 20 -13 25 -3 105 16 135 11 16 11 29 2 58 -9 28 -8 46 1 77 12 41 19 45 77 41 18 -1 36 4 44 13 16 21 54 20 71 0z m-393 -31 c5 -10 8 -49 7 -88 l-2 -70 -66 -1 c-118 -2 -145 -21 -107 -75 26 -35 17 -57 -41 -99 -45 -32 -88 -45 -119 -35 -33 10 -27 75 14 143 19 32 42 75 52 97 12 24 31 45 49 54 17 7 44 26 60 41 43 39 65 49 107 50 26 0 40 -5 46 -17z m1385 -13 c3 -11 11 -22 19 -24 7 -2 32 -9 56 -15 62 -17 56 -39 -23 -79 -36 -19 -71 -42 -78 -52 -19 -28 -119 -92 -142 -92 -44 0 -75 21 -76 49 -2 47 2 56 41 95 26 26 47 38 66 38 38 0 57 13 52 36 -4 22 -54 32 -71 15 -13 -13 -67 -15 -67 -3 0 18 26 32 61 32 21 0 41 5 44 10 3 6 30 10 59 10 45 0 54 -3 59 -20z m-635 -52 c28 -28 -6 -78 -44 -64 -20 8 -18 53 4 65 22 13 26 13 40 -1z m942 -8 c12 -8 11 -10 -7 -10 -13 0 -23 5 -23 10 0 13 11 13 30 0z m275 -20 c15 -16 15 -20 3 -20 -8 0 -23 9 -33 20 -15 16 -15 20 -3 20 8 0 23 -9 33 -20z m-109 -30 c60 0 74 -3 74 -15 0 -31 -31 -75 -63 -88 -42 -18 -234 -30 -332 -21 -70 6 -76 9 -73 28 1 12 -1 27 -6 34 -4 7 -6 16 -3 19 3 3 54 7 114 10 59 3 113 10 120 15 17 14 66 27 81 22 8 -2 47 -4 88 -4z m146 -170 c31 -28 11 -46 -28 -26 -16 8 -37 17 -46 20 -31 9 -19 26 17 26 22 0 44 -8 57 -20z m285 -27 c3 -9 -16 -11 -74 -9 -43 2 -90 4 -105 5 -16 0 -28 6 -28 11 0 16 202 9 207 -7z m-3042 -263 c4 -6 -3 -23 -15 -38 -12 -15 -31 -43 -43 -62 -13 -19 -30 -36 -39 -38 -23 -4 -34 35 -15 56 8 9 22 31 31 49 9 18 26 33 38 36 13 2 26 5 30 6 4 0 10 -4 13 -9z m-795 -639 c0 -4 -8 -19 -18 -32 -11 -13 -22 -36 -26 -51 -4 -19 -19 -34 -49 -49 -23 -12 -56 -38 -74 -58 -26 -30 -34 -34 -45 -23 -11 11 -8 18 20 41 23 20 32 36 32 58 0 35 47 83 81 83 10 0 24 9 31 20 13 20 48 28 48 11z m6402 -244 c16 -25 8 -47 -17 -47 -27 0 -61 42 -50 60 8 14 56 4 67 -13z m-6862 -297 c0 -5 -12 -10 -26 -10 -14 0 -23 4 -19 10 3 6 15 10 26 10 10 0 19 -4 19 -10z"/> <path d="M4197 11584 c-8 -8 1 -24 14 -24 5 0 9 7 9 15 0 15 -12 20 -23 9z"/> <path d="M4670 11335 c-22 -26 4 -43 30 -20 11 10 20 22 20 27 0 14 -37 9 -50 -7z"/> <path d="M3455 11329 c-10 -15 3 -25 16 -12 7 7 7 13 1 17 -6 3 -14 1 -17 -5z"/> <path d="M3788 11314 c-7 -8 -23 -25 -35 -36 -26 -25 -29 -38 -9 -38 15 0 76 64 76 80 0 15 -18 12 -32 -6z"/> <path d="M4043 11305 c-3 -9 -23 -25 -45 -36 -28 -14 -37 -24 -30 -31 27 -27 120 30 106 65 -8 21 -23 22 -31 2z"/> <path d="M5170 11310 c0 -5 11 -10 24 -10 14 0 28 5 31 10 4 6 -7 10 -24 10 -17 0 -31 -4 -31 -10z"/> <path d="M5345 11290 c-4 -6 5 -10 20 -10 15 0 24 4 20 10 -3 6 -12 10 -20 10 -8 0 -17 -4 -20 -10z"/> <path d="M5451 11276 c-10 -11 -7 -17 11 -30 29 -20 45 -20 56 0 6 11 11 13 16 5 4 -6 36 -11 76 -11 38 0 72 -4 75 -10 10 -16 55 -12 62 6 8 22 -14 33 -65 32 -24 0 -49 5 -55 11 -17 17 -162 14 -176 -3z"/> <path d="M5780 11266 c0 -12 10 -16 42 -16 48 0 42 16 -10 26 -25 5 -32 3 -32 -10z"/> <path d="M4821 11261 c-27 -17 6 -38 72 -45 108 -12 124 -8 91 23 -22 22 -140 38 -163 22z"/> <path d="M6875 11222 c-11 -2 -31 -9 -45 -14 l-25 -10 25 -10 c14 -5 52 -9 85 -9 46 -1 75 -8 122 -31 40 -19 73 -28 95 -26 46 4 39 20 -18 42 -27 10 -69 28 -94 39 -43 21 -103 28 -145 19z"/> <path d="M6024 11168 c-22 -18 -40 -23 -79 -21 -29 1 -53 -4 -57 -10 -5 -8 -8 -5 -8 7 0 15 -5 17 -27 10 -16 -4 -53 -8 -83 -9 -59 -1 -124 -28 -117 -48 4 -13 17 -13 55 -1 20 6 22 3 20 -22 -4 -35 16 -45 20 -10 4 27 25 36 89 36 23 0 45 5 48 10 10 16 96 12 116 -6 16 -14 19 -13 40 9 13 13 43 29 67 36 50 14 57 35 8 26 -20 -4 -36 -2 -40 4 -10 16 -20 14 -52 -11z"/> <path d="M6247 11168 c-46 -12 -49 -43 -3 -43 17 -1 34 -10 46 -25 15 -20 20 -22 34 -11 14 12 16 11 16 -7 0 -58 41 -73 59 -21 9 27 14 30 33 24 41 -13 108 -18 108 -7 0 17 -51 52 -76 52 -12 0 -34 -4 -47 -9 -24 -9 -28 -7 -94 49 -14 12 -25 11 -76 -2z"/> <path d="M5261 11086 c-15 -8 -20 -16 -13 -20 15 -9 54 12 47 25 -7 11 -5 11 -34 -5z"/> <path d="M5946 11039 c-8 -12 -13 -26 -10 -31 8 -12 49 16 49 32 0 23 -22 22 -39 -1z"/> <path d="M6552 11043 c4 -21 33 -25 33 -3 0 8 -8 16 -18 18 -14 3 -18 -1 -15 -15z"/> <path d="M6681 11008 c-12 -19 -11 -23 9 -38 21 -16 21 -17 4 -34 -14 -14 -15 -22 -6 -36 6 -11 9 -40 5 -74 -7 -64 1 -69 41 -27 27 28 27 30 12 59 -31 61 -16 90 44 87 35 -3 95 -28 105 -46 4 -5 15 -9 26 -9 46 0 242 -141 237 -169 -2 -9 -16 -20 -31 -26 -23 -7 -30 -6 -38 6 -11 20 -43 33 -137 55 -59 14 -76 22 -85 41 -12 27 -14 27 -61 8 -38 -16 -47 -40 -18 -49 9 -3 30 -17 46 -31 16 -14 41 -25 56 -25 16 0 30 -7 34 -16 5 -13 17 -14 71 -9 56 6 66 5 71 -10 5 -11 14 -15 30 -11 16 4 26 1 33 -11 8 -15 12 -16 22 -5 7 6 23 12 35 12 29 0 31 4 35 69 l4 54 -45 24 c-24 13 -47 27 -50 31 -14 19 -111 93 -136 105 -28 12 -64 33 -114 67 -15 10 -56 19 -105 23 -75 7 -81 6 -94 -15z"/> <path d="M6570 10958 c0 -6 7 -20 16 -30 16 -17 18 -17 40 8 13 14 24 27 24 30 0 2 -18 4 -40 4 -24 0 -40 -5 -40 -12z"/> <path d="M7404 10639 c-8 -14 11 -33 25 -25 6 4 11 11 11 16 0 13 -29 20 -36 9z"/> <path d="M2078 10580 l-28 -28 33 -6 c26 -5 36 -2 50 15 38 47 -11 64 -55 19z"/> <path d="M2195 10479 c-10 -15 1 -23 20 -15 9 3 13 10 10 16 -8 13 -22 13 -30 -1z"/> <path d="M2110 10410 c0 -13 48 -36 56 -27 4 3 4 13 1 22 -7 17 -57 21 -57 5z"/> <path d="M1851 10349 c-28 -29 -51 -60 -51 -71 0 -12 -9 -20 -28 -24 -16 -3 -50 -26 -78 -51 -27 -25 -61 -50 -76 -55 -30 -11 -38 -45 -13 -54 19 -8 111 43 151 83 18 18 44 35 58 39 28 7 33 23 14 42 -9 9 -9 12 4 12 19 0 108 94 108 115 0 30 -40 14 -89 -36z"/> <path d="M7740 10263 c0 -5 7 -17 15 -27 11 -15 18 -17 26 -9 16 16 3 43 -21 43 -11 0 -20 -3 -20 -7z"/> <path d="M7768 10123 c-26 -4 -45 -33 -34 -52 3 -5 -1 -14 -9 -21 -20 -17 -19 -53 3 -73 17 -15 20 -15 41 -1 20 14 22 22 17 58 -5 29 -2 47 8 61 17 22 20 36 9 34 -5 -1 -20 -4 -35 -6z"/> <path d="M1557 10031 c-35 -37 -48 -71 -27 -71 12 0 72 88 68 101 -2 5 -20 -8 -41 -30z"/> <path d="M8002 10043 c4 -34 48 -48 48 -16 0 22 -18 43 -38 43 -9 0 -12 -9 -10 -27z"/> <path d="M1715 10040 c-11 -4 -28 -17 -38 -27 -15 -18 -16 -22 -2 -33 19 -16 40 -8 61 25 19 30 9 47 -21 35z"/> <path d="M3714 9945 c-15 -24 -16 -28 -2 -42 10 -9 24 -13 36 -8 19 5 20 9 10 33 -19 43 -25 46 -44 17z"/> <path d="M2500 9950 c0 -6 -12 -15 -27 -21 -16 -5 -50 -21 -76 -35 -28 -14 -56 -22 -67 -19 -15 5 -19 0 -22 -22 -2 -20 -12 -33 -35 -44 -40 -20 -83 -60 -83 -77 0 -24 27 -23 77 3 28 14 54 25 57 25 5 0 63 40 121 85 11 9 36 24 55 34 41 22 51 55 21 71 -15 7 -21 7 -21 0z"/> <path d="M3230 9935 c-5 -14 -14 -25 -19 -25 -6 0 -18 -14 -26 -30 -9 -17 -27 -35 -41 -40 -13 -5 -29 -21 -34 -34 -12 -32 -36 -47 -143 -91 -74 -30 -101 -35 -170 -36 -96 -1 -132 -9 -132 -29 0 -20 155 -36 205 -22 19 6 75 21 124 34 89 24 90 25 105 66 11 31 21 42 37 42 22 0 54 28 54 49 0 6 7 14 15 17 8 4 15 12 15 19 0 7 9 24 20 38 21 27 27 67 10 67 -6 0 -15 -11 -20 -25z"/> <path d="M4670 9930 c0 -33 24 -50 42 -32 8 8 6 18 -6 36 -22 35 -36 33 -36 -4z"/> <path d="M1617 9944 c-11 -11 -8 -74 3 -74 6 0 13 7 16 15 7 18 -9 69 -19 59z"/> <path d="M4815 9880 c-4 -6 -4 -29 0 -51 8 -47 30 -59 115 -65 30 -2 69 -5 85 -6 26 -3 30 0 30 22 0 24 -3 25 -75 32 -101 9 -130 21 -130 53 0 25 -14 33 -25 15z"/> <path d="M4540 9855 c0 -8 7 -15 16 -15 14 0 14 3 4 15 -7 8 -14 15 -16 15 -2 0 -4 -7 -4 -15z"/> <path d="M5530 9860 c-26 -17 2 -45 49 -48 38 -3 41 -1 41 21 0 35 -53 50 -90 27z"/> <path d="M3450 9831 c0 -12 6 -21 15 -21 8 0 15 4 15 9 0 5 -7 14 -15 21 -13 10 -15 9 -15 -9z"/> <path d="M1204 9806 c-23 -13 -51 -26 -63 -29 -26 -6 -27 -23 -3 -36 12 -6 29 -4 57 10 22 10 50 18 61 19 14 0 24 8 27 22 7 25 8 24 -18 31 -11 3 -38 -5 -61 -17z"/> <path d="M5880 9800 c0 -11 5 -20 10 -20 6 0 10 9 10 20 0 11 -4 20 -10 20 -5 0 -10 -9 -10 -20z"/> <path d="M4185 9790 c-4 -6 7 -10 24 -10 17 0 31 5 31 10 0 6 -11 10 -24 10 -14 0 -28 -4 -31 -10z"/> <path d="M5392 9778 c2 -13 8 -23 13 -23 6 0 11 10 13 23 2 15 -2 22 -13 22 -11 0 -15 -7 -13 -22z"/> <path d="M4027 9764 c-12 -12 36 -74 58 -74 6 0 4 4 -3 9 -12 7 -19 27 -21 59 -1 12 -23 17 -34 6z"/> <path d="M5956 9761 c-7 -11 11 -63 25 -72 6 -3 12 -19 14 -34 1 -15 10 -32 18 -37 9 -4 35 -24 59 -43 24 -19 68 -54 98 -77 30 -23 62 -49 70 -58 27 -30 127 -90 148 -90 12 0 29 -11 38 -25 9 -14 27 -28 40 -31 13 -3 42 -30 65 -60 27 -35 49 -54 63 -54 11 -1 32 -7 46 -15 18 -9 29 -10 38 -3 13 12 16 10 119 -84 28 -27 58 -48 66 -48 8 0 20 -7 27 -15 8 -9 17 -12 22 -7 10 10 0 42 -13 42 -5 0 -18 19 -30 42 -27 52 -119 145 -151 152 -12 3 -43 9 -68 14 -38 6 -45 11 -45 31 -1 25 -17 37 -89 63 -27 10 -55 26 -62 36 -8 12 -30 22 -56 25 -35 4 -51 14 -85 51 -23 25 -48 46 -57 46 -8 0 -25 13 -37 30 -13 16 -37 35 -56 41 -25 8 -33 16 -33 35 0 15 -7 27 -17 30 -51 16 -104 46 -100 57 3 7 8 20 12 29 5 13 0 20 -20 28 -33 12 -42 13 -49 1z"/> <path d="M1240 9721 c0 -10 6 -24 14 -30 12 -10 17 -8 26 9 13 25 6 40 -21 40 -12 0 -19 -7 -19 -19z"/> <path d="M1390 9691 c0 -27 19 -36 37 -18 18 18 9 37 -18 37 -12 0 -19 -7 -19 -19z"/> <path d="M8126 9702 c-3 -6 -1 -14 5 -17 15 -10 25 3 12 16 -7 7 -13 7 -17 1z"/> <path d="M2055 9664 c-14 -22 -15 -28 -4 -35 21 -13 25 -11 44 17 14 22 15 28 4 35 -21 13 -25 11 -44 -17z"/> <path d="M4582 9648 c-20 -20 -14 -30 16 -26 16 2 27 9 27 18 0 19 -27 24 -43 8z"/> <path d="M6840 9630 c0 -5 7 -10 15 -10 8 0 15 5 15 10 0 6 -7 10 -15 10 -8 0 -15 -4 -15 -10z"/> <path d="M1052 9593 c-18 -20 -21 -28 -11 -39 17 -21 29 -17 29 11 0 16 6 25 15 25 8 0 15 7 15 15 0 22 -22 17 -48 -12z"/> <path d="M4100 9605 c0 -17 -65 -22 -75 -5 -9 15 -35 12 -35 -5 0 -19 41 -29 90 -21 38 6 70 -10 70 -35 0 -5 20 -9 44 -9 26 0 48 -6 56 -15 14 -17 96 -20 120 -5 13 9 12 13 -5 26 -14 11 -33 14 -68 10 -42 -4 -51 -2 -81 24 -52 46 -116 65 -116 35z"/> <path d="M2483 9588 c2 -7 12 -13 22 -13 10 0 20 6 23 13 2 7 -6 12 -23 12 -17 0 -25 -5 -22 -12z"/> <path d="M5522 9587 c-8 -10 -5 -20 14 -40 25 -27 54 -36 54 -17 0 6 -7 24 -15 40 -17 32 -36 38 -53 17z"/> <path d="M2210 9545 c-6 -8 -9 -19 -6 -24 4 -5 0 -14 -9 -18 -12 -7 -11 -13 11 -36 13 -15 28 -27 32 -28 4 0 26 -2 49 -5 25 -3 44 0 48 7 10 15 -13 29 -46 29 -14 0 -34 9 -44 20 -17 19 -17 21 -2 38 17 19 14 32 -8 32 -7 0 -18 -7 -25 -15z"/> <path d="M1522 9533 c2 -10 14 -19 26 -21 19 -3 23 1 20 15 -2 10 -14 19 -26 21 -19 3 -23 -1 -20 -15z"/> <path d="M1080 9527 c0 -8 9 -22 20 -32 18 -16 20 -16 26 -1 3 9 4 23 0 31 -7 19 -46 20 -46 2z"/> <path d="M3853 9533 c-22 -8 -14 -23 13 -23 15 0 24 5 22 12 -5 14 -18 18 -35 11z"/> <path d="M1957 9485 c-10 -14 -24 -25 -31 -25 -27 0 -105 -41 -110 -58 -3 -9 -8 -33 -11 -52 -5 -32 -3 -37 26 -53 38 -21 47 -16 29 18 -12 22 -11 29 6 52 21 27 96 73 120 73 20 0 25 16 14 44 -12 32 -20 32 -43 1z"/> <path d="M780 9450 c0 -5 4 -10 8 -10 5 0 29 -20 53 -43 50 -50 93 -66 103 -40 8 21 1 27 -51 42 -25 7 -43 18 -43 26 0 16 -6 20 -42 29 -17 4 -28 2 -28 -4z"/> <path d="M1662 9388 c-14 -14 -16 -38 -4 -38 10 0 42 33 42 43 0 11 -25 8 -38 -5z"/> <path d="M980 9281 c0 -11 4 -22 9 -25 11 -7 23 22 15 35 -9 16 -24 10 -24 -10z"/> <path d="M480 9252 c0 -5 9 -17 21 -28 21 -19 21 -19 18 6 -4 23 -39 43 -39 22z"/> <path d="M665 9229 c-9 -17 -14 -34 -10 -37 3 -3 8 4 11 16 4 12 15 24 25 27 22 7 25 25 4 25 -8 0 -22 -14 -30 -31z"/> <path d="M1443 9225 c-3 -9 -3 -18 -1 -21 9 -9 38 8 38 22 0 19 -29 18 -37 -1z"/> <path d="M1691 9190 c-26 -51 -27 -70 -1 -70 15 0 22 9 27 30 3 18 15 35 31 43 34 17 33 31 -4 35 -28 3 -34 -2 -53 -38z"/> <path d="M1615 9101 c-7 -12 12 -24 25 -16 11 7 4 25 -10 25 -5 0 -11 -4 -15 -9z"/> <path d="M440 9061 c0 -29 21 -57 33 -44 11 11 8 48 -5 61 -19 19 -28 14 -28 -17z"/> <path d="M7024 9065 c-8 -20 4 -35 27 -35 22 0 23 4 9 31 -13 23 -28 25 -36 4z"/> <path d="M1025 9049 c-12 -19 5 -23 22 -6 16 16 16 17 1 17 -9 0 -20 -5 -23 -11z"/> <path d="M1070 9033 c1 -18 18 -35 24 -24 4 6 4 16 1 21 -7 12 -25 13 -25 3z"/> <path d="M640 8945 c0 -8 7 -15 15 -15 8 0 15 7 15 15 0 8 -7 15 -15 15 -8 0 -15 -7 -15 -15z"/> <path d="M1830 8945 c-7 -9 -10 -18 -7 -21 6 -7 47 18 47 28 0 14 -27 9 -40 -7z"/> <path d="M7206 8875 c-21 -22 -20 -32 5 -46 26 -14 42 0 37 32 -4 29 -21 34 -42 14z"/> <path d="M1696 8862 c-8 -14 23 -52 44 -52 10 0 22 -5 25 -10 4 -6 25 -20 47 -31 33 -17 55 -20 112 -17 60 3 78 9 119 37 26 18 47 37 47 42 0 16 -66 10 -113 -11 -58 -26 -140 -19 -212 19 -27 14 -53 27 -57 29 -3 2 -9 -1 -12 -6z"/> <path d="M7407 8723 c-16 -15 -5 -33 19 -33 20 0 25 4 20 16 -3 9 -6 18 -6 20 0 7 -26 5 -33 -3z"/> <path d="M1957 8703 c-11 -10 -8 -20 8 -27 21 -8 45 3 45 20 0 14 -41 20 -53 7z"/> <path d="M2076 8682 c-3 -3 -3 -9 0 -13 7 -12 54 -12 54 0 0 10 -47 21 -54 13z"/> <path d="M8417 8684 c-10 -11 -9 -72 2 -79 10 -5 41 21 41 35 0 15 -35 51 -43 44z"/> <path d="M7437 8638 c-4 -12 -4 -33 0 -46 5 -23 7 -22 19 14 7 21 11 41 8 46 -9 15 -22 8 -27 -14z"/> <path d="M67 8569 c-15 -17 -27 -37 -27 -45 0 -8 24 -38 53 -68 65 -66 97 -109 97 -130 0 -9 10 -20 23 -25 13 -5 29 -16 36 -25 19 -23 46 -20 58 7 10 21 31 31 111 52 18 5 22 13 22 44 0 20 5 42 12 49 9 9 7 12 -9 12 -12 0 -23 8 -26 20 -3 11 -17 24 -32 30 -15 6 -39 19 -53 30 -13 11 -32 20 -41 20 -9 0 -43 14 -76 30 -79 39 -113 39 -148 -1z m152 -61 c28 -30 36 -33 86 -32 44 1 55 -2 55 -14 0 -8 7 -23 16 -33 15 -17 13 -21 -22 -63 -21 -25 -44 -46 -51 -46 -24 0 -89 92 -105 147 -6 22 -17 34 -38 42 -38 13 -39 31 -1 31 21 0 39 -10 60 -32z"/> <path d="M7426 8512 c-2 -4 -1 -14 5 -22 5 -8 9 -24 9 -35 0 -20 89 -99 99 -89 3 2 -1 10 -7 16 -7 7 -12 30 -12 53 0 22 -5 47 -10 55 -8 13 -11 12 -24 -5 -14 -20 -15 -19 -25 8 -10 27 -25 35 -35 19z"/> <path d="M5626 8365 c-11 -8 -17 -17 -14 -20 9 -9 60 14 53 25 -8 13 -16 12 -39 -5z"/> <path d="M467 8344 c-4 -4 -7 -17 -7 -29 0 -18 4 -21 26 -17 19 3 24 10 22 26 -3 21 -28 33 -41 20z"/> <path d="M5846 8323 c-11 -11 -6 -23 9 -23 8 0 15 4 15 9 0 13 -16 22 -24 14z"/> <path d="M7546 8304 c-9 -24 -7 -67 4 -84 9 -13 13 -11 31 9 11 13 17 31 14 38 -3 8 -5 23 -5 34 0 23 -35 26 -44 3z"/> <path d="M15 8300 c-4 -6 0 -21 8 -34 11 -16 14 -40 10 -87 -4 -50 -1 -73 15 -108 18 -39 19 -48 7 -71 -11 -21 -11 -31 0 -56 15 -36 30 -40 190 -53 100 -8 203 -38 237 -68 13 -12 14 -20 6 -45 -14 -39 1 -53 52 -52 34 1 41 -2 46 -22 7 -27 22 -34 52 -23 32 12 30 60 -4 94 -16 16 -23 32 -20 42 4 10 -8 28 -36 54 -40 36 -42 39 -28 63 18 35 3 50 -47 49 -21 -1 -46 3 -56 8 -9 6 -22 7 -28 3 -14 -8 29 -54 52 -54 10 0 21 -4 24 -10 9 -14 -13 -12 -76 6 -83 24 -89 36 -45 77 42 40 49 74 14 62 -88 -28 -191 -4 -238 55 -27 35 -28 37 -9 48 10 7 26 12 34 12 8 0 15 5 15 10 0 6 10 15 23 20 22 9 22 9 1 9 -12 1 -27 -6 -34 -14 -15 -19 -21 -19 -46 -1 -18 14 -18 15 9 25 31 12 35 29 10 37 -10 4 -32 12 -50 20 -37 17 -79 18 -88 4z m290 -308 c14 -4 6 -9 -30 -20 -86 -24 -104 -25 -130 -8 -14 9 -23 21 -19 27 6 10 140 11 179 1z"/> <path d="M6170 8290 c-12 -8 -12 -10 3 -16 9 -3 25 -3 34 0 15 6 15 8 3 16 -8 6 -17 10 -20 10 -3 0 -12 -4 -20 -10z"/> <path d="M371 8214 c15 -19 -1 -33 -41 -35 -14 -1 -32 -2 -42 -3 -28 -2 -33 -16 -5 -16 14 0 37 -5 51 -11 34 -16 70 -4 84 26 16 35 5 55 -30 55 -27 0 -29 -2 -17 -16z"/> <path d="M6055 8171 c-3 -5 -1 -12 4 -16 13 -8 61 5 61 16 0 12 -57 12 -65 0z"/> <path d="M2683 8124 c-33 -14 -5 -24 69 -24 49 0 78 4 73 9 -12 11 -125 22 -142 15z"/> <path d="M2575 8110 c-3 -5 3 -10 15 -10 12 0 18 5 15 10 -3 6 -10 10 -15 10 -5 0 -12 -4 -15 -10z"/> <path d="M7854 8106 c-4 -9 -4 -20 0 -23 3 -4 12 -1 18 5 9 9 9 15 0 24 -9 9 -13 7 -18 -6z"/> <path d="M7916 8101 c-7 -11 20 -48 29 -39 9 8 -4 48 -15 48 -5 0 -11 -4 -14 -9z"/> <path d="M6322 8078 c5 -15 158 -24 158 -10 0 14 -37 22 -103 22 -43 0 -58 -3 -55 -12z"/> <path d="M6525 8070 c3 -5 12 -10 20 -10 8 0 17 5 20 10 4 6 -5 10 -20 10 -15 0 -24 -4 -20 -10z"/> <path d="M8313 8035 c-3 -9 -3 -18 0 -21 7 -8 47 15 47 26 0 16 -40 11 -47 -5z"/> <path d="M7927 8005 c-10 -14 -15 -30 -12 -35 9 -15 22 -12 28 8 2 9 8 25 12 35 11 25 -7 20 -28 -8z"/> <path d="M2410 7940 c0 -30 46 -38 71 -12 10 12 19 24 19 27 0 3 -20 5 -45 5 -38 0 -45 -3 -45 -20z"/> <path d="M2611 7911 c-24 -15 -1 -31 45 -31 47 0 59 14 22 25 -48 14 -53 14 -67 6z"/> <path d="M2208 7870 c-15 -11 -36 -20 -47 -20 -12 0 -21 -4 -21 -9 0 -15 29 -21 53 -11 12 5 39 11 60 15 23 4 37 11 37 20 0 8 -6 15 -14 15 -8 0 -21 2 -28 5 -8 3 -26 -3 -40 -15z"/> <path d="M7857 7823 c-13 -12 -7 -69 9 -91 11 -16 15 -37 12 -65 -3 -23 1 -53 8 -67 7 -14 15 -33 18 -43 11 -35 31 -11 37 44 10 94 -2 151 -43 192 -19 20 -38 34 -41 30z"/> <path d="M8427 7794 c-29 -16 -36 -41 -12 -50 10 -4 15 -21 15 -53 0 -38 7 -54 36 -91 20 -25 42 -49 50 -53 18 -10 18 -37 -1 -37 -8 0 -29 13 -47 29 -61 53 -98 46 -98 -19 0 -13 -10 -24 -27 -31 -27 -10 -28 -11 -8 -25 59 -44 134 -72 184 -71 60 3 72 14 69 72 -1 22 4 50 11 63 10 19 9 28 -3 54 -9 17 -16 41 -16 54 0 12 -16 41 -35 64 -19 23 -35 48 -35 55 0 8 -12 22 -28 33 -25 18 -30 19 -55 6z"/> <path d="M8352 7732 c-33 -5 -38 -29 -12 -57 12 -13 23 -39 25 -57 4 -52 18 -38 23 22 4 70 -6 96 -36 92z"/> <path d="M579 7620 c-9 -5 -39 -12 -65 -14 -68 -6 -211 -33 -225 -42 -7 -4 -40 -10 -73 -13 -52 -5 -61 -9 -61 -26 0 -19 6 -20 97 -17 93 3 97 3 113 -21 30 -46 88 -58 279 -57 105 1 126 -50 52 -125 -24 -24 -47 -53 -51 -65 -5 -16 -12 -19 -28 -14 -53 17 -117 -2 -117 -35 0 -10 -7 -24 -15 -31 -24 -20 -19 -57 9 -64 41 -10 87 4 97 30 4 13 17 24 27 24 29 0 72 -24 72 -40 0 -8 7 -24 15 -34 9 -12 15 -41 15 -71 0 -40 6 -59 26 -86 24 -32 26 -39 20 -117 -4 -66 -2 -84 9 -88 21 -9 50 -102 50 -166 0 -44 5 -61 22 -80 12 -13 29 -41 38 -62 9 -21 28 -56 42 -77 19 -29 26 -53 27 -92 1 -46 4 -53 29 -65 17 -8 27 -21 27 -35 0 -29 27 -116 41 -133 17 -20 79 -125 79 -134 0 -4 8 -14 18 -23 28 -26 86 -143 79 -161 -11 -27 -54 -37 -136 -30 l-77 7 -56 -42 c-36 -28 -62 -56 -74 -84 -10 -23 -31 -60 -47 -82 -37 -55 -48 -125 -63 -428 -5 -99 -3 -148 10 -220 28 -152 47 -240 62 -282 8 -23 14 -50 14 -62 0 -11 14 -48 30 -81 16 -34 30 -65 30 -71 0 -5 6 -16 13 -23 18 -18 46 -67 101 -172 26 -48 58 -103 71 -121 14 -17 25 -35 25 -40 0 -29 245 -294 312 -338 15 -9 41 -17 57 -17 24 0 43 -13 92 -65 34 -35 78 -72 98 -81 20 -9 43 -22 51 -29 18 -14 89 -35 119 -35 30 0 27 33 -9 87 -16 24 -30 50 -30 58 0 25 -48 147 -64 164 -15 14 -16 13 -16 -15 0 -17 -10 -46 -23 -65 -21 -30 -28 -34 -63 -31 -58 4 -88 30 -91 79 -2 30 3 45 17 58 21 19 27 55 9 55 -5 0 -34 -23 -64 -51 l-54 -51 -36 51 c-20 28 -41 51 -47 51 -13 0 -78 68 -78 81 0 6 -9 9 -20 6 -23 -6 -27 15 -6 32 11 10 16 8 21 -8 4 -14 15 -21 33 -21 16 0 32 -8 40 -20 12 -20 56 -28 66 -11 4 5 0 26 -6 47 -10 29 -24 42 -63 63 -175 91 -248 149 -261 206 -3 17 -17 50 -30 74 -13 24 -24 50 -24 57 0 8 -11 32 -25 54 -15 23 -25 54 -25 75 0 20 -8 52 -19 73 -10 20 -21 54 -24 74 -3 20 -16 51 -29 68 -18 25 -23 45 -23 91 0 38 -5 63 -13 68 -10 6 -14 45 -15 147 -1 150 14 257 44 315 10 20 19 47 19 59 0 27 17 60 32 60 7 0 23 -10 36 -22 l24 -23 19 24 c10 13 19 29 19 35 0 23 -40 55 -77 62 -50 9 -95 32 -90 47 2 6 26 20 53 30 27 10 61 25 76 33 14 8 39 14 55 14 15 0 37 7 47 15 30 22 43 18 56 -17 20 -55 47 -236 55 -361 4 -67 13 -134 22 -154 8 -22 12 -49 9 -67 -5 -22 2 -45 24 -87 16 -32 30 -68 30 -79 0 -12 21 -64 46 -116 29 -58 44 -102 41 -115 -6 -24 31 -118 47 -120 6 -1 18 -2 26 -3 9 0 16 -13 18 -31 2 -16 10 -57 19 -90 8 -33 16 -96 17 -140 3 -73 5 -80 24 -83 12 -2 24 -13 28 -25 9 -29 43 -77 55 -77 21 0 4 123 -23 165 -3 6 -14 46 -22 89 -9 43 -23 88 -31 100 -8 11 -15 29 -15 39 0 10 -6 28 -14 40 -8 12 -19 47 -26 77 -7 30 -18 67 -26 81 -8 15 -21 59 -29 99 -8 39 -19 80 -25 90 -5 10 -21 64 -35 120 -13 56 -33 126 -45 157 -11 30 -25 83 -30 117 -31 202 -50 390 -48 465 1 47 -6 147 -15 221 -9 74 -18 207 -21 295 -5 163 -20 240 -47 240 -18 0 -29 -58 -24 -130 3 -52 -6 -128 -21 -174 -7 -21 -51 51 -57 95 -19 126 -22 133 -69 148 -10 3 -20 20 -24 43 -3 21 -12 45 -19 53 -7 8 -18 49 -24 90 -7 41 -17 81 -24 90 -23 27 -47 89 -41 105 4 8 1 22 -6 30 -6 7 -10 22 -8 32 1 10 -1 24 -5 31 -5 8 1 24 17 43 14 17 26 35 26 41 0 12 -49 -17 -68 -41 -12 -15 -14 -14 -28 3 -21 29 -18 73 6 81 12 4 20 15 20 29 0 12 11 33 25 46 17 16 22 27 15 34 -5 5 -10 18 -10 28 0 10 -4 18 -10 18 -5 0 -10 -6 -10 -14 0 -8 -4 -26 -10 -40 l-9 -26 -26 26 c-25 25 -33 68 -15 79 15 9 12 25 -5 25 -24 0 -27 42 -6 91 19 43 19 48 5 104 -9 33 -18 76 -21 96 -5 34 -9 38 -61 58 -56 20 -56 20 -74 1 -36 -39 -199 -18 -185 23 2 7 40 12 101 13 54 1 102 6 108 12 6 6 -2 20 -24 41 -35 33 -44 36 -69 21z m207 -569 c-19 -30 -55 1 -42 36 6 15 9 15 28 -4 11 -12 17 -26 14 -32z m114 -457 c0 -47 -12 -57 -30 -25 -11 22 -14 74 -3 84 14 15 33 -18 33 -59z m430 -1605 c0 -11 -4 -17 -10 -14 -5 3 -10 13 -10 21 0 8 5 14 10 14 6 0 10 -9 10 -21z m-449 -352 c-8 -8 -11 -4 -11 14 0 33 14 47 18 19 2 -12 -1 -27 -7 -33z"/> <path d="M7923 7450 c-22 -25 -33 -48 -33 -69 0 -31 14 -42 23 -18 3 9 7 9 17 0 9 -9 7 -18 -11 -43 -22 -28 -39 -119 -39 -200 0 -54 21 -295 35 -395 9 -66 20 -192 25 -280 6 -88 15 -189 20 -225 6 -41 7 -206 3 -445 -9 -509 -8 -584 6 -598 10 -9 15 -8 26 7 16 21 45 141 45 184 0 16 7 45 15 65 10 25 13 56 9 113 -10 137 -7 208 8 254 30 89 31 118 6 143 -23 22 -24 26 -26 251 -2 130 -7 237 -13 247 -13 26 -3 39 30 39 15 0 46 9 68 20 23 11 79 24 125 29 71 8 86 7 101 -7 13 -11 20 -13 29 -4 18 18 0 60 -35 77 -59 29 -118 89 -128 131 -23 90 -24 84 10 84 37 0 89 -50 117 -112 18 -40 38 -47 75 -28 29 16 23 38 -18 73 -20 18 -57 51 -82 75 -25 24 -56 48 -68 53 -13 4 -23 15 -23 24 0 8 -4 15 -10 15 -5 0 -13 1 -17 3 -20 7 -53 -207 -34 -226 19 -19 13 -47 -9 -47 -13 0 -24 -10 -30 -24 -15 -42 -52 -59 -97 -47 l-39 11 -13 130 c-6 72 -16 141 -20 153 -5 13 -7 44 -4 69 3 25 0 61 -6 80 -9 27 -8 42 3 69 9 24 13 71 11 159 -1 69 2 136 7 148 8 23 -8 103 -21 101 -3 0 -21 -18 -38 -39z m20 -283 c7 -19 -8 -41 -22 -33 -16 10 -14 46 3 46 8 0 16 -6 19 -13z"/> <path d="M8277 7393 c-19 -19 -5 -72 30 -112 35 -42 36 -45 37 -127 1 -79 -5 -102 -17 -70 -6 16 -61 26 -79 15 -17 -10 6 -59 28 -59 31 0 7 -25 -27 -28 -51 -5 -61 -22 -12 -22 25 0 46 -6 54 -16 7 -9 22 -14 36 -11 13 2 23 0 23 -5 0 -5 18 -28 40 -50 42 -45 47 -57 28 -76 -9 -9 -3 -20 26 -47 42 -40 61 -44 76 -16 12 24 13 78 1 85 -4 3 -14 26 -21 51 -10 36 -10 48 0 60 19 23 5 83 -23 105 -14 11 -28 32 -31 47 -4 16 -9 35 -12 44 -8 29 24 29 91 2 60 -25 65 -25 89 -10 39 26 24 54 -32 62 -63 9 -162 66 -198 112 -15 20 -36 45 -46 55 -18 18 -49 24 -61 11z"/> <path d="M6059 7215 c-3 -2 -57 -9 -120 -15 -63 -5 -136 -17 -163 -25 -26 -8 -52 -12 -57 -9 -15 9 -49 -16 -49 -37 0 -19 -4 -20 -34 -15 -28 5 -34 3 -39 -14 -5 -21 -27 -28 -27 -10 0 17 -71 0 -102 -23 -16 -12 -28 -24 -28 -27 0 -4 -18 -26 -41 -50 -55 -58 -65 -87 -41 -119 10 -13 25 -28 33 -32 31 -16 120 -39 153 -39 19 0 46 -5 60 -11 14 -7 33 -9 42 -5 16 6 16 8 1 23 -9 9 -35 19 -59 22 -39 6 -43 9 -54 46 -7 22 -13 32 -13 23 -1 -26 -19 -31 -31 -8 -14 27 -4 60 19 60 9 0 29 19 44 43 19 30 40 47 73 61 43 17 47 18 62 2 11 -10 19 -42 23 -84 10 -97 40 -173 78 -196 46 -27 348 -37 386 -12 17 11 25 26 25 44 0 15 7 38 16 50 12 17 14 35 9 72 -4 28 -11 50 -16 50 -5 0 -18 -18 -29 -40 -12 -23 -31 -45 -45 -50 -13 -5 -26 -18 -30 -29 -4 -12 -18 -23 -33 -26 -15 -3 -47 -10 -71 -16 -39 -9 -48 -7 -73 11 -16 12 -43 20 -66 20 -29 0 -45 7 -64 28 -23 25 -26 34 -24 104 1 57 6 82 18 94 23 23 249 54 285 39 10 -4 34 -7 54 -6 45 3 73 -24 46 -44 -21 -15 -21 -25 -3 -50 12 -16 16 -17 30 -6 9 7 16 24 16 38 0 52 38 81 68 51 6 -6 35 -13 63 -14 32 -2 62 -10 78 -22 14 -10 47 -22 74 -26 35 -5 47 -12 47 -25 0 -24 -58 -73 -143 -120 -83 -47 -156 -106 -144 -117 4 -5 22 -2 40 5 18 8 50 16 72 18 22 3 51 15 65 27 14 12 42 29 63 39 20 9 37 23 37 30 0 20 33 47 59 47 12 0 35 7 51 15 26 13 36 13 92 -1 34 -9 85 -16 113 -16 27 0 57 -4 67 -9 9 -5 28 -5 45 0 15 5 45 12 66 16 32 5 38 10 35 28 -3 21 -14 29 -91 61 -29 12 -43 14 -58 6 -21 -12 -101 -7 -198 10 -99 17 -111 23 -223 110 -27 21 -75 30 -268 50 -98 10 -165 12 -171 5z"/> <path d="M1180 7065 c-10 -12 -13 -54 -13 -149 0 -124 2 -135 22 -157 l23 -24 -2 90 c0 50 -1 99 -1 110 -1 11 -2 46 -3 77 -1 64 -7 76 -26 53z"/> <path d="M5957 6943 c-15 -14 -6 -23 23 -23 20 0 30 5 30 15 0 15 -40 21 -53 8z"/> <path d="M2795 6892 c-84 -19 -194 -51 -230 -67 -16 -8 -41 -15 -54 -17 -13 -2 -29 -12 -35 -23 -14 -26 -24 -33 -62 -44 -16 -4 -50 -21 -75 -37 -24 -16 -66 -34 -94 -42 -27 -7 -101 -38 -163 -69 -111 -54 -113 -56 -110 -87 3 -29 5 -31 38 -28 19 2 55 9 80 17 61 19 206 45 252 45 39 0 82 -15 110 -38 9 -7 42 -20 73 -28 32 -9 67 -22 79 -29 24 -16 155 -31 181 -21 31 12 -2 33 -58 38 -57 5 -118 29 -157 63 -30 26 -105 55 -143 55 -31 0 -31 0 -15 35 7 15 30 36 52 47 23 11 70 40 105 65 60 42 64 43 87 28 29 -19 53 -19 78 0 28 21 174 68 191 61 9 -3 27 0 40 6 20 9 41 8 93 -2 81 -15 99 -24 107 -50 7 -22 35 -28 35 -7 0 18 32 47 52 47 16 0 76 -26 143 -63 34 -19 40 -27 43 -60 3 -35 2 -37 -26 -37 -22 0 -39 -10 -61 -35 -32 -37 -37 -50 -23 -59 11 -7 109 39 113 53 3 7 33 16 68 21 48 7 71 16 92 36 16 15 29 33 29 40 0 13 -75 84 -90 84 -5 0 -25 14 -45 31 -32 29 -42 32 -95 30 -50 -1 -61 2 -74 20 -14 20 -18 21 -60 10 -66 -16 -100 -14 -122 10 -17 19 -27 20 -154 17 -74 -2 -162 -9 -195 -16z"/> <path d="M5910 6891 c0 -14 10 -20 42 -24 23 -3 46 -3 50 -1 16 10 -3 24 -33 24 -16 0 -29 5 -29 10 0 6 -7 10 -15 10 -8 0 -15 -8 -15 -19z"/> <path d="M6717 6724 c-13 -13 -7 -24 14 -24 11 0 19 5 17 12 -5 14 -22 21 -31 12z"/> <path d="M1184 6683 c-27 -36 -34 -77 -22 -121 7 -25 6 -42 -3 -58 -11 -21 -9 -26 12 -43 41 -35 48 -28 44 48 -2 39 -9 80 -15 91 -9 17 -9 29 0 50 6 16 10 36 8 45 -2 13 -7 11 -24 -12z"/> <path d="M3174 6673 c-28 -73 -38 -87 -74 -96 -19 -5 -42 -15 -52 -24 -9 -8 -29 -13 -45 -11 -22 2 -28 8 -26 26 3 25 -18 30 -37 7 -7 -8 -18 -15 -25 -15 -7 0 -18 -7 -25 -15 -7 -8 -16 -15 -21 -15 -16 0 -94 82 -91 96 5 24 -28 73 -50 74 -8 0 -3 -99 7 -131 4 -13 16 -32 26 -42 11 -10 19 -29 19 -42 0 -21 5 -25 29 -25 16 0 40 -4 53 -9 39 -15 287 35 317 64 9 9 24 22 34 28 23 16 27 88 8 135 -17 42 -29 41 -47 -5z"/> <path d="M2990 6660 c-19 -19 -27 -40 -15 -40 21 0 75 32 75 44 0 23 -36 20 -60 -4z"/> <path d="M5695 6660 c-6 -10 26 -30 50 -30 8 0 44 -14 78 -32 34 -17 76 -35 92 -39 17 -4 65 -17 107 -28 61 -16 99 -19 185 -16 135 5 269 18 278 27 4 4 0 15 -9 24 -15 15 -37 16 -189 12 -168 -5 -218 -1 -302 28 -23 8 -54 14 -70 14 -43 0 -145 20 -182 36 -19 8 -35 9 -38 4z"/> <path d="M8375 6487 c-4 -10 0 -32 9 -51 21 -44 20 -48 -9 -76 -14 -13 -25 -29 -25 -35 0 -7 -9 -20 -20 -30 -11 -10 -20 -26 -20 -35 0 -10 -7 -23 -15 -30 -20 -17 -19 -24 9 -51 22 -22 23 -25 10 -51 -18 -35 -18 -57 2 -79 9 -10 20 -47 24 -86 7 -62 39 -175 60 -213 7 -12 11 -9 19 13 13 32 31 27 31 -8 0 -13 5 -27 10 -30 6 -3 10 -22 10 -41 0 -20 5 -44 11 -56 8 -15 6 -53 -7 -149 -15 -109 -15 -134 -4 -168 15 -46 12 -67 -30 -216 -18 -60 -34 -126 -37 -145 -3 -19 -12 -39 -19 -43 -8 -4 -14 -17 -14 -28 0 -31 -40 -95 -97 -158 -29 -31 -53 -63 -53 -72 0 -9 -7 -22 -15 -29 -24 -20 -47 -77 -41 -98 5 -14 -2 -27 -24 -46 -36 -30 -36 -30 -78 -15 -26 9 -34 20 -51 72 -12 33 -21 71 -21 83 0 13 -5 26 -11 30 -16 9 -30 -17 -22 -41 4 -11 7 -46 8 -77 1 -33 9 -67 19 -82 9 -14 16 -33 16 -43 0 -18 -39 -69 -107 -143 -29 -30 -32 -39 -27 -72 5 -30 3 -39 -10 -44 -21 -8 -66 -95 -66 -128 0 -14 -6 -43 -14 -63 -25 -67 -39 -161 -32 -217 3 -33 2 -57 -4 -61 -5 -3 -10 -25 -10 -48 0 -24 -8 -59 -19 -79 -10 -21 -16 -48 -14 -60 4 -22 -53 -220 -82 -283 -7 -16 -27 -60 -44 -96 -17 -37 -31 -72 -31 -78 0 -6 -16 -35 -35 -65 -19 -30 -35 -60 -35 -66 0 -14 -31 -63 -47 -73 -7 -4 -13 -14 -13 -22 0 -8 -7 -18 -15 -22 -8 -5 -24 -35 -37 -68 -25 -66 -88 -175 -101 -175 -4 0 -11 10 -16 23 -8 20 -9 18 -16 -16 -5 -23 -3 -47 3 -60 29 -57 36 -229 12 -262 -14 -19 -18 -97 -9 -165 7 -49 7 -82 -2 -112 -15 -57 -14 -299 3 -344 10 -27 10 -39 0 -54 -17 -27 -15 -65 4 -80 11 -10 15 -30 14 -74 -1 -84 9 -205 20 -241 6 -17 10 -68 9 -113 -1 -68 2 -85 20 -108 12 -15 21 -34 21 -43 0 -9 15 -23 33 -32 27 -13 35 -27 52 -80 17 -57 19 -94 20 -339 0 -213 -3 -282 -14 -308 -15 -36 -37 -52 -74 -52 -14 0 -30 -7 -38 -16 -21 -25 7 -34 96 -32 l79 3 2 45 c1 25 11 110 23 190 11 80 20 177 21 217 0 60 4 76 23 98 l22 26 32 -31 c20 -20 35 -46 38 -68 4 -21 11 -58 16 -83 6 -25 9 -50 8 -55 -2 -5 1 -34 6 -64 5 -30 9 -64 10 -75 1 -11 6 -37 10 -58 5 -28 3 -44 -10 -63 -12 -19 -13 -29 -5 -38 8 -10 5 -15 -12 -19 -42 -11 -5 -26 74 -28 96 -4 112 7 80 51 -26 35 -42 98 -49 190 -3 36 -10 72 -17 80 -17 21 -51 163 -43 184 9 24 57 21 57 -3 0 -22 56 -111 70 -111 5 0 12 5 15 10 3 6 18 10 33 10 17 0 34 10 48 27 l22 28 53 -19 c113 -41 177 -76 183 -101 8 -31 20 -32 32 -4 l10 21 24 -21 c21 -17 22 -20 8 -21 -10 0 -18 -5 -18 -10 0 -18 44 -80 61 -85 9 -3 21 -16 27 -29 6 -14 21 -26 34 -28 13 -2 24 -11 26 -22 4 -21 40 -55 57 -56 7 0 10 16 8 38 l-4 37 45 -50 c25 -27 46 -59 48 -69 5 -30 53 -59 105 -63 151 -12 313 -14 313 -4 0 11 -122 71 -144 71 -6 0 -38 11 -71 25 -33 13 -79 25 -102 25 -35 0 -48 7 -84 41 -24 23 -57 63 -74 89 -16 26 -52 65 -80 85 -27 21 -69 55 -92 76 -22 21 -61 43 -85 50 -23 6 -68 20 -98 31 -30 11 -76 23 -102 27 -25 4 -52 12 -60 18 -7 6 -24 13 -38 16 -14 3 -50 14 -80 25 -87 30 -146 42 -214 42 -75 0 -76 1 -141 125 -25 50 -59 106 -74 125 -44 55 -48 69 -55 170 -3 52 -11 124 -16 160 -30 201 -42 751 -24 1120 10 186 13 198 78 281 65 82 220 378 263 501 16 46 40 112 52 148 44 125 66 233 112 535 6 39 17 104 25 146 8 42 14 84 14 94 0 10 15 38 33 64 19 25 42 67 51 93 23 59 102 140 176 178 32 17 85 70 132 134 119 162 163 241 193 351 9 33 23 83 31 110 8 28 26 91 39 140 14 50 32 115 41 145 51 181 63 299 44 432 -6 38 -12 102 -16 145 -3 42 -9 84 -15 94 -5 10 -9 48 -9 86 -1 69 -9 123 -28 178 -6 17 -18 63 -27 104 -9 41 -27 88 -39 105 -13 17 -26 43 -30 59 -5 20 -12 27 -30 27 -14 0 -26 6 -29 13 -3 8 -7 6 -12 -6z m3 -269 c7 -7 12 -29 12 -50 0 -32 5 -41 26 -50 21 -10 24 -16 19 -37 -3 -14 -13 -33 -21 -41 -12 -13 -17 -12 -36 7 -16 16 -21 33 -20 63 1 28 -3 42 -13 46 -16 6 -19 31 -9 58 7 19 25 21 42 4z m66 -225 c3 -10 6 -40 8 -67 2 -40 -2 -52 -18 -63 -20 -13 -21 -11 -27 58 -3 40 -4 76 -1 81 9 14 32 9 38 -9z m-563 -5493 c26 -14 24 -32 -3 -28 -13 2 -24 11 -26 21 -4 20 2 21 29 7z m507 -210 c35 -29 22 -44 -15 -18 -18 13 -33 26 -33 31 0 13 25 7 48 -13z m-663 -50 c-5 -16 -9 -19 -15 -10 -11 17 0 54 12 42 6 -6 7 -20 3 -32z m29 -160 c-11 -48 -25 5 -17 67 l7 58 8 -50 c4 -27 5 -61 2 -75z"/> <path d="M3095 6360 c-16 -11 -37 -20 -45 -20 -8 0 -32 -9 -53 -20 -20 -11 -50 -20 -65 -20 -16 0 -32 -3 -36 -7 -4 -4 -31 -15 -59 -24 -28 -9 -53 -21 -55 -27 -6 -18 129 -15 164 3 16 8 37 15 47 15 56 0 169 82 152 110 -9 14 -16 13 -50 -10z"/> <path d="M2420 6283 c-19 -7 -30 -24 -24 -35 9 -14 91 -9 104 7 10 12 8 16 -15 25 -29 11 -42 11 -65 3z"/> <path d="M2687 6220 c-21 -4 -43 -13 -50 -20 -10 -10 -9 -12 4 -7 9 3 37 9 63 12 25 4 46 11 46 16 0 10 -8 10 -63 -1z"/> <path d="M5550 5465 c0 -8 5 -15 10 -15 6 0 10 7 10 15 0 8 -4 15 -10 15 -5 0 -10 -7 -10 -15z"/> <path d="M1019 5285 c-8 -63 -7 -106 4 -102 15 5 22 86 8 100 -6 6 -12 7 -12 2z"/> <path d="M5103 5040 c-104 -28 -211 -136 -157 -157 8 -3 25 4 39 17 14 14 37 22 60 23 29 1 42 -6 68 -34 18 -19 52 -41 76 -49 40 -13 44 -13 57 5 8 10 14 27 14 36 0 26 19 33 40 14 22 -20 26 -14 34 45 6 40 3 49 -21 76 -24 28 -36 33 -88 37 -39 3 -81 -2 -122 -13z"/> <path d="M988 4995 c-8 -8 3 -55 13 -55 5 0 9 14 9 30 0 28 -9 38 -22 25z"/> <path d="M7956 4934 c-12 -31 -7 -84 8 -84 23 0 28 17 21 60 -7 42 -19 51 -29 24z"/> <path d="M4130 4916 c-47 -17 -65 -55 -54 -110 10 -45 40 -60 64 -31 15 18 107 21 145 3 26 -12 32 -10 108 28 16 8 35 14 43 14 21 0 17 12 -13 48 -46 55 -203 80 -293 48z"/> <path d="M5593 4793 c-22 -8 -14 -23 13 -23 15 0 24 5 22 12 -5 14 -18 18 -35 11z"/> <path d="M988 4717 c-12 -29 -10 -83 3 -70 6 6 9 28 7 49 -2 29 -5 34 -10 21z"/> <path d="M5430 4720 c-98 -8 -120 -15 -120 -40 0 -39 44 -49 153 -36 61 7 69 11 78 34 11 29 5 53 -13 50 -7 0 -51 -4 -98 -8z"/> <path d="M4066 4615 c-4 -13 -16 -14 -54 -9 -55 7 -82 -10 -82 -50 0 -51 42 -55 91 -9 23 22 29 23 48 12 32 -20 48 0 31 40 -14 34 -25 39 -34 16z"/> <path d="M1414 4145 c-15 -39 30 -62 57 -29 11 14 10 18 -6 30 -25 18 -44 18 -51 -1z"/> <path d="M1658 3983 c-9 -10 -16 -30 -16 -45 0 -15 -9 -39 -21 -54 -11 -15 -21 -32 -21 -39 0 -18 45 -45 75 -45 14 0 34 -9 46 -21 25 -25 38 -16 19 14 -8 12 -17 42 -21 67 -11 65 -26 121 -36 131 -6 6 -16 2 -25 -8z"/> <path d="M5280 3815 c0 -11 7 -15 23 -13 12 2 22 8 22 13 0 6 -10 11 -22 13 -16 2 -23 -2 -23 -13z"/> <path d="M5447 3783 c-13 -12 -7 -32 11 -37 63 -18 84 -18 80 -1 -2 12 -52 39 -84 45 0 0 -4 -3 -7 -7z"/> <path d="M5120 3615 c-14 -8 -43 -14 -65 -15 -22 0 -62 -7 -89 -15 -27 -8 -66 -15 -86 -15 -20 0 -58 -7 -85 -16 -37 -13 -52 -14 -66 -6 -14 9 -29 8 -65 -4 -29 -10 -60 -13 -84 -9 -56 10 -183 16 -280 15 -61 -1 -95 -7 -122 -21 -20 -10 -46 -19 -57 -19 -11 0 -35 -13 -53 -29 -32 -27 -283 -141 -312 -141 -8 0 -18 -5 -22 -11 -7 -12 -61 -8 -147 10 -30 7 -56 7 -72 1 -34 -13 -67 -68 -61 -102 3 -16 0 -31 -9 -38 -22 -18 -18 -30 10 -30 17 0 28 7 34 23 8 20 14 22 97 22 142 1 238 18 274 49 18 14 37 26 43 26 7 0 27 14 46 30 18 17 38 30 43 30 5 0 42 19 81 42 46 27 103 49 157 62 80 20 97 20 300 11 118 -6 229 -7 245 -3 17 5 55 12 85 18 30 5 123 23 205 41 161 34 251 39 436 27 69 -5 122 -14 151 -27 41 -17 75 -19 329 -22 269 -3 309 0 309 21 0 14 -49 37 -95 46 -22 4 -49 13 -61 21 -13 8 -47 13 -95 12 -205 -4 -312 -1 -509 14 -266 21 -376 21 -410 2z"/> <path d="M1960 3336 c0 -33 17 -76 30 -76 18 0 11 59 -10 80 -20 20 -20 20 -20 -4z"/> <path d="M2021 3165 c0 -5 6 -19 14 -29 8 -11 15 -15 15 -10 0 6 -7 19 -15 30 -8 10 -14 15 -14 9z"/> <path d="M4755 2972 c-4 -11 -8 -12 -20 -2 -11 9 -21 6 -50 -15 -19 -15 -35 -31 -35 -35 0 -7 48 -20 75 -20 7 0 15 9 18 20 7 27 29 25 78 -6 34 -21 49 -25 83 -20 64 10 71 18 50 52 -10 16 -19 31 -21 33 -1 2 -41 4 -87 5 -66 2 -87 -1 -91 -12z"/> <path d="M2176 2758 c3 -13 13 -30 20 -39 8 -8 14 -23 14 -31 0 -17 105 -160 163 -223 28 -30 37 -35 37 -22 0 24 -17 54 -47 86 -13 14 -35 50 -50 79 -14 29 -31 56 -38 60 -6 4 -25 31 -41 59 -18 34 -36 53 -47 53 -14 0 -17 -5 -11 -22z"/> <path d="M2517 2504 c-14 -15 -5 -51 27 -104 18 -30 39 -55 47 -55 22 0 22 39 -1 60 -11 10 -20 25 -20 34 -1 21 -44 74 -53 65z"/> <path d="M2462 2338 c6 -18 28 -21 28 -4 0 9 -7 16 -16 16 -9 0 -14 -5 -12 -12z"/> <path d="M2492 2293 c2 -5 10 -21 18 -38 24 -50 60 -63 60 -21 0 17 -11 30 -36 45 -37 22 -48 26 -42 14z"/> <path d="M2690 2205 c0 -8 7 -15 16 -15 14 0 14 3 4 15 -7 8 -14 15 -16 15 -2 0 -4 -7 -4 -15z"/> <path d="M2576 2133 c-8 -27 25 -261 41 -286 4 -6 12 -63 19 -126 7 -64 20 -154 29 -201 15 -85 41 -319 55 -505 10 -139 17 -165 45 -165 17 0 24 7 29 31 9 46 7 154 -4 223 -5 34 -12 132 -16 219 -5 126 -9 157 -20 157 -23 0 -27 26 -8 55 17 25 17 28 1 37 -23 12 -49 76 -41 100 3 10 -1 30 -10 43 -22 34 -20 45 9 45 20 0 25 -5 25 -24 0 -25 27 -43 43 -27 13 13 -1 51 -19 51 -10 0 -14 13 -14 45 0 31 -4 45 -13 45 -23 0 -50 37 -44 60 3 12 -1 23 -10 29 -11 6 -14 16 -10 32 4 16 -4 40 -28 80 -19 31 -35 64 -35 72 0 23 -18 30 -24 10z"/> <path d="M2702 1943 c25 -52 35 -64 55 -69 40 -10 39 5 -2 41 -36 32 -62 46 -53 28z"/> <path d="M2862 1793 c5 -25 28 -28 28 -4 0 12 -6 21 -16 21 -9 0 -14 -7 -12 -17z"/> <path d="M2923 1732 c10 -10 17 -26 17 -35 0 -8 13 -25 29 -36 30 -22 71 -28 71 -11 0 6 -5 10 -10 10 -6 0 -30 20 -54 45 -25 25 -50 45 -57 45 -8 0 -7 -6 4 -18z"/> <path d="M3377 1633 c-11 -10 13 -33 34 -33 23 0 25 25 3 34 -20 8 -29 8 -37 -1z"/> <path d="M3110 1591 c0 -10 30 -24 37 -17 3 3 2 9 -2 15 -8 13 -35 15 -35 2z"/> <path d="M2990 1511 c0 -12 6 -21 16 -21 9 0 14 7 12 17 -5 25 -28 28 -28 4z"/> <path d="M3240 1501 c0 -5 7 -12 16 -15 22 -9 24 -8 24 9 0 8 -9 15 -20 15 -11 0 -20 -4 -20 -9z"/> <path d="M2683 813 c-43 -68 -50 -83 -58 -130 -3 -23 -12 -46 -19 -52 -8 -7 -57 -6 -148 1 -118 9 -142 9 -184 -6 -26 -9 -60 -16 -75 -16 -15 0 -40 -7 -55 -15 -16 -8 -46 -15 -66 -15 -64 0 -151 -55 -239 -152 -43 -47 -79 -90 -79 -95 0 -11 -103 -113 -115 -114 -6 0 -30 -16 -55 -34 -25 -19 -70 -46 -100 -61 -30 -14 -62 -32 -71 -40 -8 -8 -35 -24 -59 -37 -24 -12 -45 -28 -48 -35 -6 -19 79 -15 121 7 66 34 70 34 65 6 -5 -22 -2 -25 26 -25 43 0 106 19 111 33 40 138 48 156 86 187 21 17 39 39 39 49 0 16 38 51 55 51 14 0 2 -26 -25 -52 -25 -24 -30 -36 -30 -77 0 -28 -4 -53 -10 -56 -5 -3 -10 -13 -10 -21 0 -8 -9 -23 -21 -35 -11 -11 -19 -27 -17 -36 3 -13 35 -15 253 -14 137 1 253 5 257 9 3 4 -4 20 -17 37 l-24 29 -24 -22 c-13 -12 -27 -19 -31 -15 -4 4 -61 8 -126 8 -110 0 -121 2 -142 22 -21 22 -22 25 -8 65 10 29 24 47 43 56 20 10 27 20 27 41 0 16 7 31 15 35 22 8 18 21 -8 33 -16 7 -29 8 -41 1 -10 -5 -20 -7 -23 -5 -9 9 7 27 25 27 20 1 56 46 47 60 -3 5 29 26 72 46 61 29 91 37 141 38 35 1 66 6 70 11 13 18 71 55 87 55 14 0 15 -21 10 -176 -2 -96 -7 -180 -11 -185 -3 -6 -3 -33 1 -60 6 -44 4 -54 -15 -74 -12 -12 -18 -25 -13 -28 12 -7 638 -8 706 -1 31 3 57 11 57 16 0 6 -11 8 -25 6 -19 -4 -33 4 -62 36 -21 23 -43 53 -50 68 -19 45 -43 36 -43 -15 0 -40 -3 -45 -35 -60 -28 -13 -40 -14 -60 -5 -20 9 -28 8 -43 -5 -21 -20 -98 -23 -104 -5 -5 15 -60 14 -119 -2 l-47 -13 -61 47 c-34 26 -61 50 -61 53 0 3 14 21 30 40 26 30 30 41 28 86 -2 29 1 75 5 102 7 43 5 54 -12 74 -17 19 -18 27 -9 44 10 20 11 20 24 1 35 -51 47 -55 64 -24 15 28 30 16 30 -23 0 -60 18 -66 26 -7 5 39 15 61 35 83 16 16 31 38 34 48 12 36 33 19 69 -54 20 -40 36 -77 36 -84 0 -6 13 -26 29 -43 21 -23 31 -48 39 -97 6 -35 16 -71 23 -79 16 -20 57 -18 61 4 5 21 -17 101 -43 159 -10 23 -19 49 -19 57 0 8 -4 18 -10 21 -5 3 -10 14 -10 24 0 10 -10 40 -22 67 -27 60 -33 176 -12 243 16 54 17 61 6 61 -5 0 -22 -21 -39 -47z m-1097 -698 c-8 -8 -17 -24 -21 -35 -6 -19 -41 -37 -52 -26 -7 6 66 75 80 76 5 0 2 -7 -7 -15z"/> <path d="M2151 435 c-10 -28 -10 -39 -1 -50 19 -23 25 -19 45 28 10 23 20 45 23 50 2 4 -9 7 -25 7 -24 0 -31 -6 -42 -35z"/> <path d="M7956 406 c3 -13 1 -27 -5 -31 -21 -12 8 -48 35 -42 13 2 29 -2 35 -9 6 -8 22 -14 35 -14 31 0 39 -17 14 -30 -14 -7 -20 -19 -18 -33 3 -19 10 -22 52 -25 63 -4 80 11 38 35 -24 13 -32 25 -32 46 0 27 -42 76 -66 77 -6 0 -20 11 -32 25 -12 14 -31 25 -42 25 -16 0 -19 -5 -14 -24z"/> <path d="M2041 366 c-26 -26 -32 -40 -27 -58 10 -38 23 -51 41 -44 16 6 17 17 4 65 -2 9 6 17 21 21 16 4 25 13 25 25 0 32 -28 28 -64 -9z"/> <path d="M2632 359 c1 -13 8 -23 13 -21 15 3 12 35 -3 40 -9 3 -13 -3 -10 -19z"/> <path d="M7840 362 c0 -5 7 -15 15 -22 8 -7 15 -8 15 -2 0 5 -7 15 -15 22 -8 7 -15 8 -15 2z"/> <path d="M8154 179 c-6 -8 -17 -33 -24 -57 -7 -24 -16 -45 -20 -47 -10 -6 -174 16 -193 26 -24 13 -29 8 -30 -33 l-2 -33 80 -1 c254 -5 497 -4 505 1 6 3 10 11 10 17 0 7 -17 8 -49 4 -78 -10 -155 38 -197 122 -10 19 -24 14 -24 -8 0 -26 -14 -25 -32 1 -11 17 -16 19 -24 8z"/> <path d="M5540 75 l-9 -24 -356 3 c-195 2 -355 0 -355 -4 0 -10 396 -19 655 -15 121 2 290 5 375 6 149 1 153 2 110 15 -25 8 -94 17 -155 20 -60 3 -114 9 -119 15 -6 5 -38 9 -73 9 -58 0 -64 -2 -73 -25z"/> <path d="M7550 86 c0 -7 -7 -19 -15 -26 -23 -19 -18 -30 13 -30 33 0 59 15 43 24 -6 4 -11 16 -11 27 0 10 -7 19 -15 19 -8 0 -15 -6 -15 -14z"/> <path d="M4316 68 c-7 -4 -78 -11 -157 -16 l-144 -9 100 -3 c279 -7 413 -8 542 -3 147 6 188 20 62 22 -39 0 -76 4 -82 8 -15 10 -304 10 -321 1z"/> <path d="M3290 60 c0 -12 65 -24 86 -16 8 3 12 10 9 16 -8 13 -95 13 -95 0z"/> <path d="M6645 50 c8 -13 42 -13 50 0 4 6 -7 10 -25 10 -18 0 -29 -4 -25 -10z"/> <path d="M6938 48 c9 -9 15 -9 24 0 9 9 7 12 -12 12 -19 0 -21 -3 -12 -12z"/> <path d="M3772 43 c37 -2 100 -2 140 0 40 1 10 3 -67 3 -77 0 -110 -1 -73 -3z"/> <path d="M7173 43 c9 -2 25 -2 35 0 9 3 1 5 -18 5 -19 0 -27 -2 -17 -5z"/> </g> </svg> 